<?xml version="1.0" encoding="UTF-8" standalone="no"?>
<!DOCTYPE svg PUBLIC "-//W3C//DTD SVG 1.1//EN"
 "http://www.w3.org/Graphics/SVG/1.1/DTD/svg11.dtd">
<!-- Generated by graphviz version 2.47.1 (20210515.0534)
 -->
<!-- Title: elphi::data::PerfCpuSampler Pages: 1 -->
<svg width="236pt" height="106pt"
 viewBox="0.00 0.00 236.00 106.00" xmlns="http://www.w3.org/2000/svg" xmlns:xlink="http://www.w3.org/1999/xlink">
<g id="graph0" class="graph" transform="scale(1 1) rotate(0) translate(4 102)">
<title>elphi::data::PerfCpuSampler</title>
<!-- Node1 -->
<g id="node1" class="node">
<title>Node1</title>
<g id="a_node1"><a xlink:title="Sample CPU activity.">
<polygon fill="#bfbfbf" stroke="black" points="43.5,-0.5 43.5,-19.5 179.5,-19.5 179.5,-0.5 43.5,-0.5"/>
<text text-anchor="middle" x="111.5" y="-7.5" font-family="Helvetica,sans-Serif" font-size="10.00">elphi::data::PerfCpuSampler</text>
</a>
</g>
</g>
<!-- Node2 -->
<g id="node2" class="node">
<title>Node2</title>
<g id="a_node2"><a xlink:href="classelphi_1_1FileDescriptor.html" target="_top" xlink:title=" ">
<polygon fill="none" stroke="black" points="0,-73 0,-92 101,-92 101,-73 0,-73"/>
<text text-anchor="middle" x="50.5" y="-80" font-family="Helvetica,sans-Serif" font-size="10.00">elphi::FileDescriptor</text>
</a>
</g>
</g>
<!-- Node2&#45;&gt;Node1 -->
<g id="edge1" class="edge">
<title>Node2&#45;&gt;Node1</title>
<path fill="none" stroke="#9a32cd" stroke-dasharray="5,2" d="M64.87,-64.9C77.11,-50.74 94.23,-30.96 103.96,-19.72"/>
<polygon fill="#9a32cd" stroke="#9a32cd" points="61.88,-63 57.98,-72.86 67.17,-67.58 61.88,-63"/>
<text text-anchor="middle" x="106.5" y="-41" font-family="Helvetica,sans-Serif" font-size="10.00"> m_event</text>
</g>
<!-- Node3 -->
<g id="node3" class="node">
<title>Node3</title>
<g id="a_node3"><a xlink:title=" ">
<polygon fill="none" stroke="#bfbfbf" points="119,-67.5 119,-97.5 228,-97.5 228,-67.5 119,-67.5"/>
<text text-anchor="start" x="127" y="-85.5" font-family="Helvetica,sans-Serif" font-size="10.00">std::vector&lt; unsigned</text>
<text text-anchor="middle" x="173.5" y="-74.5" font-family="Helvetica,sans-Serif" font-size="10.00"> char &gt;</text>
</a>
</g>
</g>
<!-- Node3&#45;&gt;Node1 -->
<g id="edge2" class="edge">
<title>Node3&#45;&gt;Node1</title>
<path fill="none" stroke="#9a32cd" stroke-dasharray="5,2" d="M154.05,-59.38C142.31,-46.04 127.99,-29.76 119.32,-19.89"/>
<polygon fill="#9a32cd" stroke="#9a32cd" points="151.72,-62.04 160.95,-67.23 156.98,-57.41 151.72,-62.04"/>
<text text-anchor="middle" x="181" y="-41" font-family="Helvetica,sans-Serif" font-size="10.00"> m_record_cache</text>
</g>
</g>
</svg>
