<?xml version="1.0" encoding="UTF-8" standalone="no"?>
<!DOCTYPE svg PUBLIC "-//W3C//DTD SVG 1.1//EN"
 "http://www.w3.org/Graphics/SVG/1.1/DTD/svg11.dtd">
<!-- Generated by graphviz version 2.47.1 (20210515.0534)
 -->
<!-- Title: elphi::data::PerfCpuSampler Pages: 1 -->
<svg width="357pt" height="106pt"
 viewBox="0.00 0.00 357.00 106.00" xmlns="http://www.w3.org/2000/svg" xmlns:xlink="http://www.w3.org/1999/xlink">
<g id="graph0" class="graph" transform="scale(1 1) rotate(0) translate(4 102)">
<title>elphi::data::PerfCpuSampler</title>
<!-- Node1 -->
<g id="node1" class="node">
<title>Node1</title>
<g id="a_node1"><a xlink:title="Sample CPU activity.">
<polygon fill="#bfbfbf" stroke="black" points="102.5,-0.5 102.5,-19.5 238.5,-19.5 238.5,-0.5 102.5,-0.5"/>
<text text-anchor="middle" x="170.5" y="-7.5" font-family="Helvetica,sans-Serif" font-size="10.00">elphi::data::PerfCpuSampler</text>
</a>
</g>
</g>
<!-- Node2 -->
<g id="node2" class="node">
<title>Node2</title>
<g id="a_node2"><a xlink:href="classelphi_1_1FileDescriptor.html" target="_top" xlink:title=" ">
<polygon fill="none" stroke="black" points="0,-73 0,-92 101,-92 101,-73 0,-73"/>
<text text-anchor="middle" x="50.5" y="-80" font-family="Helvetica,sans-Serif" font-size="10.00">elphi::FileDescriptor</text>
</a>
</g>
</g>
<!-- Node2&#45;&gt;Node1 -->
<g id="edge1" class="edge">
<title>Node2&#45;&gt;Node1</title>
<path fill="none" stroke="#9a32cd" stroke-dasharray="5,2" d="M74.12,-67.62C98.34,-53.39 135.27,-31.7 155.67,-19.72"/>
<polygon fill="#9a32cd" stroke="#9a32cd" points="72.06,-64.77 65.21,-72.86 75.61,-70.81 72.06,-64.77"/>
<text text-anchor="middle" x="141.5" y="-41" font-family="Helvetica,sans-Serif" font-size="10.00"> m_event</text>
</g>
<!-- Node3 -->
<g id="node3" class="node">
<title>Node3</title>
<g id="a_node3"><a xlink:title=" ">
<polygon fill="none" stroke="#bfbfbf" points="119,-67.5 119,-97.5 222,-97.5 222,-67.5 119,-67.5"/>
<text text-anchor="start" x="127" y="-85.5" font-family="Helvetica,sans-Serif" font-size="10.00">std::span&lt; unsigned</text>
<text text-anchor="middle" x="170.5" y="-74.5" font-family="Helvetica,sans-Serif" font-size="10.00"> char &gt;</text>
</a>
</g>
</g>
<!-- Node3&#45;&gt;Node1 -->
<g id="edge2" class="edge">
<title>Node3&#45;&gt;Node1</title>
<path fill="none" stroke="#9a32cd" stroke-dasharray="5,2" d="M170.5,-57.09C170.5,-44.21 170.5,-29.2 170.5,-19.89"/>
<polygon fill="#9a32cd" stroke="#9a32cd" points="167,-57.23 170.5,-67.23 174,-57.23 167,-57.23"/>
<text text-anchor="middle" x="201" y="-41" font-family="Helvetica,sans-Serif" font-size="10.00"> m_event_buff</text>
</g>
<!-- Node4 -->
<g id="node4" class="node">
<title>Node4</title>
<g id="a_node4"><a xlink:title=" ">
<polygon fill="none" stroke="#bfbfbf" points="240,-67.5 240,-97.5 349,-97.5 349,-67.5 240,-67.5"/>
<text text-anchor="start" x="248" y="-85.5" font-family="Helvetica,sans-Serif" font-size="10.00">std::vector&lt; unsigned</text>
<text text-anchor="middle" x="294.5" y="-74.5" font-family="Helvetica,sans-Serif" font-size="10.00"> char &gt;</text>
</a>
</g>
</g>
<!-- Node4&#45;&gt;Node1 -->
<g id="edge3" class="edge">
<title>Node4&#45;&gt;Node1</title>
<path fill="none" stroke="#9a32cd" stroke-dasharray="5,2" d="M269.64,-61.09C259.43,-53.28 247.27,-44.65 235.5,-38 222.63,-30.72 207.4,-24.29 194.93,-19.54"/>
<polygon fill="#9a32cd" stroke="#9a32cd" points="267.66,-63.99 277.69,-67.4 271.98,-58.48 267.66,-63.99"/>
<text text-anchor="middle" x="290" y="-41" font-family="Helvetica,sans-Serif" font-size="10.00"> m_record_cache</text>
</g>
</g>
</svg>
