<?xml version="1.0" encoding="UTF-8" standalone="no"?>
<!DOCTYPE svg PUBLIC "-//W3C//DTD SVG 1.1//EN"
 "http://www.w3.org/Graphics/SVG/1.1/DTD/svg11.dtd">
<!-- Generated by graphviz version 2.47.1 (20210515.0534)
 -->
<!-- Title: elphi::PerfEvents Pages: 1 -->
<svg width="230pt" height="106pt"
 viewBox="0.00 0.00 230.00 106.00" xmlns="http://www.w3.org/2000/svg" xmlns:xlink="http://www.w3.org/1999/xlink">
<g id="graph0" class="graph" transform="scale(1 1) rotate(0) translate(4 102)">
<title>elphi::PerfEvents</title>
<!-- Node1 -->
<g id="node1" class="node">
<title>Node1</title>
<g id="a_node1"><a xlink:title="RAII wrapper around perf_event Linux subsystem.">
<polygon fill="#bfbfbf" stroke="black" points="66,-0.5 66,-19.5 155,-19.5 155,-0.5 66,-0.5"/>
<text text-anchor="middle" x="110.5" y="-7.5" font-family="Helvetica,sans-Serif" font-size="10.00">elphi::PerfEvents</text>
</a>
</g>
</g>
<!-- Node2 -->
<g id="node2" class="node">
<title>Node2</title>
<g id="a_node2"><a xlink:href="classelphi_1_1FileDescriptor.html" target="_top" xlink:title=" ">
<polygon fill="none" stroke="black" points="0,-73 0,-92 101,-92 101,-73 0,-73"/>
<text text-anchor="middle" x="50.5" y="-80" font-family="Helvetica,sans-Serif" font-size="10.00">elphi::FileDescriptor</text>
</a>
</g>
</g>
<!-- Node2&#45;&gt;Node1 -->
<g id="edge1" class="edge">
<title>Node2&#45;&gt;Node1</title>
<path fill="none" stroke="#9a32cd" stroke-dasharray="5,2" d="M64.63,-64.9C76.68,-50.74 93.52,-30.96 103.08,-19.72"/>
<polygon fill="#9a32cd" stroke="#9a32cd" points="61.67,-62.97 57.86,-72.86 67,-67.51 61.67,-62.97"/>
<text text-anchor="middle" x="99" y="-41" font-family="Helvetica,sans-Serif" font-size="10.00"> m_fd</text>
</g>
<!-- Node3 -->
<g id="node3" class="node">
<title>Node3</title>
<g id="a_node3"><a xlink:title=" ">
<polygon fill="none" stroke="#bfbfbf" points="119,-67.5 119,-97.5 222,-97.5 222,-67.5 119,-67.5"/>
<text text-anchor="start" x="127" y="-85.5" font-family="Helvetica,sans-Serif" font-size="10.00">std::span&lt; unsigned</text>
<text text-anchor="middle" x="170.5" y="-74.5" font-family="Helvetica,sans-Serif" font-size="10.00"> char &gt;</text>
</a>
</g>
</g>
<!-- Node3&#45;&gt;Node1 -->
<g id="edge2" class="edge">
<title>Node3&#45;&gt;Node1</title>
<path fill="none" stroke="#9a32cd" stroke-dasharray="5,2" d="M151.68,-59.38C140.32,-46.04 126.46,-29.76 118.07,-19.89"/>
<polygon fill="#9a32cd" stroke="#9a32cd" points="149.21,-61.89 158.36,-67.23 154.54,-57.35 149.21,-61.89"/>
<text text-anchor="middle" x="161.5" y="-41" font-family="Helvetica,sans-Serif" font-size="10.00"> m_buffer</text>
</g>
</g>
</svg>
