<?xml version="1.0" encoding="UTF-8" standalone="no"?>
<!DOCTYPE svg PUBLIC "-//W3C//DTD SVG 1.1//EN"
 "http://www.w3.org/Graphics/SVG/1.1/DTD/svg11.dtd">
<!-- Generated by graphviz version 2.47.1 (20210515.0534)
 -->
<!-- Title: elphi/include/elphi/cpu_sampler.hpp Pages: 1 -->
<svg width="402pt" height="173pt"
 viewBox="0.00 0.00 401.50 173.00" xmlns="http://www.w3.org/2000/svg" xmlns:xlink="http://www.w3.org/1999/xlink">
<g id="graph0" class="graph" transform="scale(1 1) rotate(0) translate(4 169)">
<title>elphi/include/elphi/cpu_sampler.hpp</title>
<!-- Node1 -->
<g id="node1" class="node">
<title>Node1</title>
<g id="a_node1"><a xlink:title=" ">
<polygon fill="#bfbfbf" stroke="black" points="131.5,-134.5 131.5,-164.5 225.5,-164.5 225.5,-134.5 131.5,-134.5"/>
<text text-anchor="start" x="139.5" y="-152.5" font-family="Helvetica,sans-Serif" font-size="10.00">elphi/include/elphi</text>
<text text-anchor="middle" x="178.5" y="-141.5" font-family="Helvetica,sans-Serif" font-size="10.00">/cpu_sampler.hpp</text>
</a>
</g>
</g>
<!-- Node2 -->
<g id="node2" class="node">
<title>Node2</title>
<g id="a_node2"><a xlink:href="timeline__view_8hpp.html" target="_top" xlink:title=" ">
<polygon fill="none" stroke="black" points="0,-67.5 0,-97.5 97,-97.5 97,-67.5 0,-67.5"/>
<text text-anchor="start" x="8" y="-85.5" font-family="Helvetica,sans-Serif" font-size="10.00">elphi/include/elphi</text>
<text text-anchor="middle" x="48.5" y="-74.5" font-family="Helvetica,sans-Serif" font-size="10.00">/timeline_view.hpp</text>
</a>
</g>
</g>
<!-- Node1&#45;&gt;Node2 -->
<g id="edge1" class="edge">
<title>Node1&#45;&gt;Node2</title>
<path fill="none" stroke="midnightblue" d="M141.21,-129.85C120.65,-119.58 95.55,-107.03 76.65,-97.58"/>
<polygon fill="midnightblue" stroke="midnightblue" points="139.78,-133.05 150.29,-134.4 142.91,-126.79 139.78,-133.05"/>
</g>
<!-- Node4 -->
<g id="node4" class="node">
<title>Node4</title>
<g id="a_node4"><a xlink:href="cpu__sampler_8cpp.html" target="_top" xlink:title=" ">
<polygon fill="none" stroke="black" points="115.5,-73 115.5,-92 241.5,-92 241.5,-73 115.5,-73"/>
<text text-anchor="middle" x="178.5" y="-80" font-family="Helvetica,sans-Serif" font-size="10.00">elphi/lib/cpu_sampler.cpp</text>
</a>
</g>
</g>
<!-- Node1&#45;&gt;Node4 -->
<g id="edge3" class="edge">
<title>Node1&#45;&gt;Node4</title>
<path fill="none" stroke="midnightblue" d="M178.5,-124.25C178.5,-113.02 178.5,-100.38 178.5,-92.19"/>
<polygon fill="midnightblue" stroke="midnightblue" points="175,-124.4 178.5,-134.4 182,-124.4 175,-124.4"/>
</g>
<!-- Node5 -->
<g id="node5" class="node">
<title>Node5</title>
<g id="a_node5"><a xlink:href="cpu__sampling_8cpp.html" target="_top" xlink:title=" ">
<polygon fill="none" stroke="black" points="259.5,-73 259.5,-92 393.5,-92 393.5,-73 259.5,-73"/>
<text text-anchor="middle" x="326.5" y="-80" font-family="Helvetica,sans-Serif" font-size="10.00">elphi/src/cpu_sampling.cpp</text>
</a>
</g>
</g>
<!-- Node1&#45;&gt;Node5 -->
<g id="edge4" class="edge">
<title>Node1&#45;&gt;Node5</title>
<path fill="none" stroke="midnightblue" d="M219.95,-130.3C248.49,-117.76 285.1,-101.68 307.13,-92.01"/>
<polygon fill="midnightblue" stroke="midnightblue" points="218.36,-127.17 210.61,-134.4 221.18,-133.58 218.36,-127.17"/>
</g>
<!-- Node3 -->
<g id="node3" class="node">
<title>Node3</title>
<g id="a_node3"><a xlink:href="timeline__view_8cpp.html" target="_top" xlink:title=" ">
<polygon fill="none" stroke="black" points="5.5,-0.5 5.5,-30.5 91.5,-30.5 91.5,-0.5 5.5,-0.5"/>
<text text-anchor="start" x="13.5" y="-18.5" font-family="Helvetica,sans-Serif" font-size="10.00">elphi/lib/timeline</text>
<text text-anchor="middle" x="48.5" y="-7.5" font-family="Helvetica,sans-Serif" font-size="10.00">_view.cpp</text>
</a>
</g>
</g>
<!-- Node2&#45;&gt;Node3 -->
<g id="edge2" class="edge">
<title>Node2&#45;&gt;Node3</title>
<path fill="none" stroke="midnightblue" d="M48.5,-57.11C48.5,-48.15 48.5,-38.32 48.5,-30.58"/>
<polygon fill="midnightblue" stroke="midnightblue" points="45,-57.4 48.5,-67.4 52,-57.4 45,-57.4"/>
</g>
</g>
</svg>
