<?xml version="1.0" encoding="UTF-8" standalone="no"?>
<!DOCTYPE svg PUBLIC "-//W3C//DTD SVG 1.1//EN"
 "http://www.w3.org/Graphics/SVG/1.1/DTD/svg11.dtd">
<!-- Generated by graphviz version 2.47.1 (20210515.0534)
 -->
<!-- Title: elphi/examples/cpu_sampling.cpp Pages: 1 -->
<svg width="633pt" height="207pt"
 viewBox="0.00 0.00 633.00 207.00" xmlns="http://www.w3.org/2000/svg" xmlns:xlink="http://www.w3.org/1999/xlink">
<g id="graph0" class="graph" transform="scale(1 1) rotate(0) translate(4 203)">
<title>elphi/examples/cpu_sampling.cpp</title>
<!-- Node1 -->
<g id="node1" class="node">
<title>Node1</title>
<g id="a_node1"><a xlink:title=" ">
<polygon fill="#bfbfbf" stroke="black" points="98.5,-168.5 98.5,-198.5 198.5,-198.5 198.5,-168.5 98.5,-168.5"/>
<text text-anchor="start" x="106.5" y="-186.5" font-family="Helvetica,sans-Serif" font-size="10.00">elphi/examples/cpu</text>
<text text-anchor="middle" x="148.5" y="-175.5" font-family="Helvetica,sans-Serif" font-size="10.00">_sampling.cpp</text>
</a>
</g>
</g>
<!-- Node2 -->
<g id="node2" class="node">
<title>Node2</title>
<g id="a_node2"><a xlink:title=" ">
<polygon fill="none" stroke="#bfbfbf" points="0,-112.5 0,-131.5 49,-131.5 49,-112.5 0,-112.5"/>
<text text-anchor="middle" x="24.5" y="-119.5" font-family="Helvetica,sans-Serif" font-size="10.00">cassert</text>
</a>
</g>
</g>
<!-- Node1&#45;&gt;Node2 -->
<g id="edge1" class="edge">
<title>Node1&#45;&gt;Node2</title>
<path fill="none" stroke="midnightblue" d="M119.11,-168.4C98.68,-158.59 71.64,-145.62 51.7,-136.05"/>
<polygon fill="midnightblue" stroke="midnightblue" points="53.07,-132.83 42.54,-131.66 50.04,-139.14 53.07,-132.83"/>
</g>
<!-- Node3 -->
<g id="node3" class="node">
<title>Node3</title>
<g id="a_node3"><a xlink:title=" ">
<polygon fill="none" stroke="#bfbfbf" points="67,-112.5 67,-131.5 108,-131.5 108,-112.5 67,-112.5"/>
<text text-anchor="middle" x="87.5" y="-119.5" font-family="Helvetica,sans-Serif" font-size="10.00">future</text>
</a>
</g>
</g>
<!-- Node1&#45;&gt;Node3 -->
<g id="edge2" class="edge">
<title>Node1&#45;&gt;Node3</title>
<path fill="none" stroke="midnightblue" d="M134.04,-168.4C124.91,-159.49 113.08,-147.95 103.64,-138.74"/>
<polygon fill="midnightblue" stroke="midnightblue" points="105.98,-136.13 96.38,-131.66 101.09,-141.15 105.98,-136.13"/>
</g>
<!-- Node4 -->
<g id="node4" class="node">
<title>Node4</title>
<g id="a_node4"><a xlink:title=" ">
<polygon fill="none" stroke="#bfbfbf" points="126.5,-112.5 126.5,-131.5 170.5,-131.5 170.5,-112.5 126.5,-112.5"/>
<text text-anchor="middle" x="148.5" y="-119.5" font-family="Helvetica,sans-Serif" font-size="10.00">thread</text>
</a>
</g>
</g>
<!-- Node1&#45;&gt;Node4 -->
<g id="edge3" class="edge">
<title>Node1&#45;&gt;Node4</title>
<path fill="none" stroke="midnightblue" d="M148.5,-168.4C148.5,-160.47 148.5,-150.46 148.5,-141.86"/>
<polygon fill="midnightblue" stroke="midnightblue" points="152,-141.66 148.5,-131.66 145,-141.66 152,-141.66"/>
</g>
<!-- Node5 -->
<g id="node5" class="node">
<title>Node5</title>
<g id="a_node5"><a xlink:title=" ">
<polygon fill="none" stroke="#bfbfbf" points="188.5,-112.5 188.5,-131.5 248.5,-131.5 248.5,-112.5 188.5,-112.5"/>
<text text-anchor="middle" x="218.5" y="-119.5" font-family="Helvetica,sans-Serif" font-size="10.00">fmt/core.h</text>
</a>
</g>
</g>
<!-- Node1&#45;&gt;Node5 -->
<g id="edge4" class="edge">
<title>Node1&#45;&gt;Node5</title>
<path fill="none" stroke="midnightblue" d="M165.09,-168.4C175.79,-159.31 189.69,-147.49 200.63,-138.19"/>
<polygon fill="midnightblue" stroke="midnightblue" points="202.96,-140.8 208.31,-131.66 198.43,-135.47 202.96,-140.8"/>
</g>
<!-- Node6 -->
<g id="node6" class="node">
<title>Node6</title>
<g id="a_node6"><a xlink:href="cpu__sampler_8hpp.html" target="_top" xlink:title=" ">
<polygon fill="none" stroke="black" points="267,-112.5 267,-131.5 380,-131.5 380,-112.5 267,-112.5"/>
<text text-anchor="middle" x="323.5" y="-119.5" font-family="Helvetica,sans-Serif" font-size="10.00">elphi/cpu_sampler.hpp</text>
</a>
</g>
</g>
<!-- Node1&#45;&gt;Node6 -->
<g id="edge5" class="edge">
<title>Node1&#45;&gt;Node6</title>
<path fill="none" stroke="midnightblue" d="M189.97,-168.4C220.08,-158.16 260.35,-144.47 288.77,-134.81"/>
<polygon fill="midnightblue" stroke="midnightblue" points="289.95,-138.1 298.29,-131.57 287.7,-131.48 289.95,-138.1"/>
</g>
<!-- Node7 -->
<g id="node7" class="node">
<title>Node7</title>
<g id="a_node7"><a xlink:title=" ">
<polygon fill="none" stroke="#bfbfbf" points="91.5,-56.5 91.5,-75.5 137.5,-75.5 137.5,-56.5 91.5,-56.5"/>
<text text-anchor="middle" x="114.5" y="-63.5" font-family="Helvetica,sans-Serif" font-size="10.00">chrono</text>
</a>
</g>
</g>
<!-- Node6&#45;&gt;Node7 -->
<g id="edge6" class="edge">
<title>Node6&#45;&gt;Node7</title>
<path fill="none" stroke="midnightblue" d="M288.84,-112.46C255.13,-104.1 202.23,-90.81 147.44,-76.2"/>
<polygon fill="midnightblue" stroke="midnightblue" points="148.12,-72.76 137.55,-73.56 146.31,-79.52 148.12,-72.76"/>
</g>
<!-- Node8 -->
<g id="node8" class="node">
<title>Node8</title>
<g id="a_node8"><a xlink:title=" ">
<polygon fill="none" stroke="#bfbfbf" points="155.5,-56.5 155.5,-75.5 201.5,-75.5 201.5,-56.5 155.5,-56.5"/>
<text text-anchor="middle" x="178.5" y="-63.5" font-family="Helvetica,sans-Serif" font-size="10.00">cstdint</text>
</a>
</g>
</g>
<!-- Node6&#45;&gt;Node8 -->
<g id="edge7" class="edge">
<title>Node6&#45;&gt;Node8</title>
<path fill="none" stroke="midnightblue" d="M300.52,-112.44C276.34,-103.44 238.08,-89.19 210.85,-79.05"/>
<polygon fill="midnightblue" stroke="midnightblue" points="211.96,-75.73 201.37,-75.52 209.52,-82.29 211.96,-75.73"/>
</g>
<!-- Node9 -->
<g id="node9" class="node">
<title>Node9</title>
<g id="a_node9"><a xlink:title=" ">
<polygon fill="none" stroke="#bfbfbf" points="220,-56.5 220,-75.5 285,-75.5 285,-56.5 220,-56.5"/>
<text text-anchor="middle" x="252.5" y="-63.5" font-family="Helvetica,sans-Serif" font-size="10.00">stop_token</text>
</a>
</g>
</g>
<!-- Node6&#45;&gt;Node9 -->
<g id="edge8" class="edge">
<title>Node6&#45;&gt;Node9</title>
<path fill="none" stroke="midnightblue" d="M312.09,-112.32C301.39,-104.18 285.16,-91.84 272.34,-82.09"/>
<polygon fill="midnightblue" stroke="midnightblue" points="274.19,-79.1 264.11,-75.83 269.96,-84.67 274.19,-79.1"/>
</g>
<!-- Node10 -->
<g id="node10" class="node">
<title>Node10</title>
<g id="a_node10"><a xlink:title=" ">
<polygon fill="none" stroke="#bfbfbf" points="303,-56.5 303,-75.5 344,-75.5 344,-56.5 303,-56.5"/>
<text text-anchor="middle" x="323.5" y="-63.5" font-family="Helvetica,sans-Serif" font-size="10.00">string</text>
</a>
</g>
</g>
<!-- Node6&#45;&gt;Node10 -->
<g id="edge9" class="edge">
<title>Node6&#45;&gt;Node10</title>
<path fill="none" stroke="midnightblue" d="M323.5,-112.08C323.5,-105.01 323.5,-94.86 323.5,-85.99"/>
<polygon fill="midnightblue" stroke="midnightblue" points="327,-85.75 323.5,-75.75 320,-85.75 327,-85.75"/>
</g>
<!-- Node11 -->
<g id="node11" class="node">
<title>Node11</title>
<g id="a_node11"><a xlink:title=" ">
<polygon fill="none" stroke="#bfbfbf" points="362,-56.5 362,-75.5 445,-75.5 445,-56.5 362,-56.5"/>
<text text-anchor="middle" x="403.5" y="-63.5" font-family="Helvetica,sans-Serif" font-size="10.00">unordered_map</text>
</a>
</g>
</g>
<!-- Node6&#45;&gt;Node11 -->
<g id="edge10" class="edge">
<title>Node6&#45;&gt;Node11</title>
<path fill="none" stroke="midnightblue" d="M336.35,-112.32C348.72,-103.98 367.63,-91.21 382.24,-81.35"/>
<polygon fill="midnightblue" stroke="midnightblue" points="384.35,-84.15 390.68,-75.65 380.43,-78.35 384.35,-84.15"/>
</g>
<!-- Node12 -->
<g id="node12" class="node">
<title>Node12</title>
<g id="a_node12"><a xlink:title=" ">
<polygon fill="none" stroke="#bfbfbf" points="463.5,-56.5 463.5,-75.5 507.5,-75.5 507.5,-56.5 463.5,-56.5"/>
<text text-anchor="middle" x="485.5" y="-63.5" font-family="Helvetica,sans-Serif" font-size="10.00">vector</text>
</a>
</g>
</g>
<!-- Node6&#45;&gt;Node12 -->
<g id="edge11" class="edge">
<title>Node6&#45;&gt;Node12</title>
<path fill="none" stroke="midnightblue" d="M349.17,-112.44C377.46,-103.01 423.02,-87.83 453.59,-77.64"/>
<polygon fill="midnightblue" stroke="midnightblue" points="454.95,-80.87 463.33,-74.39 452.74,-74.23 454.95,-80.87"/>
</g>
<!-- Node13 -->
<g id="node13" class="node">
<title>Node13</title>
<g id="a_node13"><a xlink:href="exception_8hpp.html" target="_top" xlink:title=" ">
<polygon fill="none" stroke="black" points="526,-56.5 526,-75.5 625,-75.5 625,-56.5 526,-56.5"/>
<text text-anchor="middle" x="575.5" y="-63.5" font-family="Helvetica,sans-Serif" font-size="10.00">elphi/exception.hpp</text>
</a>
</g>
</g>
<!-- Node6&#45;&gt;Node13 -->
<g id="edge12" class="edge">
<title>Node6&#45;&gt;Node13</title>
<path fill="none" stroke="midnightblue" d="M363.43,-112.44C407.39,-103.02 478.13,-87.87 525.68,-77.68"/>
<polygon fill="midnightblue" stroke="midnightblue" points="526.71,-81.03 535.76,-75.52 525.25,-74.19 526.71,-81.03"/>
</g>
<!-- Node14 -->
<g id="node14" class="node">
<title>Node14</title>
<g id="a_node14"><a xlink:title=" ">
<polygon fill="none" stroke="#bfbfbf" points="546,-0.5 546,-19.5 605,-19.5 605,-0.5 546,-0.5"/>
<text text-anchor="middle" x="575.5" y="-7.5" font-family="Helvetica,sans-Serif" font-size="10.00">stdexcept</text>
</a>
</g>
</g>
<!-- Node13&#45;&gt;Node14 -->
<g id="edge13" class="edge">
<title>Node13&#45;&gt;Node14</title>
<path fill="none" stroke="midnightblue" d="M575.5,-56.08C575.5,-49.01 575.5,-38.86 575.5,-29.99"/>
<polygon fill="midnightblue" stroke="midnightblue" points="579,-29.75 575.5,-19.75 572,-29.75 579,-29.75"/>
</g>
</g>
</svg>
