<?xml version="1.0" encoding="UTF-8" standalone="no"?>
<!DOCTYPE svg PUBLIC "-//W3C//DTD SVG 1.1//EN"
 "http://www.w3.org/Graphics/SVG/1.1/DTD/svg11.dtd">
<!-- Generated by graphviz version 2.47.1 (20210515.0534)
 -->
<!-- Title: elphi/lib/cpu_sampler.cpp Pages: 1 -->
<svg width="949pt" height="252pt"
 viewBox="0.00 0.00 949.00 252.00" xmlns="http://www.w3.org/2000/svg" xmlns:xlink="http://www.w3.org/1999/xlink">
<g id="graph0" class="graph" transform="scale(1 1) rotate(0) translate(4 248)">
<title>elphi/lib/cpu_sampler.cpp</title>
<!-- Node1 -->
<g id="node1" class="node">
<title>Node1</title>
<g id="a_node1"><a xlink:title=" ">
<polygon fill="#bfbfbf" stroke="black" points="642.5,-224.5 642.5,-243.5 768.5,-243.5 768.5,-224.5 642.5,-224.5"/>
<text text-anchor="middle" x="705.5" y="-231.5" font-family="Helvetica,sans-Serif" font-size="10.00">elphi/lib/cpu_sampler.cpp</text>
</a>
</g>
</g>
<!-- Node2 -->
<g id="node2" class="node">
<title>Node2</title>
<g id="a_node2"><a xlink:title=" ">
<polygon fill="none" stroke="#bfbfbf" points="551.5,-56.5 551.5,-75.5 607.5,-75.5 607.5,-56.5 551.5,-56.5"/>
<text text-anchor="middle" x="579.5" y="-63.5" font-family="Helvetica,sans-Serif" font-size="10.00">algorithm</text>
</a>
</g>
</g>
<!-- Node1&#45;&gt;Node2 -->
<g id="edge1" class="edge">
<title>Node1&#45;&gt;Node2</title>
<path fill="none" stroke="midnightblue" d="M642.28,-233.01C568.56,-229.21 449.55,-210.36 392.5,-132 334.29,-52.05 297.16,-133.32 541.28,-76.25"/>
<polygon fill="midnightblue" stroke="midnightblue" points="542.3,-79.61 551.22,-73.89 540.68,-72.8 542.3,-79.61"/>
</g>
<!-- Node3 -->
<g id="node3" class="node">
<title>Node3</title>
<g id="a_node3"><a xlink:title=" ">
<polygon fill="none" stroke="#bfbfbf" points="730,-168.5 730,-187.5 779,-187.5 779,-168.5 730,-168.5"/>
<text text-anchor="middle" x="754.5" y="-175.5" font-family="Helvetica,sans-Serif" font-size="10.00">cassert</text>
</a>
</g>
</g>
<!-- Node1&#45;&gt;Node3 -->
<g id="edge2" class="edge">
<title>Node1&#45;&gt;Node3</title>
<path fill="none" stroke="midnightblue" d="M713.59,-224.08C720.66,-216.3 731.09,-204.8 739.65,-195.37"/>
<polygon fill="midnightblue" stroke="midnightblue" points="742.43,-197.51 746.56,-187.75 737.25,-192.8 742.43,-197.51"/>
</g>
<!-- Node4 -->
<g id="node4" class="node">
<title>Node4</title>
<g id="a_node4"><a xlink:title=" ">
<polygon fill="none" stroke="#bfbfbf" points="797,-168.5 797,-187.5 866,-187.5 866,-168.5 797,-168.5"/>
<text text-anchor="middle" x="831.5" y="-175.5" font-family="Helvetica,sans-Serif" font-size="10.00">fmt/format.h</text>
</a>
</g>
</g>
<!-- Node1&#45;&gt;Node4 -->
<g id="edge3" class="edge">
<title>Node1&#45;&gt;Node4</title>
<path fill="none" stroke="midnightblue" d="M725.47,-224.44C746.11,-215.6 778.56,-201.69 802.13,-191.59"/>
<polygon fill="midnightblue" stroke="midnightblue" points="803.82,-194.67 811.63,-187.52 801.06,-188.24 803.82,-194.67"/>
</g>
<!-- Node5 -->
<g id="node5" class="node">
<title>Node5</title>
<g id="a_node5"><a xlink:title=" ">
<polygon fill="none" stroke="#bfbfbf" points="884,-168.5 884,-187.5 941,-187.5 941,-168.5 884,-168.5"/>
<text text-anchor="middle" x="912.5" y="-175.5" font-family="Helvetica,sans-Serif" font-size="10.00">sys/poll.h</text>
</a>
</g>
</g>
<!-- Node1&#45;&gt;Node5 -->
<g id="edge4" class="edge">
<title>Node1&#45;&gt;Node5</title>
<path fill="none" stroke="midnightblue" d="M738.3,-224.44C775.14,-214.83 834.86,-199.25 873.91,-189.07"/>
<polygon fill="midnightblue" stroke="midnightblue" points="875.06,-192.38 883.85,-186.47 873.29,-185.61 875.06,-192.38"/>
</g>
<!-- Node6 -->
<g id="node6" class="node">
<title>Node6</title>
<g id="a_node6"><a xlink:href="cpu__sampler_8hpp.html" target="_top" xlink:title=" ">
<polygon fill="none" stroke="black" points="232,-112.5 232,-131.5 345,-131.5 345,-112.5 232,-112.5"/>
<text text-anchor="middle" x="288.5" y="-119.5" font-family="Helvetica,sans-Serif" font-size="10.00">elphi/cpu_sampler.hpp</text>
</a>
</g>
</g>
<!-- Node1&#45;&gt;Node6 -->
<g id="edge5" class="edge">
<title>Node1&#45;&gt;Node6</title>
<path fill="none" stroke="midnightblue" d="M642.33,-229.34C556.57,-223.61 408.38,-210.73 359.5,-188 335.69,-176.92 314.35,-154.95 301.43,-139.63"/>
<polygon fill="midnightblue" stroke="midnightblue" points="303.86,-137.07 294.84,-131.52 298.43,-141.49 303.86,-137.07"/>
</g>
<!-- Node15 -->
<g id="node15" class="node">
<title>Node15</title>
<g id="a_node15"><a xlink:href="perf__events_8hpp.html" target="_top" xlink:title=" ">
<polygon fill="none" stroke="black" points="603,-168.5 603,-187.5 712,-187.5 712,-168.5 603,-168.5"/>
<text text-anchor="middle" x="657.5" y="-175.5" font-family="Helvetica,sans-Serif" font-size="10.00">elphi/perf_events.hpp</text>
</a>
</g>
</g>
<!-- Node1&#45;&gt;Node15 -->
<g id="edge14" class="edge">
<title>Node1&#45;&gt;Node15</title>
<path fill="none" stroke="midnightblue" d="M697.57,-224.08C690.65,-216.3 680.43,-204.8 672.05,-195.37"/>
<polygon fill="midnightblue" stroke="midnightblue" points="674.54,-192.9 665.28,-187.75 669.31,-197.55 674.54,-192.9"/>
</g>
<!-- Node7 -->
<g id="node7" class="node">
<title>Node7</title>
<g id="a_node7"><a xlink:title=" ">
<polygon fill="none" stroke="#bfbfbf" points="277.5,-56.5 277.5,-75.5 323.5,-75.5 323.5,-56.5 277.5,-56.5"/>
<text text-anchor="middle" x="300.5" y="-63.5" font-family="Helvetica,sans-Serif" font-size="10.00">chrono</text>
</a>
</g>
</g>
<!-- Node6&#45;&gt;Node7 -->
<g id="edge6" class="edge">
<title>Node6&#45;&gt;Node7</title>
<path fill="none" stroke="midnightblue" d="M290.48,-112.08C292.07,-104.93 294.36,-94.64 296.35,-85.69"/>
<polygon fill="midnightblue" stroke="midnightblue" points="299.8,-86.27 298.56,-75.75 292.97,-84.75 299.8,-86.27"/>
</g>
<!-- Node8 -->
<g id="node8" class="node">
<title>Node8</title>
<g id="a_node8"><a xlink:title=" ">
<polygon fill="none" stroke="#bfbfbf" points="425.5,-56.5 425.5,-75.5 471.5,-75.5 471.5,-56.5 425.5,-56.5"/>
<text text-anchor="middle" x="448.5" y="-63.5" font-family="Helvetica,sans-Serif" font-size="10.00">cstdint</text>
</a>
</g>
</g>
<!-- Node6&#45;&gt;Node8 -->
<g id="edge7" class="edge">
<title>Node6&#45;&gt;Node8</title>
<path fill="none" stroke="midnightblue" d="M313.85,-112.44C341.4,-103.15 385.52,-88.26 415.69,-78.07"/>
<polygon fill="midnightblue" stroke="midnightblue" points="416.99,-81.33 425.34,-74.82 414.75,-74.7 416.99,-81.33"/>
</g>
<!-- Node9 -->
<g id="node9" class="node">
<title>Node9</title>
<g id="a_node9"><a xlink:title=" ">
<polygon fill="none" stroke="#bfbfbf" points="342,-56.5 342,-75.5 407,-75.5 407,-56.5 342,-56.5"/>
<text text-anchor="middle" x="374.5" y="-63.5" font-family="Helvetica,sans-Serif" font-size="10.00">stop_token</text>
</a>
</g>
</g>
<!-- Node6&#45;&gt;Node9 -->
<g id="edge8" class="edge">
<title>Node6&#45;&gt;Node9</title>
<path fill="none" stroke="midnightblue" d="M302.32,-112.32C315.73,-103.9 336.32,-90.97 352.09,-81.07"/>
<polygon fill="midnightblue" stroke="midnightblue" points="354.11,-83.94 360.72,-75.65 350.39,-78.01 354.11,-83.94"/>
</g>
<!-- Node10 -->
<g id="node10" class="node">
<title>Node10</title>
<g id="a_node10"><a xlink:title=" ">
<polygon fill="none" stroke="#bfbfbf" points="0,-56.5 0,-75.5 41,-75.5 41,-56.5 0,-56.5"/>
<text text-anchor="middle" x="20.5" y="-63.5" font-family="Helvetica,sans-Serif" font-size="10.00">string</text>
</a>
</g>
</g>
<!-- Node6&#45;&gt;Node10 -->
<g id="edge9" class="edge">
<title>Node6&#45;&gt;Node10</title>
<path fill="none" stroke="midnightblue" d="M233.53,-112.49C187.12,-104.9 118.77,-92.73 51,-76.16"/>
<polygon fill="midnightblue" stroke="midnightblue" points="51.56,-72.69 41.01,-73.69 49.88,-79.49 51.56,-72.69"/>
</g>
<!-- Node11 -->
<g id="node11" class="node">
<title>Node11</title>
<g id="a_node11"><a xlink:title=" ">
<polygon fill="none" stroke="#bfbfbf" points="59,-56.5 59,-75.5 142,-75.5 142,-56.5 59,-56.5"/>
<text text-anchor="middle" x="100.5" y="-63.5" font-family="Helvetica,sans-Serif" font-size="10.00">unordered_map</text>
</a>
</g>
</g>
<!-- Node6&#45;&gt;Node11 -->
<g id="edge10" class="edge">
<title>Node6&#45;&gt;Node11</title>
<path fill="none" stroke="midnightblue" d="M258.71,-112.44C226.67,-103.24 175.57,-88.56 140.15,-78.39"/>
<polygon fill="midnightblue" stroke="midnightblue" points="140.73,-74.91 130.15,-75.52 138.79,-81.64 140.73,-74.91"/>
</g>
<!-- Node12 -->
<g id="node12" class="node">
<title>Node12</title>
<g id="a_node12"><a xlink:title=" ">
<polygon fill="none" stroke="#bfbfbf" points="489.5,-56.5 489.5,-75.5 533.5,-75.5 533.5,-56.5 489.5,-56.5"/>
<text text-anchor="middle" x="511.5" y="-63.5" font-family="Helvetica,sans-Serif" font-size="10.00">vector</text>
</a>
</g>
</g>
<!-- Node6&#45;&gt;Node12 -->
<g id="edge11" class="edge">
<title>Node6&#45;&gt;Node12</title>
<path fill="none" stroke="midnightblue" d="M327.63,-112.46C364.48,-104.28 421.44,-91.27 479.49,-76.17"/>
<polygon fill="midnightblue" stroke="midnightblue" points="480.4,-79.55 489.19,-73.63 478.63,-72.78 480.4,-79.55"/>
</g>
<!-- Node13 -->
<g id="node13" class="node">
<title>Node13</title>
<g id="a_node13"><a xlink:href="exception_8hpp.html" target="_top" xlink:title=" ">
<polygon fill="none" stroke="black" points="160,-56.5 160,-75.5 259,-75.5 259,-56.5 160,-56.5"/>
<text text-anchor="middle" x="209.5" y="-63.5" font-family="Helvetica,sans-Serif" font-size="10.00">elphi/exception.hpp</text>
</a>
</g>
</g>
<!-- Node6&#45;&gt;Node13 -->
<g id="edge12" class="edge">
<title>Node6&#45;&gt;Node13</title>
<path fill="none" stroke="midnightblue" d="M275.81,-112.32C263.6,-103.98 244.92,-91.21 230.5,-81.35"/>
<polygon fill="midnightblue" stroke="midnightblue" points="232.39,-78.41 222.16,-75.65 228.44,-84.19 232.39,-78.41"/>
</g>
<!-- Node14 -->
<g id="node14" class="node">
<title>Node14</title>
<g id="a_node14"><a xlink:title=" ">
<polygon fill="none" stroke="#bfbfbf" points="180,-0.5 180,-19.5 239,-19.5 239,-0.5 180,-0.5"/>
<text text-anchor="middle" x="209.5" y="-7.5" font-family="Helvetica,sans-Serif" font-size="10.00">stdexcept</text>
</a>
</g>
</g>
<!-- Node13&#45;&gt;Node14 -->
<g id="edge13" class="edge">
<title>Node13&#45;&gt;Node14</title>
<path fill="none" stroke="midnightblue" d="M209.5,-56.08C209.5,-49.01 209.5,-38.86 209.5,-29.99"/>
<polygon fill="midnightblue" stroke="midnightblue" points="213,-29.75 209.5,-19.75 206,-29.75 213,-29.75"/>
</g>
<!-- Node16 -->
<g id="node16" class="node">
<title>Node16</title>
<g id="a_node16"><a xlink:title=" ">
<polygon fill="none" stroke="#bfbfbf" points="779.5,-112.5 779.5,-131.5 829.5,-131.5 829.5,-112.5 779.5,-112.5"/>
<text text-anchor="middle" x="804.5" y="-119.5" font-family="Helvetica,sans-Serif" font-size="10.00">optional</text>
</a>
</g>
</g>
<!-- Node15&#45;&gt;Node16 -->
<g id="edge15" class="edge">
<title>Node15&#45;&gt;Node16</title>
<path fill="none" stroke="midnightblue" d="M680.79,-168.44C705.31,-159.44 744.1,-145.19 771.7,-135.05"/>
<polygon fill="midnightblue" stroke="midnightblue" points="773.14,-138.25 781.32,-131.52 770.72,-131.68 773.14,-138.25"/>
</g>
<!-- Node17 -->
<g id="node17" class="node">
<title>Node17</title>
<g id="a_node17"><a xlink:title=" ">
<polygon fill="none" stroke="#bfbfbf" points="625.5,-56.5 625.5,-75.5 663.5,-75.5 663.5,-56.5 625.5,-56.5"/>
<text text-anchor="middle" x="644.5" y="-63.5" font-family="Helvetica,sans-Serif" font-size="10.00">span</text>
</a>
</g>
</g>
<!-- Node15&#45;&gt;Node17 -->
<g id="edge16" class="edge">
<title>Node15&#45;&gt;Node17</title>
<path fill="none" stroke="midnightblue" d="M656.48,-168.37C654.38,-150.62 649.54,-109.67 646.7,-85.6"/>
<polygon fill="midnightblue" stroke="midnightblue" points="650.16,-85.11 645.52,-75.59 643.21,-85.93 650.16,-85.11"/>
</g>
<!-- Node18 -->
<g id="node18" class="node">
<title>Node18</title>
<g id="a_node18"><a xlink:title=" ">
<polygon fill="none" stroke="#bfbfbf" points="885.5,-112.5 885.5,-131.5 931.5,-131.5 931.5,-112.5 885.5,-112.5"/>
<text text-anchor="middle" x="908.5" y="-119.5" font-family="Helvetica,sans-Serif" font-size="10.00">variant</text>
</a>
</g>
</g>
<!-- Node15&#45;&gt;Node18 -->
<g id="edge17" class="edge">
<title>Node15&#45;&gt;Node18</title>
<path fill="none" stroke="midnightblue" d="M700.22,-168.43C743.48,-159.65 812.26,-145.43 871.5,-132 872.77,-131.71 874.06,-131.42 875.37,-131.11"/>
<polygon fill="midnightblue" stroke="midnightblue" points="876.51,-134.44 885.43,-128.73 874.9,-127.63 876.51,-134.44"/>
</g>
<!-- Node19 -->
<g id="node19" class="node">
<title>Node19</title>
<g id="a_node19"><a xlink:title=" ">
<polygon fill="none" stroke="#bfbfbf" points="537.5,-112.5 537.5,-131.5 629.5,-131.5 629.5,-112.5 537.5,-112.5"/>
<text text-anchor="middle" x="583.5" y="-119.5" font-family="Helvetica,sans-Serif" font-size="10.00">linux/perf_event.h</text>
</a>
</g>
</g>
<!-- Node15&#45;&gt;Node19 -->
<g id="edge18" class="edge">
<title>Node15&#45;&gt;Node19</title>
<path fill="none" stroke="midnightblue" d="M645.61,-168.32C634.35,-160.11 617.21,-147.6 603.79,-137.81"/>
<polygon fill="midnightblue" stroke="midnightblue" points="605.75,-134.9 595.61,-131.83 601.62,-140.56 605.75,-134.9"/>
</g>
<!-- Node20 -->
<g id="node20" class="node">
<title>Node20</title>
<g id="a_node20"><a xlink:title=" ">
<polygon fill="none" stroke="#bfbfbf" points="865.5,-56.5 865.5,-75.5 915.5,-75.5 915.5,-56.5 865.5,-56.5"/>
<text text-anchor="middle" x="890.5" y="-63.5" font-family="Helvetica,sans-Serif" font-size="10.00">unistd.h</text>
</a>
</g>
</g>
<!-- Node15&#45;&gt;Node20 -->
<g id="edge19" class="edge">
<title>Node15&#45;&gt;Node20</title>
<path fill="none" stroke="midnightblue" d="M706.43,-168.5C752.25,-159.88 816.83,-145.89 838.5,-132 857.07,-120.1 871.97,-99.3 880.99,-84.43"/>
<polygon fill="midnightblue" stroke="midnightblue" points="884.07,-86.08 886.04,-75.67 878.01,-82.58 884.07,-86.08"/>
</g>
<!-- Node21 -->
<g id="node21" class="node">
<title>Node21</title>
<g id="a_node21"><a xlink:href="file__descriptor_8hpp.html" target="_top" xlink:title=" ">
<polygon fill="none" stroke="black" points="401.5,-112.5 401.5,-131.5 519.5,-131.5 519.5,-112.5 401.5,-112.5"/>
<text text-anchor="middle" x="460.5" y="-119.5" font-family="Helvetica,sans-Serif" font-size="10.00">elphi/file_descriptor.hpp</text>
</a>
</g>
</g>
<!-- Node15&#45;&gt;Node21 -->
<g id="edge20" class="edge">
<title>Node15&#45;&gt;Node21</title>
<path fill="none" stroke="midnightblue" d="M626.28,-168.44C592.57,-159.2 538.7,-144.44 501.57,-134.26"/>
<polygon fill="midnightblue" stroke="midnightblue" points="502.14,-130.78 491.57,-131.52 500.29,-137.54 502.14,-130.78"/>
</g>
<!-- Node22 -->
<g id="node22" class="node">
<title>Node22</title>
<g id="a_node22"><a xlink:href="utils_8hpp.html" target="_top" xlink:title=" ">
<polygon fill="none" stroke="black" points="685.5,-112.5 685.5,-131.5 761.5,-131.5 761.5,-112.5 685.5,-112.5"/>
<text text-anchor="middle" x="723.5" y="-119.5" font-family="Helvetica,sans-Serif" font-size="10.00">elphi/utils.hpp</text>
</a>
</g>
</g>
<!-- Node15&#45;&gt;Node22 -->
<g id="edge22" class="edge">
<title>Node15&#45;&gt;Node22</title>
<path fill="none" stroke="midnightblue" d="M668.1,-168.32C677.96,-160.26 692.85,-148.08 704.72,-138.37"/>
<polygon fill="midnightblue" stroke="midnightblue" points="707.18,-140.88 712.7,-131.83 702.75,-135.46 707.18,-140.88"/>
</g>
<!-- Node21&#45;&gt;Node8 -->
<g id="edge21" class="edge">
<title>Node21&#45;&gt;Node8</title>
<path fill="none" stroke="midnightblue" d="M458.52,-112.08C456.93,-104.93 454.64,-94.64 452.65,-85.69"/>
<polygon fill="midnightblue" stroke="midnightblue" points="456.03,-84.75 450.44,-75.75 449.2,-86.27 456.03,-84.75"/>
</g>
<!-- Node22&#45;&gt;Node2 -->
<g id="edge23" class="edge">
<title>Node22&#45;&gt;Node2</title>
<path fill="none" stroke="midnightblue" d="M700.68,-112.44C676.67,-103.44 638.67,-89.19 611.63,-79.05"/>
<polygon fill="midnightblue" stroke="midnightblue" points="612.8,-75.75 602.21,-75.52 610.34,-82.3 612.8,-75.75"/>
</g>
<!-- Node22&#45;&gt;Node12 -->
<g id="edge28" class="edge">
<title>Node22&#45;&gt;Node12</title>
<path fill="none" stroke="midnightblue" d="M687.33,-112.45C652.8,-104.18 599.05,-91.07 543.79,-76.27"/>
<polygon fill="midnightblue" stroke="midnightblue" points="544.39,-72.81 533.82,-73.59 542.57,-79.57 544.39,-72.81"/>
</g>
<!-- Node22&#45;&gt;Node17 -->
<g id="edge27" class="edge">
<title>Node22&#45;&gt;Node17</title>
<path fill="none" stroke="midnightblue" d="M710.81,-112.32C698.6,-103.98 679.92,-91.21 665.5,-81.35"/>
<polygon fill="midnightblue" stroke="midnightblue" points="667.39,-78.41 657.16,-75.65 663.44,-84.19 667.39,-78.41"/>
</g>
<!-- Node22&#45;&gt;Node20 -->
<g id="edge29" class="edge">
<title>Node22&#45;&gt;Node20</title>
<path fill="none" stroke="midnightblue" d="M749.96,-112.44C778.51,-103.21 824.1,-88.47 855.57,-78.29"/>
<polygon fill="midnightblue" stroke="midnightblue" points="856.82,-81.57 865.26,-75.16 854.66,-74.91 856.82,-81.57"/>
</g>
<!-- Node23 -->
<g id="node23" class="node">
<title>Node23</title>
<g id="a_node23"><a xlink:title=" ">
<polygon fill="none" stroke="#bfbfbf" points="681.5,-56.5 681.5,-75.5 719.5,-75.5 719.5,-56.5 681.5,-56.5"/>
<text text-anchor="middle" x="700.5" y="-63.5" font-family="Helvetica,sans-Serif" font-size="10.00">array</text>
</a>
</g>
</g>
<!-- Node22&#45;&gt;Node23 -->
<g id="edge24" class="edge">
<title>Node22&#45;&gt;Node23</title>
<path fill="none" stroke="midnightblue" d="M719.7,-112.08C716.59,-104.77 712.08,-94.18 708.21,-85.1"/>
<polygon fill="midnightblue" stroke="midnightblue" points="711.37,-83.58 704.23,-75.75 704.93,-86.32 711.37,-83.58"/>
</g>
<!-- Node24 -->
<g id="node24" class="node">
<title>Node24</title>
<g id="a_node24"><a xlink:title=" ">
<polygon fill="none" stroke="#bfbfbf" points="737.5,-56.5 737.5,-75.5 783.5,-75.5 783.5,-56.5 737.5,-56.5"/>
<text text-anchor="middle" x="760.5" y="-63.5" font-family="Helvetica,sans-Serif" font-size="10.00">cstring</text>
</a>
</g>
</g>
<!-- Node22&#45;&gt;Node24 -->
<g id="edge25" class="edge">
<title>Node22&#45;&gt;Node24</title>
<path fill="none" stroke="midnightblue" d="M729.61,-112.08C734.78,-104.53 742.35,-93.49 748.69,-84.23"/>
<polygon fill="midnightblue" stroke="midnightblue" points="751.74,-85.98 754.5,-75.75 745.96,-82.02 751.74,-85.98"/>
</g>
<!-- Node25 -->
<g id="node25" class="node">
<title>Node25</title>
<g id="a_node25"><a xlink:title=" ">
<polygon fill="none" stroke="#bfbfbf" points="801.5,-56.5 801.5,-75.5 847.5,-75.5 847.5,-56.5 801.5,-56.5"/>
<text text-anchor="middle" x="824.5" y="-63.5" font-family="Helvetica,sans-Serif" font-size="10.00">ranges</text>
</a>
</g>
</g>
<!-- Node22&#45;&gt;Node25 -->
<g id="edge26" class="edge">
<title>Node22&#45;&gt;Node25</title>
<path fill="none" stroke="midnightblue" d="M739.73,-112.32C755.85,-103.7 780.8,-90.36 799.46,-80.39"/>
<polygon fill="midnightblue" stroke="midnightblue" points="801.14,-83.46 808.31,-75.65 797.84,-77.28 801.14,-83.46"/>
</g>
</g>
</svg>
