<?xml version="1.0" encoding="UTF-8" standalone="no"?>
<!DOCTYPE svg PUBLIC "-//W3C//DTD SVG 1.1//EN"
 "http://www.w3.org/Graphics/SVG/1.1/DTD/svg11.dtd">
<!-- Generated by graphviz version 2.47.1 (20210515.0534)
 -->
<!-- Title: elphi Pages: 1 -->
<svg width="238pt" height="148pt"
 viewBox="0.00 0.00 238.00 148.00" xmlns="http://www.w3.org/2000/svg" xmlns:xlink="http://www.w3.org/1999/xlink">
<g id="graph0" class="graph" transform="scale(1 1) rotate(0) translate(4 144)">
<title>elphi</title>
<g id="clust1" class="cluster">
<title>clusterdir_812392a79f9697c1c93a2c8857dce35c</title>
<g id="a_clust1"><a xlink:href="dir_812392a79f9697c1c93a2c8857dce35c.html" target="_top">
<polygon fill="#eeeeff" stroke="black" points="8,-8 8,-132 222,-132 222,-8 8,-8"/>
</a>
</g>
</g>
<!-- dir_812392a79f9697c1c93a2c8857dce35c -->
<g id="node1" class="node">
<title>dir_812392a79f9697c1c93a2c8857dce35c</title>
<text text-anchor="middle" x="187" y="-103.5" font-family="Helvetica,sans-Serif" font-size="10.00">elphi</text>
</g>
<!-- dir_0a99ce727943174e194d92de1d94584c -->
<g id="node2" class="node">
<title>dir_0a99ce727943174e194d92de1d94584c</title>
<g id="a_node2"><a xlink:href="dir_0a99ce727943174e194d92de1d94584c.html" target="_top" xlink:title="include">
<polygon fill="white" stroke="red" points="106,-52 52,-52 52,-16 106,-16 106,-52"/>
<text text-anchor="middle" x="79" y="-31.5" font-family="Helvetica,sans-Serif" font-size="10.00">include</text>
</a>
</g>
</g>
<!-- dir_a807ade202198c4686f896c984e6e320 -->
<g id="node3" class="node">
<title>dir_a807ade202198c4686f896c984e6e320</title>
<g id="a_node3"><a xlink:href="dir_a807ade202198c4686f896c984e6e320.html" target="_top" xlink:title="lib">
<polygon fill="white" stroke="black" points="142,-124 88,-124 88,-88 142,-88 142,-124"/>
<text text-anchor="middle" x="115" y="-103.5" font-family="Helvetica,sans-Serif" font-size="10.00">lib</text>
</a>
</g>
</g>
<!-- dir_a807ade202198c4686f896c984e6e320&#45;&gt;dir_0a99ce727943174e194d92de1d94584c -->
<g id="edge1" class="edge">
<title>dir_a807ade202198c4686f896c984e6e320&#45;&gt;dir_0a99ce727943174e194d92de1d94584c</title>
<path fill="none" stroke="black" d="M106.1,-87.7C102,-79.73 97.05,-70.1 92.51,-61.26"/>
<polygon fill="black" stroke="black" points="95.48,-59.4 87.8,-52.1 89.26,-62.6 95.48,-59.4"/>
<g id="a_edge1&#45;headlabel"><a xlink:href="dir_000003_000001.html" target="_top" xlink:title="8">
<text text-anchor="middle" x="99.65" y="-58.79" font-family="Helvetica,sans-Serif" font-size="10.00">8</text>
</a>
</g>
</g>
<!-- dir_0aebe75bc63edfbfc54835b492a46e31 -->
<g id="node4" class="node">
<title>dir_0aebe75bc63edfbfc54835b492a46e31</title>
<g id="a_node4"><a xlink:href="dir_0aebe75bc63edfbfc54835b492a46e31.html" target="_top" xlink:title="src">
<polygon fill="white" stroke="black" points="70,-124 16,-124 16,-88 70,-88 70,-124"/>
<text text-anchor="middle" x="43" y="-103.5" font-family="Helvetica,sans-Serif" font-size="10.00">src</text>
</a>
</g>
</g>
<!-- dir_0aebe75bc63edfbfc54835b492a46e31&#45;&gt;dir_0a99ce727943174e194d92de1d94584c -->
<g id="edge2" class="edge">
<title>dir_0aebe75bc63edfbfc54835b492a46e31&#45;&gt;dir_0a99ce727943174e194d92de1d94584c</title>
<path fill="none" stroke="black" d="M51.9,-87.7C56,-79.73 60.95,-70.1 65.49,-61.26"/>
<polygon fill="black" stroke="black" points="68.74,-62.6 70.2,-52.1 62.52,-59.4 68.74,-62.6"/>
<g id="a_edge2&#45;headlabel"><a xlink:href="dir_000004_000001.html" target="_top" xlink:title="1">
<text text-anchor="middle" x="69.62" y="-64.59" font-family="Helvetica,sans-Serif" font-size="10.00">1</text>
</a>
</g>
</g>
</g>
</svg>
