<?xml version="1.0" encoding="UTF-8" standalone="no"?>
<!DOCTYPE svg PUBLIC "-//W3C//DTD SVG 1.1//EN"
 "http://www.w3.org/Graphics/SVG/1.1/DTD/svg11.dtd">
<!-- Generated by graphviz version 2.47.1 (20210515.0534)
 -->
<!-- Title: elphi/examples Pages: 1 -->
<svg width="98pt" height="167pt"
 viewBox="0.00 0.00 98.00 167.00" xmlns="http://www.w3.org/2000/svg" xmlns:xlink="http://www.w3.org/1999/xlink">
<g id="graph0" class="graph" transform="scale(1 1) rotate(0) translate(4 163)">
<title>elphi/examples</title>
<g id="clust1" class="cluster">
<title>clusterdir_812392a79f9697c1c93a2c8857dce35c</title>
<g id="a_clust1"><a xlink:href="dir_812392a79f9697c1c93a2c8857dce35c.html" target="_top" xlink:title="elphi">
<polygon fill="#ddddee" stroke="black" points="8,-8 8,-151 82,-151 82,-8 8,-8"/>
<text text-anchor="middle" x="45" y="-139" font-family="Helvetica,sans-Serif" font-size="10.00">elphi</text>
</a>
</g>
</g>
<!-- dir_0a99ce727943174e194d92de1d94584c -->
<g id="node1" class="node">
<title>dir_0a99ce727943174e194d92de1d94584c</title>
<g id="a_node1"><a xlink:href="dir_0a99ce727943174e194d92de1d94584c.html" target="_top" xlink:title="include">
<polygon fill="none" stroke="red" points="72,-52 18,-52 18,-16 72,-16 72,-52"/>
<text text-anchor="middle" x="45" y="-31.5" font-family="Helvetica,sans-Serif" font-size="10.00">include</text>
</a>
</g>
</g>
<!-- dir_ec55987abaed6986ec1c3815cb9a6cf7 -->
<g id="node2" class="node">
<title>dir_ec55987abaed6986ec1c3815cb9a6cf7</title>
<g id="a_node2"><a xlink:href="dir_ec55987abaed6986ec1c3815cb9a6cf7.html" target="_top" xlink:title="examples">
<polygon fill="#eeeeff" stroke="black" points="74,-124 16,-124 16,-88 74,-88 74,-124"/>
<text text-anchor="middle" x="45" y="-103.5" font-family="Helvetica,sans-Serif" font-size="10.00">examples</text>
</a>
</g>
</g>
<!-- dir_ec55987abaed6986ec1c3815cb9a6cf7&#45;&gt;dir_0a99ce727943174e194d92de1d94584c -->
<g id="edge1" class="edge">
<title>dir_ec55987abaed6986ec1c3815cb9a6cf7&#45;&gt;dir_0a99ce727943174e194d92de1d94584c</title>
<path fill="none" stroke="black" d="M45,-87.7C45,-79.98 45,-70.71 45,-62.11"/>
<polygon fill="black" stroke="black" points="48.5,-62.1 45,-52.1 41.5,-62.1 48.5,-62.1"/>
<g id="a_edge1&#45;headlabel"><a xlink:href="dir_000001_000002.html" target="_top" xlink:title="1">
<text text-anchor="middle" x="51.34" y="-63.2" font-family="Helvetica,sans-Serif" font-size="10.00">1</text>
</a>
</g>
</g>
</g>
</svg>
