<?xml version="1.0" encoding="UTF-8" standalone="no"?>
<!DOCTYPE svg PUBLIC "-//W3C//DTD SVG 1.1//EN"
 "http://www.w3.org/Graphics/SVG/1.1/DTD/svg11.dtd">
<!-- Generated by graphviz version 2.47.1 (20210515.0534)
 -->
<!-- Title: elphi/include/elphi/exception.hpp Pages: 1 -->
<svg width="372pt" height="240pt"
 viewBox="0.00 0.00 372.00 240.00" xmlns="http://www.w3.org/2000/svg" xmlns:xlink="http://www.w3.org/1999/xlink">
<g id="graph0" class="graph" transform="scale(1 1) rotate(0) translate(4 236)">
<title>elphi/include/elphi/exception.hpp</title>
<!-- Node1 -->
<g id="node1" class="node">
<title>Node1</title>
<g id="a_node1"><a xlink:title=" ">
<polygon fill="#bfbfbf" stroke="black" points="184,-201.5 184,-231.5 278,-231.5 278,-201.5 184,-201.5"/>
<text text-anchor="start" x="192" y="-219.5" font-family="Helvetica,sans-Serif" font-size="10.00">elphi/include/elphi</text>
<text text-anchor="middle" x="231" y="-208.5" font-family="Helvetica,sans-Serif" font-size="10.00">/exception.hpp</text>
</a>
</g>
</g>
<!-- Node2 -->
<g id="node2" class="node">
<title>Node2</title>
<g id="a_node2"><a xlink:href="cpu__sampler_8hpp.html" target="_top" xlink:title=" ">
<polygon fill="none" stroke="black" points="120,-134.5 120,-164.5 214,-164.5 214,-134.5 120,-134.5"/>
<text text-anchor="start" x="128" y="-152.5" font-family="Helvetica,sans-Serif" font-size="10.00">elphi/include/elphi</text>
<text text-anchor="middle" x="167" y="-141.5" font-family="Helvetica,sans-Serif" font-size="10.00">/cpu_sampler.hpp</text>
</a>
</g>
</g>
<!-- Node1&#45;&gt;Node2 -->
<g id="edge1" class="edge">
<title>Node1&#45;&gt;Node2</title>
<path fill="none" stroke="midnightblue" d="M209.85,-194.02C200.32,-184.34 189.33,-173.17 180.86,-164.58"/>
<polygon fill="midnightblue" stroke="midnightblue" points="207.6,-196.73 217.11,-201.4 212.59,-191.81 207.6,-196.73"/>
</g>
<!-- Node7 -->
<g id="node7" class="node">
<title>Node7</title>
<g id="a_node7"><a xlink:href="perf__events_8cpp.html" target="_top" xlink:title=" ">
<polygon fill="none" stroke="black" points="232.5,-140 232.5,-159 357.5,-159 357.5,-140 232.5,-140"/>
<text text-anchor="middle" x="295" y="-147" font-family="Helvetica,sans-Serif" font-size="10.00">elphi/src/perf_events.cpp</text>
</a>
</g>
</g>
<!-- Node1&#45;&gt;Node7 -->
<g id="edge6" class="edge">
<title>Node1&#45;&gt;Node7</title>
<path fill="none" stroke="midnightblue" d="M252.17,-194C263.85,-182.13 277.72,-168.05 286.44,-159.19"/>
<polygon fill="midnightblue" stroke="midnightblue" points="249.41,-191.81 244.89,-201.4 254.4,-196.73 249.41,-191.81"/>
</g>
<!-- Node3 -->
<g id="node3" class="node">
<title>Node3</title>
<g id="a_node3"><a xlink:href="cpu__sampling_8cpp.html" target="_top" xlink:title=" ">
<polygon fill="none" stroke="black" points="0,-67.5 0,-97.5 100,-97.5 100,-67.5 0,-67.5"/>
<text text-anchor="start" x="8" y="-85.5" font-family="Helvetica,sans-Serif" font-size="10.00">elphi/examples/cpu</text>
<text text-anchor="middle" x="50" y="-74.5" font-family="Helvetica,sans-Serif" font-size="10.00">_sampling.cpp</text>
</a>
</g>
</g>
<!-- Node2&#45;&gt;Node3 -->
<g id="edge2" class="edge">
<title>Node2&#45;&gt;Node3</title>
<path fill="none" stroke="midnightblue" d="M132.68,-129.44C114.33,-119.24 92.12,-106.9 75.34,-97.58"/>
<polygon fill="midnightblue" stroke="midnightblue" points="131.17,-132.6 141.61,-134.4 134.57,-126.48 131.17,-132.6"/>
</g>
<!-- Node4 -->
<g id="node4" class="node">
<title>Node4</title>
<g id="a_node4"><a xlink:href="timeline__view_8hpp.html" target="_top" xlink:title=" ">
<polygon fill="none" stroke="black" points="118.5,-67.5 118.5,-97.5 215.5,-97.5 215.5,-67.5 118.5,-67.5"/>
<text text-anchor="start" x="126.5" y="-85.5" font-family="Helvetica,sans-Serif" font-size="10.00">elphi/include/elphi</text>
<text text-anchor="middle" x="167" y="-74.5" font-family="Helvetica,sans-Serif" font-size="10.00">/timeline_view.hpp</text>
</a>
</g>
</g>
<!-- Node2&#45;&gt;Node4 -->
<g id="edge3" class="edge">
<title>Node2&#45;&gt;Node4</title>
<path fill="none" stroke="midnightblue" d="M167,-124.11C167,-115.15 167,-105.32 167,-97.58"/>
<polygon fill="midnightblue" stroke="midnightblue" points="163.5,-124.4 167,-134.4 170.5,-124.4 163.5,-124.4"/>
</g>
<!-- Node6 -->
<g id="node6" class="node">
<title>Node6</title>
<g id="a_node6"><a xlink:href="cpu__sampler_8cpp.html" target="_top" xlink:title=" ">
<polygon fill="none" stroke="black" points="234,-73 234,-92 364,-92 364,-73 234,-73"/>
<text text-anchor="middle" x="299" y="-80" font-family="Helvetica,sans-Serif" font-size="10.00">elphi/src/cpu_sampler.cpp</text>
</a>
</g>
</g>
<!-- Node2&#45;&gt;Node6 -->
<g id="edge5" class="edge">
<title>Node2&#45;&gt;Node6</title>
<path fill="none" stroke="midnightblue" d="M204.64,-129.97C229.99,-117.48 262.25,-101.6 281.72,-92.01"/>
<polygon fill="midnightblue" stroke="midnightblue" points="203.07,-126.84 195.64,-134.4 206.16,-133.12 203.07,-126.84"/>
</g>
<!-- Node5 -->
<g id="node5" class="node">
<title>Node5</title>
<g id="a_node5"><a xlink:href="timeline__view_8cpp.html" target="_top" xlink:title=" ">
<polygon fill="none" stroke="black" points="122,-0.5 122,-30.5 212,-30.5 212,-0.5 122,-0.5"/>
<text text-anchor="start" x="130" y="-18.5" font-family="Helvetica,sans-Serif" font-size="10.00">elphi/src/timeline</text>
<text text-anchor="middle" x="167" y="-7.5" font-family="Helvetica,sans-Serif" font-size="10.00">_view.cpp</text>
</a>
</g>
</g>
<!-- Node4&#45;&gt;Node5 -->
<g id="edge4" class="edge">
<title>Node4&#45;&gt;Node5</title>
<path fill="none" stroke="midnightblue" d="M167,-57.11C167,-48.15 167,-38.32 167,-30.58"/>
<polygon fill="midnightblue" stroke="midnightblue" points="163.5,-57.4 167,-67.4 170.5,-57.4 163.5,-57.4"/>
</g>
</g>
</svg>
