<?xml version="1.0" encoding="UTF-8" standalone="no"?>
<!DOCTYPE svg PUBLIC "-//W3C//DTD SVG 1.1//EN"
 "http://www.w3.org/Graphics/SVG/1.1/DTD/svg11.dtd">
<!-- Generated by graphviz version 2.47.1 (20210515.0534)
 -->
<!-- Title: elphi/include/elphi/exception.hpp Pages: 1 -->
<svg width="232pt" height="240pt"
 viewBox="0.00 0.00 232.00 240.00" xmlns="http://www.w3.org/2000/svg" xmlns:xlink="http://www.w3.org/1999/xlink">
<g id="graph0" class="graph" transform="scale(1 1) rotate(0) translate(4 236)">
<title>elphi/include/elphi/exception.hpp</title>
<!-- Node1 -->
<g id="node1" class="node">
<title>Node1</title>
<g id="a_node1"><a xlink:title=" ">
<polygon fill="#bfbfbf" stroke="black" points="61.5,-201.5 61.5,-231.5 155.5,-231.5 155.5,-201.5 61.5,-201.5"/>
<text text-anchor="start" x="69.5" y="-219.5" font-family="Helvetica,sans-Serif" font-size="10.00">elphi/include/elphi</text>
<text text-anchor="middle" x="108.5" y="-208.5" font-family="Helvetica,sans-Serif" font-size="10.00">/exception.hpp</text>
</a>
</g>
</g>
<!-- Node2 -->
<g id="node2" class="node">
<title>Node2</title>
<g id="a_node2"><a xlink:href="sampler_8hpp.html" target="_top" xlink:title=" ">
<polygon fill="none" stroke="black" points="61.5,-134.5 61.5,-164.5 155.5,-164.5 155.5,-134.5 61.5,-134.5"/>
<text text-anchor="start" x="69.5" y="-152.5" font-family="Helvetica,sans-Serif" font-size="10.00">elphi/include/elphi</text>
<text text-anchor="middle" x="108.5" y="-141.5" font-family="Helvetica,sans-Serif" font-size="10.00">/sampler.hpp</text>
</a>
</g>
</g>
<!-- Node1&#45;&gt;Node2 -->
<g id="edge1" class="edge">
<title>Node1&#45;&gt;Node2</title>
<path fill="none" stroke="midnightblue" d="M108.5,-191.11C108.5,-182.15 108.5,-172.32 108.5,-164.58"/>
<polygon fill="midnightblue" stroke="midnightblue" points="105,-191.4 108.5,-201.4 112,-191.4 105,-191.4"/>
</g>
<!-- Node3 -->
<g id="node3" class="node">
<title>Node3</title>
<g id="a_node3"><a xlink:href="timeline__view_8hpp.html" target="_top" xlink:title=" ">
<polygon fill="none" stroke="black" points="0,-67.5 0,-97.5 97,-97.5 97,-67.5 0,-67.5"/>
<text text-anchor="start" x="8" y="-85.5" font-family="Helvetica,sans-Serif" font-size="10.00">elphi/include/elphi</text>
<text text-anchor="middle" x="48.5" y="-74.5" font-family="Helvetica,sans-Serif" font-size="10.00">/timeline_view.hpp</text>
</a>
</g>
</g>
<!-- Node2&#45;&gt;Node3 -->
<g id="edge2" class="edge">
<title>Node2&#45;&gt;Node3</title>
<path fill="none" stroke="midnightblue" d="M88.68,-127.02C79.74,-117.34 69.43,-106.17 61.49,-97.58"/>
<polygon fill="midnightblue" stroke="midnightblue" points="86.13,-129.42 95.48,-134.4 91.27,-124.67 86.13,-129.42"/>
</g>
<!-- Node5 -->
<g id="node5" class="node">
<title>Node5</title>
<g id="a_node5"><a xlink:href="sampler_8cpp.html" target="_top" xlink:title=" ">
<polygon fill="none" stroke="black" points="115,-73 115,-92 224,-92 224,-73 115,-73"/>
<text text-anchor="middle" x="169.5" y="-80" font-family="Helvetica,sans-Serif" font-size="10.00">elphi/src/sampler.cpp</text>
</a>
</g>
</g>
<!-- Node2&#45;&gt;Node5 -->
<g id="edge4" class="edge">
<title>Node2&#45;&gt;Node5</title>
<path fill="none" stroke="midnightblue" d="M128.68,-127C139.81,-115.13 153.03,-101.05 161.34,-92.19"/>
<polygon fill="midnightblue" stroke="midnightblue" points="126.03,-124.71 121.74,-134.4 131.13,-129.5 126.03,-124.71"/>
</g>
<!-- Node4 -->
<g id="node4" class="node">
<title>Node4</title>
<g id="a_node4"><a xlink:href="timeline__view_8cpp.html" target="_top" xlink:title=" ">
<polygon fill="none" stroke="black" points="3.5,-0.5 3.5,-30.5 93.5,-30.5 93.5,-0.5 3.5,-0.5"/>
<text text-anchor="start" x="11.5" y="-18.5" font-family="Helvetica,sans-Serif" font-size="10.00">elphi/src/timeline</text>
<text text-anchor="middle" x="48.5" y="-7.5" font-family="Helvetica,sans-Serif" font-size="10.00">_view.cpp</text>
</a>
</g>
</g>
<!-- Node3&#45;&gt;Node4 -->
<g id="edge3" class="edge">
<title>Node3&#45;&gt;Node4</title>
<path fill="none" stroke="midnightblue" d="M48.5,-57.11C48.5,-48.15 48.5,-38.32 48.5,-30.58"/>
<polygon fill="midnightblue" stroke="midnightblue" points="45,-57.4 48.5,-67.4 52,-57.4 45,-57.4"/>
</g>
</g>
</svg>
