<?xml version="1.0" encoding="UTF-8" standalone="no"?>
<!DOCTYPE svg PUBLIC "-//W3C//DTD SVG 1.1//EN"
 "http://www.w3.org/Graphics/SVG/1.1/DTD/svg11.dtd">
<!-- Generated by graphviz version 2.47.1 (20210515.0534)
 -->
<!-- Title: elphi/include/elphi/file_descriptor.hpp Pages: 1 -->
<svg width="385pt" height="240pt"
 viewBox="0.00 0.00 385.00 240.00" xmlns="http://www.w3.org/2000/svg" xmlns:xlink="http://www.w3.org/1999/xlink">
<g id="graph0" class="graph" transform="scale(1 1) rotate(0) translate(4 236)">
<title>elphi/include/elphi/file_descriptor.hpp</title>
<!-- Node1 -->
<g id="node1" class="node">
<title>Node1</title>
<g id="a_node1"><a xlink:title=" ">
<polygon fill="#bfbfbf" stroke="black" points="129,-201.5 129,-231.5 227,-231.5 227,-201.5 129,-201.5"/>
<text text-anchor="start" x="137" y="-219.5" font-family="Helvetica,sans-Serif" font-size="10.00">elphi/include/elphi</text>
<text text-anchor="middle" x="178" y="-208.5" font-family="Helvetica,sans-Serif" font-size="10.00">/file_descriptor.hpp</text>
</a>
</g>
</g>
<!-- Node2 -->
<g id="node2" class="node">
<title>Node2</title>
<g id="a_node2"><a xlink:href="perf__cpu__sampler_8hpp.html" target="_top" xlink:title=" ">
<polygon fill="none" stroke="black" points="37.5,-67.5 37.5,-97.5 152.5,-97.5 152.5,-67.5 37.5,-67.5"/>
<text text-anchor="start" x="45.5" y="-85.5" font-family="Helvetica,sans-Serif" font-size="10.00">elphi/include/elphi</text>
<text text-anchor="middle" x="95" y="-74.5" font-family="Helvetica,sans-Serif" font-size="10.00">/perf_cpu_sampler.hpp</text>
</a>
</g>
</g>
<!-- Node1&#45;&gt;Node2 -->
<g id="edge1" class="edge">
<title>Node1&#45;&gt;Node2</title>
<path fill="none" stroke="midnightblue" d="M149.61,-194.88C139.74,-186.54 129.33,-176.22 122,-165 108.15,-143.78 100.79,-114.81 97.4,-97.73"/>
<polygon fill="midnightblue" stroke="midnightblue" points="147.71,-197.85 157.69,-201.41 152.11,-192.4 147.71,-197.85"/>
</g>
<!-- Node5 -->
<g id="node5" class="node">
<title>Node5</title>
<g id="a_node5"><a xlink:href="perf__events_8hpp.html" target="_top" xlink:title=" ">
<polygon fill="none" stroke="black" points="131,-134.5 131,-164.5 225,-164.5 225,-134.5 131,-134.5"/>
<text text-anchor="start" x="139" y="-152.5" font-family="Helvetica,sans-Serif" font-size="10.00">elphi/include/elphi</text>
<text text-anchor="middle" x="178" y="-141.5" font-family="Helvetica,sans-Serif" font-size="10.00">/perf_events.hpp</text>
</a>
</g>
</g>
<!-- Node1&#45;&gt;Node5 -->
<g id="edge4" class="edge">
<title>Node1&#45;&gt;Node5</title>
<path fill="none" stroke="midnightblue" d="M178,-191.11C178,-182.15 178,-172.32 178,-164.58"/>
<polygon fill="midnightblue" stroke="midnightblue" points="174.5,-191.4 178,-201.4 181.5,-191.4 174.5,-191.4"/>
</g>
<!-- Node7 -->
<g id="node7" class="node">
<title>Node7</title>
<g id="a_node7"><a xlink:href="file__descriptor_8cpp.html" target="_top" xlink:title=" ">
<polygon fill="none" stroke="black" points="243,-140 243,-159 377,-159 377,-140 243,-140"/>
<text text-anchor="middle" x="310" y="-147" font-family="Helvetica,sans-Serif" font-size="10.00">elphi/src/file_descriptor.cpp</text>
</a>
</g>
</g>
<!-- Node1&#45;&gt;Node7 -->
<g id="edge8" class="edge">
<title>Node1&#45;&gt;Node7</title>
<path fill="none" stroke="midnightblue" d="M215.64,-196.97C240.99,-184.48 273.25,-168.6 292.72,-159.01"/>
<polygon fill="midnightblue" stroke="midnightblue" points="214.07,-193.84 206.64,-201.4 217.16,-200.12 214.07,-193.84"/>
</g>
<!-- Node3 -->
<g id="node3" class="node">
<title>Node3</title>
<g id="a_node3"><a xlink:href="system__sampling_8cpp.html" target="_top" xlink:title=" ">
<polygon fill="none" stroke="black" points="0,-0.5 0,-30.5 116,-30.5 116,-0.5 0,-0.5"/>
<text text-anchor="start" x="8" y="-18.5" font-family="Helvetica,sans-Serif" font-size="10.00">elphi/examples/system</text>
<text text-anchor="middle" x="58" y="-7.5" font-family="Helvetica,sans-Serif" font-size="10.00">_sampling.cpp</text>
</a>
</g>
</g>
<!-- Node2&#45;&gt;Node3 -->
<g id="edge2" class="edge">
<title>Node2&#45;&gt;Node3</title>
<path fill="none" stroke="midnightblue" d="M81.95,-58.58C76.64,-49.24 70.66,-38.75 66.01,-30.58"/>
<polygon fill="midnightblue" stroke="midnightblue" points="78.98,-60.44 86.97,-67.4 85.07,-56.97 78.98,-60.44"/>
</g>
<!-- Node4 -->
<g id="node4" class="node">
<title>Node4</title>
<g id="a_node4"><a xlink:href="perf__cpu__sampler_8cpp.html" target="_top" xlink:title=" ">
<polygon fill="none" stroke="black" points="134,-0.5 134,-30.5 228,-30.5 228,-0.5 134,-0.5"/>
<text text-anchor="start" x="142" y="-18.5" font-family="Helvetica,sans-Serif" font-size="10.00">elphi/src/perf_cpu</text>
<text text-anchor="middle" x="181" y="-7.5" font-family="Helvetica,sans-Serif" font-size="10.00">_sampler.cpp</text>
</a>
</g>
</g>
<!-- Node2&#45;&gt;Node4 -->
<g id="edge3" class="edge">
<title>Node2&#45;&gt;Node4</title>
<path fill="none" stroke="midnightblue" d="M121.9,-61.17C135.05,-51.23 150.55,-39.51 162.38,-30.58"/>
<polygon fill="midnightblue" stroke="midnightblue" points="119.53,-58.57 113.66,-67.4 123.75,-64.16 119.53,-58.57"/>
</g>
<!-- Node5&#45;&gt;Node2 -->
<g id="edge5" class="edge">
<title>Node5&#45;&gt;Node2</title>
<path fill="none" stroke="midnightblue" d="M152.04,-128.17C139.35,-118.23 124.39,-106.51 112.97,-97.58"/>
<polygon fill="midnightblue" stroke="midnightblue" points="149.96,-130.99 159.99,-134.4 154.28,-125.47 149.96,-130.99"/>
</g>
<!-- Node5&#45;&gt;Node4 -->
<g id="edge6" class="edge">
<title>Node5&#45;&gt;Node4</title>
<path fill="none" stroke="midnightblue" d="M178.56,-124.02C179.18,-96.51 180.18,-52.79 180.68,-30.52"/>
<polygon fill="midnightblue" stroke="midnightblue" points="175.05,-124.3 178.32,-134.37 182.05,-124.46 175.05,-124.3"/>
</g>
<!-- Node6 -->
<g id="node6" class="node">
<title>Node6</title>
<g id="a_node6"><a xlink:href="perf__events_8cpp.html" target="_top" xlink:title=" ">
<polygon fill="none" stroke="black" points="209.5,-73 209.5,-92 334.5,-92 334.5,-73 209.5,-73"/>
<text text-anchor="middle" x="272" y="-80" font-family="Helvetica,sans-Serif" font-size="10.00">elphi/src/perf_events.cpp</text>
</a>
</g>
</g>
<!-- Node5&#45;&gt;Node6 -->
<g id="edge7" class="edge">
<title>Node5&#45;&gt;Node6</title>
<path fill="none" stroke="midnightblue" d="M206.72,-128.64C224.46,-116.37 246.31,-101.26 259.7,-92.01"/>
<polygon fill="midnightblue" stroke="midnightblue" points="204.63,-125.83 198.4,-134.4 208.61,-131.59 204.63,-125.83"/>
</g>
</g>
</svg>
