<?xml version="1.0" encoding="UTF-8" standalone="no"?>
<!DOCTYPE svg PUBLIC "-//W3C//DTD SVG 1.1//EN"
 "http://www.w3.org/Graphics/SVG/1.1/DTD/svg11.dtd">
<!-- Generated by graphviz version 2.47.1 (20210515.0534)
 -->
<!-- Title: elphi/include/elphi/file_descriptor.hpp Pages: 1 -->
<svg width="345pt" height="162pt"
 viewBox="0.00 0.00 345.00 162.00" xmlns="http://www.w3.org/2000/svg" xmlns:xlink="http://www.w3.org/1999/xlink">
<g id="graph0" class="graph" transform="scale(1 1) rotate(0) translate(4 158)">
<title>elphi/include/elphi/file_descriptor.hpp</title>
<!-- Node1 -->
<g id="node1" class="node">
<title>Node1</title>
<g id="a_node1"><a xlink:title=" ">
<polygon fill="#bfbfbf" stroke="black" points="155,-123.5 155,-153.5 253,-153.5 253,-123.5 155,-123.5"/>
<text text-anchor="start" x="163" y="-141.5" font-family="Helvetica,sans-Serif" font-size="10.00">elphi/include/elphi</text>
<text text-anchor="middle" x="204" y="-130.5" font-family="Helvetica,sans-Serif" font-size="10.00">/file_descriptor.hpp</text>
</a>
</g>
</g>
<!-- Node2 -->
<g id="node2" class="node">
<title>Node2</title>
<g id="a_node2"><a xlink:href="perf__events_8hpp.html" target="_top" xlink:title=" ">
<polygon fill="none" stroke="black" points="91,-56.5 91,-86.5 185,-86.5 185,-56.5 91,-56.5"/>
<text text-anchor="start" x="99" y="-74.5" font-family="Helvetica,sans-Serif" font-size="10.00">elphi/include/elphi</text>
<text text-anchor="middle" x="138" y="-63.5" font-family="Helvetica,sans-Serif" font-size="10.00">/perf_events.hpp</text>
</a>
</g>
</g>
<!-- Node1&#45;&gt;Node2 -->
<g id="edge1" class="edge">
<title>Node1&#45;&gt;Node2</title>
<path fill="none" stroke="midnightblue" d="M182.49,-116.31C172.59,-106.56 161.11,-95.26 152.29,-86.58"/>
<polygon fill="midnightblue" stroke="midnightblue" points="180.1,-118.87 189.68,-123.4 185.01,-113.89 180.1,-118.87"/>
</g>
<!-- Node5 -->
<g id="node5" class="node">
<title>Node5</title>
<g id="a_node5"><a xlink:href="file__descriptor_8cpp.html" target="_top" xlink:title=" ">
<polygon fill="none" stroke="black" points="203,-62 203,-81 337,-81 337,-62 203,-62"/>
<text text-anchor="middle" x="270" y="-69" font-family="Helvetica,sans-Serif" font-size="10.00">elphi/src/file_descriptor.cpp</text>
</a>
</g>
</g>
<!-- Node1&#45;&gt;Node5 -->
<g id="edge4" class="edge">
<title>Node1&#45;&gt;Node5</title>
<path fill="none" stroke="midnightblue" d="M225.49,-116.34C237.61,-104.4 252.09,-90.14 261.17,-81.19"/>
<polygon fill="midnightblue" stroke="midnightblue" points="222.99,-113.89 218.32,-123.4 227.9,-118.87 222.99,-113.89"/>
</g>
<!-- Node3 -->
<g id="node3" class="node">
<title>Node3</title>
<g id="a_node3"><a xlink:href="cpu__sampler_8cpp.html" target="_top" xlink:title=" ">
<polygon fill="none" stroke="black" points="0,-0.5 0,-19.5 130,-19.5 130,-0.5 0,-0.5"/>
<text text-anchor="middle" x="65" y="-7.5" font-family="Helvetica,sans-Serif" font-size="10.00">elphi/src/cpu_sampler.cpp</text>
</a>
</g>
</g>
<!-- Node2&#45;&gt;Node3 -->
<g id="edge2" class="edge">
<title>Node2&#45;&gt;Node3</title>
<path fill="none" stroke="midnightblue" d="M112.72,-49.89C100.02,-39.54 85.31,-27.56 75.62,-19.66"/>
<polygon fill="midnightblue" stroke="midnightblue" points="110.74,-52.79 120.7,-56.4 115.16,-47.37 110.74,-52.79"/>
</g>
<!-- Node4 -->
<g id="node4" class="node">
<title>Node4</title>
<g id="a_node4"><a xlink:href="perf__events_8cpp.html" target="_top" xlink:title=" ">
<polygon fill="none" stroke="black" points="148.5,-0.5 148.5,-19.5 273.5,-19.5 273.5,-0.5 148.5,-0.5"/>
<text text-anchor="middle" x="211" y="-7.5" font-family="Helvetica,sans-Serif" font-size="10.00">elphi/src/perf_events.cpp</text>
</a>
</g>
</g>
<!-- Node2&#45;&gt;Node4 -->
<g id="edge3" class="edge">
<title>Node2&#45;&gt;Node4</title>
<path fill="none" stroke="midnightblue" d="M163.28,-49.89C175.98,-39.54 190.69,-27.56 200.38,-19.66"/>
<polygon fill="midnightblue" stroke="midnightblue" points="160.84,-47.37 155.3,-56.4 165.26,-52.79 160.84,-47.37"/>
</g>
</g>
</svg>
