<?xml version="1.0" encoding="UTF-8" standalone="no"?>
<!DOCTYPE svg PUBLIC "-//W3C//DTD SVG 1.1//EN"
 "http://www.w3.org/Graphics/SVG/1.1/DTD/svg11.dtd">
<!-- Generated by graphviz version 2.47.1 (20210515.0534)
 -->
<!-- Title: elphi/include/elphi/file_descriptor.hpp Pages: 1 -->
<svg width="337pt" height="173pt"
 viewBox="0.00 0.00 337.00 173.00" xmlns="http://www.w3.org/2000/svg" xmlns:xlink="http://www.w3.org/1999/xlink">
<g id="graph0" class="graph" transform="scale(1 1) rotate(0) translate(4 169)">
<title>elphi/include/elphi/file_descriptor.hpp</title>
<!-- Node1 -->
<g id="node1" class="node">
<title>Node1</title>
<g id="a_node1"><a xlink:title=" ">
<polygon fill="#bfbfbf" stroke="black" points="141,-134.5 141,-164.5 239,-164.5 239,-134.5 141,-134.5"/>
<text text-anchor="start" x="149" y="-152.5" font-family="Helvetica,sans-Serif" font-size="10.00">elphi/include/elphi</text>
<text text-anchor="middle" x="190" y="-141.5" font-family="Helvetica,sans-Serif" font-size="10.00">/file_descriptor.hpp</text>
</a>
</g>
</g>
<!-- Node2 -->
<g id="node2" class="node">
<title>Node2</title>
<g id="a_node2"><a xlink:href="perf__cpu__sampler_8hpp.html" target="_top" xlink:title=" ">
<polygon fill="none" stroke="black" points="61.5,-67.5 61.5,-97.5 176.5,-97.5 176.5,-67.5 61.5,-67.5"/>
<text text-anchor="start" x="69.5" y="-85.5" font-family="Helvetica,sans-Serif" font-size="10.00">elphi/include/elphi</text>
<text text-anchor="middle" x="119" y="-74.5" font-family="Helvetica,sans-Serif" font-size="10.00">/perf_cpu_sampler.hpp</text>
</a>
</g>
</g>
<!-- Node1&#45;&gt;Node2 -->
<g id="edge1" class="edge">
<title>Node1&#45;&gt;Node2</title>
<path fill="none" stroke="midnightblue" d="M167.17,-127.6C156.45,-117.78 143.95,-106.34 134.38,-97.58"/>
<polygon fill="midnightblue" stroke="midnightblue" points="164.85,-130.22 174.59,-134.4 169.58,-125.06 164.85,-130.22"/>
</g>
<!-- Node5 -->
<g id="node5" class="node">
<title>Node5</title>
<g id="a_node5"><a xlink:href="file__descriptor_8cpp.html" target="_top" xlink:title=" ">
<polygon fill="none" stroke="black" points="195,-73 195,-92 329,-92 329,-73 195,-73"/>
<text text-anchor="middle" x="262" y="-80" font-family="Helvetica,sans-Serif" font-size="10.00">elphi/src/file_descriptor.cpp</text>
</a>
</g>
</g>
<!-- Node1&#45;&gt;Node5 -->
<g id="edge4" class="edge">
<title>Node1&#45;&gt;Node5</title>
<path fill="none" stroke="midnightblue" d="M213.07,-127.67C226.36,-115.67 242.37,-101.22 252.37,-92.19"/>
<polygon fill="midnightblue" stroke="midnightblue" points="210.7,-125.1 205.62,-134.4 215.39,-130.29 210.7,-125.1"/>
</g>
<!-- Node3 -->
<g id="node3" class="node">
<title>Node3</title>
<g id="a_node3"><a xlink:href="system__sampling_8cpp.html" target="_top" xlink:title=" ">
<polygon fill="none" stroke="black" points="0,-0.5 0,-30.5 116,-30.5 116,-0.5 0,-0.5"/>
<text text-anchor="start" x="8" y="-18.5" font-family="Helvetica,sans-Serif" font-size="10.00">elphi/examples/system</text>
<text text-anchor="middle" x="58" y="-7.5" font-family="Helvetica,sans-Serif" font-size="10.00">_sampling.cpp</text>
</a>
</g>
</g>
<!-- Node2&#45;&gt;Node3 -->
<g id="edge2" class="edge">
<title>Node2&#45;&gt;Node3</title>
<path fill="none" stroke="midnightblue" d="M98.85,-60.02C89.76,-50.34 79.28,-39.17 71.21,-30.58"/>
<polygon fill="midnightblue" stroke="midnightblue" points="96.37,-62.5 105.76,-67.4 101.47,-57.71 96.37,-62.5"/>
</g>
<!-- Node4 -->
<g id="node4" class="node">
<title>Node4</title>
<g id="a_node4"><a xlink:href="perf__cpu__sampler_8cpp.html" target="_top" xlink:title=" ">
<polygon fill="none" stroke="black" points="134,-0.5 134,-30.5 228,-30.5 228,-0.5 134,-0.5"/>
<text text-anchor="start" x="142" y="-18.5" font-family="Helvetica,sans-Serif" font-size="10.00">elphi/src/perf_cpu</text>
<text text-anchor="middle" x="181" y="-7.5" font-family="Helvetica,sans-Serif" font-size="10.00">_sampler.cpp</text>
</a>
</g>
</g>
<!-- Node2&#45;&gt;Node4 -->
<g id="edge3" class="edge">
<title>Node2&#45;&gt;Node4</title>
<path fill="none" stroke="midnightblue" d="M139.48,-60.02C148.72,-50.34 159.37,-39.17 167.57,-30.58"/>
<polygon fill="midnightblue" stroke="midnightblue" points="136.82,-57.74 132.45,-67.4 141.89,-62.58 136.82,-57.74"/>
</g>
</g>
</svg>
