<?xml version="1.0" encoding="UTF-8" standalone="no"?>
<!DOCTYPE svg PUBLIC "-//W3C//DTD SVG 1.1//EN"
 "http://www.w3.org/Graphics/SVG/1.1/DTD/svg11.dtd">
<!-- Generated by graphviz version 2.47.1 (20210515.0534)
 -->
<!-- Title: elphi/include/elphi/file_descriptor.hpp Pages: 1 -->
<svg width="339pt" height="162pt"
 viewBox="0.00 0.00 338.50 162.00" xmlns="http://www.w3.org/2000/svg" xmlns:xlink="http://www.w3.org/1999/xlink">
<g id="graph0" class="graph" transform="scale(1 1) rotate(0) translate(4 158)">
<title>elphi/include/elphi/file_descriptor.hpp</title>
<!-- Node1 -->
<g id="node1" class="node">
<title>Node1</title>
<g id="a_node1"><a xlink:title=" ">
<polygon fill="#bfbfbf" stroke="black" points="150,-123.5 150,-153.5 248,-153.5 248,-123.5 150,-123.5"/>
<text text-anchor="start" x="158" y="-141.5" font-family="Helvetica,sans-Serif" font-size="10.00">elphi/include/elphi</text>
<text text-anchor="middle" x="199" y="-130.5" font-family="Helvetica,sans-Serif" font-size="10.00">/file_descriptor.hpp</text>
</a>
</g>
</g>
<!-- Node2 -->
<g id="node2" class="node">
<title>Node2</title>
<g id="a_node2"><a xlink:href="perf__events_8hpp.html" target="_top" xlink:title=" ">
<polygon fill="none" stroke="black" points="87,-56.5 87,-86.5 181,-86.5 181,-56.5 87,-56.5"/>
<text text-anchor="start" x="95" y="-74.5" font-family="Helvetica,sans-Serif" font-size="10.00">elphi/include/elphi</text>
<text text-anchor="middle" x="134" y="-63.5" font-family="Helvetica,sans-Serif" font-size="10.00">/perf_events.hpp</text>
</a>
</g>
</g>
<!-- Node1&#45;&gt;Node2 -->
<g id="edge1" class="edge">
<title>Node1&#45;&gt;Node2</title>
<path fill="none" stroke="midnightblue" d="M177.81,-116.31C168.06,-106.56 156.76,-95.26 148.08,-86.58"/>
<polygon fill="midnightblue" stroke="midnightblue" points="175.35,-118.8 184.9,-123.4 180.3,-113.85 175.35,-118.8"/>
</g>
<!-- Node5 -->
<g id="node5" class="node">
<title>Node5</title>
<g id="a_node5"><a xlink:href="file__descriptor_8cpp.html" target="_top" xlink:title=" ">
<polygon fill="none" stroke="black" points="199.5,-62 199.5,-81 330.5,-81 330.5,-62 199.5,-62"/>
<text text-anchor="middle" x="265" y="-69" font-family="Helvetica,sans-Serif" font-size="10.00">elphi/lib/file_descriptor.cpp</text>
</a>
</g>
</g>
<!-- Node1&#45;&gt;Node5 -->
<g id="edge4" class="edge">
<title>Node1&#45;&gt;Node5</title>
<path fill="none" stroke="midnightblue" d="M220.49,-116.34C232.61,-104.4 247.09,-90.14 256.17,-81.19"/>
<polygon fill="midnightblue" stroke="midnightblue" points="217.99,-113.89 213.32,-123.4 222.9,-118.87 217.99,-113.89"/>
</g>
<!-- Node3 -->
<g id="node3" class="node">
<title>Node3</title>
<g id="a_node3"><a xlink:href="cpu__sampler_8cpp.html" target="_top" xlink:title=" ">
<polygon fill="none" stroke="black" points="0,-0.5 0,-19.5 126,-19.5 126,-0.5 0,-0.5"/>
<text text-anchor="middle" x="63" y="-7.5" font-family="Helvetica,sans-Serif" font-size="10.00">elphi/lib/cpu_sampler.cpp</text>
</a>
</g>
</g>
<!-- Node2&#45;&gt;Node3 -->
<g id="edge2" class="edge">
<title>Node2&#45;&gt;Node3</title>
<path fill="none" stroke="midnightblue" d="M109.41,-49.89C97.06,-39.54 82.76,-27.56 73.33,-19.66"/>
<polygon fill="midnightblue" stroke="midnightblue" points="107.26,-52.66 117.17,-56.4 111.76,-47.29 107.26,-52.66"/>
</g>
<!-- Node4 -->
<g id="node4" class="node">
<title>Node4</title>
<g id="a_node4"><a xlink:href="perf__events_8cpp.html" target="_top" xlink:title=" ">
<polygon fill="none" stroke="black" points="144,-0.5 144,-19.5 266,-19.5 266,-0.5 144,-0.5"/>
<text text-anchor="middle" x="205" y="-7.5" font-family="Helvetica,sans-Serif" font-size="10.00">elphi/lib/perf_events.cpp</text>
</a>
</g>
</g>
<!-- Node2&#45;&gt;Node4 -->
<g id="edge3" class="edge">
<title>Node2&#45;&gt;Node4</title>
<path fill="none" stroke="midnightblue" d="M158.59,-49.89C170.94,-39.54 185.24,-27.56 194.67,-19.66"/>
<polygon fill="midnightblue" stroke="midnightblue" points="156.24,-47.29 150.83,-56.4 160.74,-52.66 156.24,-47.29"/>
</g>
</g>
</svg>
