<?xml version="1.0" encoding="UTF-8" standalone="no"?>
<!DOCTYPE svg PUBLIC "-//W3C//DTD SVG 1.1//EN"
 "http://www.w3.org/Graphics/SVG/1.1/DTD/svg11.dtd">
<!-- Generated by graphviz version 2.47.1 (20210515.0534)
 -->
<!-- Title: elphi/src/perf_events.cpp Pages: 1 -->
<svg width="1289pt" height="196pt"
 viewBox="0.00 0.00 1289.00 196.00" xmlns="http://www.w3.org/2000/svg" xmlns:xlink="http://www.w3.org/1999/xlink">
<g id="graph0" class="graph" transform="scale(1 1) rotate(0) translate(4 192)">
<title>elphi/src/perf_events.cpp</title>
<!-- Node1 -->
<g id="node1" class="node">
<title>Node1</title>
<g id="a_node1"><a xlink:title=" ">
<polygon fill="#bfbfbf" stroke="black" points="645,-168.5 645,-187.5 770,-187.5 770,-168.5 645,-168.5"/>
<text text-anchor="middle" x="707.5" y="-175.5" font-family="Helvetica,sans-Serif" font-size="10.00">elphi/src/perf_events.cpp</text>
</a>
</g>
</g>
<!-- Node2 -->
<g id="node2" class="node">
<title>Node2</title>
<g id="a_node2"><a xlink:title=" ">
<polygon fill="none" stroke="#bfbfbf" points="0,-112.5 0,-131.5 49,-131.5 49,-112.5 0,-112.5"/>
<text text-anchor="middle" x="24.5" y="-119.5" font-family="Helvetica,sans-Serif" font-size="10.00">cassert</text>
</a>
</g>
</g>
<!-- Node1&#45;&gt;Node2 -->
<g id="edge1" class="edge">
<title>Node1&#45;&gt;Node2</title>
<path fill="none" stroke="midnightblue" d="M644.85,-176.59C530.28,-174.98 279.35,-167.5 59.38,-131.8"/>
<polygon fill="midnightblue" stroke="midnightblue" points="59.7,-128.31 49.26,-130.14 58.56,-135.21 59.7,-128.31"/>
</g>
<!-- Node3 -->
<g id="node3" class="node">
<title>Node3</title>
<g id="a_node3"><a xlink:title=" ">
<polygon fill="none" stroke="#bfbfbf" points="67.5,-112.5 67.5,-131.5 111.5,-131.5 111.5,-112.5 67.5,-112.5"/>
<text text-anchor="middle" x="89.5" y="-119.5" font-family="Helvetica,sans-Serif" font-size="10.00">cerrno</text>
</a>
</g>
</g>
<!-- Node1&#45;&gt;Node3 -->
<g id="edge2" class="edge">
<title>Node1&#45;&gt;Node3</title>
<path fill="none" stroke="midnightblue" d="M644.65,-175.59C537.48,-172.42 312.81,-162.43 125.5,-132 124.25,-131.8 122.98,-131.57 121.69,-131.33"/>
<polygon fill="midnightblue" stroke="midnightblue" points="122.36,-127.89 111.85,-129.2 120.88,-134.73 122.36,-127.89"/>
</g>
<!-- Node4 -->
<g id="node4" class="node">
<title>Node4</title>
<g id="a_node4"><a xlink:title=" ">
<polygon fill="none" stroke="#bfbfbf" points="215.5,-0.5 215.5,-19.5 261.5,-19.5 261.5,-0.5 215.5,-0.5"/>
<text text-anchor="middle" x="238.5" y="-7.5" font-family="Helvetica,sans-Serif" font-size="10.00">cstdint</text>
</a>
</g>
</g>
<!-- Node1&#45;&gt;Node4 -->
<g id="edge3" class="edge">
<title>Node1&#45;&gt;Node4</title>
<path fill="none" stroke="midnightblue" d="M644.78,-175.47C513.56,-170.77 217.3,-151.81 158.5,-76 140.96,-53.39 176.55,-33.66 205.74,-22.04"/>
<polygon fill="midnightblue" stroke="midnightblue" points="207.2,-25.23 215.31,-18.42 204.72,-18.68 207.2,-25.23"/>
</g>
<!-- Node5 -->
<g id="node5" class="node">
<title>Node5</title>
<g id="a_node5"><a xlink:title=" ">
<polygon fill="none" stroke="#bfbfbf" points="736,-112.5 736,-131.5 779,-131.5 779,-112.5 736,-112.5"/>
<text text-anchor="middle" x="757.5" y="-119.5" font-family="Helvetica,sans-Serif" font-size="10.00">cstdio</text>
</a>
</g>
</g>
<!-- Node1&#45;&gt;Node5 -->
<g id="edge4" class="edge">
<title>Node1&#45;&gt;Node5</title>
<path fill="none" stroke="midnightblue" d="M715.76,-168.08C722.96,-160.3 733.61,-148.8 742.35,-139.37"/>
<polygon fill="midnightblue" stroke="midnightblue" points="745.17,-141.47 749.4,-131.75 740.03,-136.71 745.17,-141.47"/>
</g>
<!-- Node6 -->
<g id="node6" class="node">
<title>Node6</title>
<g id="a_node6"><a xlink:title=" ">
<polygon fill="none" stroke="#bfbfbf" points="892.5,-0.5 892.5,-19.5 938.5,-19.5 938.5,-0.5 892.5,-0.5"/>
<text text-anchor="middle" x="915.5" y="-7.5" font-family="Helvetica,sans-Serif" font-size="10.00">cstring</text>
</a>
</g>
</g>
<!-- Node1&#45;&gt;Node6 -->
<g id="edge5" class="edge">
<title>Node1&#45;&gt;Node6</title>
<path fill="none" stroke="midnightblue" d="M707.93,-168.45C709.01,-155.02 712.86,-128.79 726.5,-112 748.29,-85.18 837.99,-44.09 885.56,-23.57"/>
<polygon fill="midnightblue" stroke="midnightblue" points="887.22,-26.67 895.03,-19.52 884.46,-20.24 887.22,-26.67"/>
</g>
<!-- Node7 -->
<g id="node7" class="node">
<title>Node7</title>
<g id="a_node7"><a xlink:title=" ">
<polygon fill="none" stroke="#bfbfbf" points="797,-112.5 797,-131.5 838,-131.5 838,-112.5 797,-112.5"/>
<text text-anchor="middle" x="817.5" y="-119.5" font-family="Helvetica,sans-Serif" font-size="10.00">ctime</text>
</a>
</g>
</g>
<!-- Node1&#45;&gt;Node7 -->
<g id="edge6" class="edge">
<title>Node1&#45;&gt;Node7</title>
<path fill="none" stroke="midnightblue" d="M725.17,-168.32C742.89,-159.62 770.4,-146.12 790.79,-136.11"/>
<polygon fill="midnightblue" stroke="midnightblue" points="792.44,-139.2 799.87,-131.65 789.35,-132.92 792.44,-139.2"/>
</g>
<!-- Node8 -->
<g id="node8" class="node">
<title>Node8</title>
<g id="a_node8"><a xlink:title=" ">
<polygon fill="none" stroke="#bfbfbf" points="856,-112.5 856,-131.5 925,-131.5 925,-112.5 856,-112.5"/>
<text text-anchor="middle" x="890.5" y="-119.5" font-family="Helvetica,sans-Serif" font-size="10.00">fmt/format.h</text>
</a>
</g>
</g>
<!-- Node1&#45;&gt;Node8 -->
<g id="edge7" class="edge">
<title>Node1&#45;&gt;Node8</title>
<path fill="none" stroke="midnightblue" d="M736.5,-168.44C767.68,-159.24 817.43,-144.56 851.91,-134.39"/>
<polygon fill="midnightblue" stroke="midnightblue" points="853.04,-137.7 861.64,-131.52 851.06,-130.99 853.04,-137.7"/>
</g>
<!-- Node9 -->
<g id="node9" class="node">
<title>Node9</title>
<g id="a_node9"><a xlink:title=" ">
<polygon fill="none" stroke="#bfbfbf" points="167.5,-56.5 167.5,-75.5 259.5,-75.5 259.5,-56.5 167.5,-56.5"/>
<text text-anchor="middle" x="213.5" y="-63.5" font-family="Helvetica,sans-Serif" font-size="10.00">linux/perf_event.h</text>
</a>
</g>
</g>
<!-- Node1&#45;&gt;Node9 -->
<g id="edge8" class="edge">
<title>Node1&#45;&gt;Node9</title>
<path fill="none" stroke="midnightblue" d="M654.7,-168.46C604.93,-160.13 528.36,-146.62 462.5,-132 387.98,-115.45 302.03,-92.04 253.09,-78.3"/>
<polygon fill="midnightblue" stroke="midnightblue" points="253.8,-74.86 243.22,-75.52 251.9,-81.6 253.8,-74.86"/>
</g>
<!-- Node10 -->
<g id="node10" class="node">
<title>Node10</title>
<g id="a_node10"><a xlink:title=" ">
<polygon fill="none" stroke="#bfbfbf" points="943.5,-112.5 943.5,-131.5 1003.5,-131.5 1003.5,-112.5 943.5,-112.5"/>
<text text-anchor="middle" x="973.5" y="-119.5" font-family="Helvetica,sans-Serif" font-size="10.00">sys/ioctl.h</text>
</a>
</g>
</g>
<!-- Node1&#45;&gt;Node10 -->
<g id="edge9" class="edge">
<title>Node1&#45;&gt;Node10</title>
<path fill="none" stroke="midnightblue" d="M752.81,-168.45C796.54,-160.1 864.87,-146.8 933.21,-132.23"/>
<polygon fill="midnightblue" stroke="midnightblue" points="934.24,-135.59 943.29,-130.07 932.78,-128.74 934.24,-135.59"/>
</g>
<!-- Node11 -->
<g id="node11" class="node">
<title>Node11</title>
<g id="a_node11"><a xlink:title=" ">
<polygon fill="none" stroke="#bfbfbf" points="1022,-112.5 1022,-131.5 1091,-131.5 1091,-112.5 1022,-112.5"/>
<text text-anchor="middle" x="1056.5" y="-119.5" font-family="Helvetica,sans-Serif" font-size="10.00">sys/mman.h</text>
</a>
</g>
</g>
<!-- Node1&#45;&gt;Node11 -->
<g id="edge10" class="edge">
<title>Node1&#45;&gt;Node11</title>
<path fill="none" stroke="midnightblue" d="M770.17,-168.79C829.71,-160.75 921.98,-147.68 1011.85,-132.03"/>
<polygon fill="midnightblue" stroke="midnightblue" points="1012.7,-135.43 1021.95,-130.26 1011.49,-128.54 1012.7,-135.43"/>
</g>
<!-- Node12 -->
<g id="node12" class="node">
<title>Node12</title>
<g id="a_node12"><a xlink:title=" ">
<polygon fill="none" stroke="#bfbfbf" points="1109.5,-112.5 1109.5,-131.5 1163.5,-131.5 1163.5,-112.5 1109.5,-112.5"/>
<text text-anchor="middle" x="1136.5" y="-119.5" font-family="Helvetica,sans-Serif" font-size="10.00">syscall.h</text>
</a>
</g>
</g>
<!-- Node1&#45;&gt;Node12 -->
<g id="edge11" class="edge">
<title>Node1&#45;&gt;Node12</title>
<path fill="none" stroke="midnightblue" d="M770.15,-172.37C845.97,-166.21 977.61,-153.68 1099.57,-131.95"/>
<polygon fill="midnightblue" stroke="midnightblue" points="1100.24,-135.39 1109.46,-130.16 1098.99,-128.5 1100.24,-135.39"/>
</g>
<!-- Node13 -->
<g id="node13" class="node">
<title>Node13</title>
<g id="a_node13"><a xlink:title=" ">
<polygon fill="none" stroke="#bfbfbf" points="568.5,-0.5 568.5,-19.5 618.5,-19.5 618.5,-0.5 568.5,-0.5"/>
<text text-anchor="middle" x="593.5" y="-7.5" font-family="Helvetica,sans-Serif" font-size="10.00">unistd.h</text>
</a>
</g>
</g>
<!-- Node1&#45;&gt;Node13 -->
<g id="edge12" class="edge">
<title>Node1&#45;&gt;Node13</title>
<path fill="none" stroke="midnightblue" d="M701.37,-168.08C683.19,-141.61 629.35,-63.21 605.32,-28.21"/>
<polygon fill="midnightblue" stroke="midnightblue" points="607.93,-25.83 599.38,-19.57 602.16,-29.79 607.93,-25.83"/>
</g>
<!-- Node14 -->
<g id="node14" class="node">
<title>Node14</title>
<g id="a_node14"><a xlink:href="perf__events_8hpp.html" target="_top" xlink:title=" ">
<polygon fill="none" stroke="black" points="472,-112.5 472,-131.5 581,-131.5 581,-112.5 472,-112.5"/>
<text text-anchor="middle" x="526.5" y="-119.5" font-family="Helvetica,sans-Serif" font-size="10.00">elphi/perf_events.hpp</text>
</a>
</g>
</g>
<!-- Node1&#45;&gt;Node14 -->
<g id="edge13" class="edge">
<title>Node1&#45;&gt;Node14</title>
<path fill="none" stroke="midnightblue" d="M678.82,-168.44C647.97,-159.24 598.77,-144.56 564.67,-134.39"/>
<polygon fill="midnightblue" stroke="midnightblue" points="565.63,-131.02 555.05,-131.52 563.63,-137.73 565.63,-131.02"/>
</g>
<!-- Node19 -->
<g id="node19" class="node">
<title>Node19</title>
<g id="a_node19"><a xlink:href="utils_8hpp.html" target="_top" xlink:title=" ">
<polygon fill="none" stroke="black" points="659.5,-56.5 659.5,-75.5 735.5,-75.5 735.5,-56.5 659.5,-56.5"/>
<text text-anchor="middle" x="697.5" y="-63.5" font-family="Helvetica,sans-Serif" font-size="10.00">elphi/utils.hpp</text>
</a>
</g>
</g>
<!-- Node1&#45;&gt;Node19 -->
<g id="edge29" class="edge">
<title>Node1&#45;&gt;Node19</title>
<path fill="none" stroke="midnightblue" d="M703.9,-168.22C700.44,-159.28 695.47,-144.94 693.5,-132 691.16,-116.61 692.5,-98.98 694.23,-85.96"/>
<polygon fill="midnightblue" stroke="midnightblue" points="697.72,-86.3 695.77,-75.88 690.8,-85.24 697.72,-86.3"/>
</g>
<!-- Node24 -->
<g id="node24" class="node">
<title>Node24</title>
<g id="a_node24"><a xlink:href="exception_8hpp.html" target="_top" xlink:title=" ">
<polygon fill="none" stroke="black" points="1182,-112.5 1182,-131.5 1281,-131.5 1281,-112.5 1182,-112.5"/>
<text text-anchor="middle" x="1231.5" y="-119.5" font-family="Helvetica,sans-Serif" font-size="10.00">elphi/exception.hpp</text>
</a>
</g>
</g>
<!-- Node1&#45;&gt;Node24 -->
<g id="edge30" class="edge">
<title>Node1&#45;&gt;Node24</title>
<path fill="none" stroke="midnightblue" d="M770.05,-172.04C857.43,-164.88 1021.27,-150.56 1171.61,-132.04"/>
<polygon fill="midnightblue" stroke="midnightblue" points="1172.46,-135.46 1181.95,-130.76 1171.6,-128.52 1172.46,-135.46"/>
</g>
<!-- Node14&#45;&gt;Node9 -->
<g id="edge17" class="edge">
<title>Node14&#45;&gt;Node9</title>
<path fill="none" stroke="midnightblue" d="M476.9,-112.44C420.44,-102.7 328.42,-86.83 269.44,-76.65"/>
<polygon fill="midnightblue" stroke="midnightblue" points="270,-73.2 259.55,-74.94 268.81,-80.09 270,-73.2"/>
</g>
<!-- Node14&#45;&gt;Node13 -->
<g id="edge18" class="edge">
<title>Node14&#45;&gt;Node13</title>
<path fill="none" stroke="midnightblue" d="M531.76,-112.37C542.77,-94.3 568.42,-52.18 582.96,-28.31"/>
<polygon fill="midnightblue" stroke="midnightblue" points="586.05,-29.95 588.27,-19.59 580.08,-26.31 586.05,-29.95"/>
</g>
<!-- Node15 -->
<g id="node15" class="node">
<title>Node15</title>
<g id="a_node15"><a xlink:title=" ">
<polygon fill="none" stroke="#bfbfbf" points="413.5,-56.5 413.5,-75.5 463.5,-75.5 463.5,-56.5 413.5,-56.5"/>
<text text-anchor="middle" x="438.5" y="-63.5" font-family="Helvetica,sans-Serif" font-size="10.00">optional</text>
</a>
</g>
</g>
<!-- Node14&#45;&gt;Node15 -->
<g id="edge14" class="edge">
<title>Node14&#45;&gt;Node15</title>
<path fill="none" stroke="midnightblue" d="M512.36,-112.32C498.63,-103.9 477.56,-90.97 461.44,-81.07"/>
<polygon fill="midnightblue" stroke="midnightblue" points="462.96,-77.9 452.6,-75.65 459.3,-83.87 462.96,-77.9"/>
</g>
<!-- Node16 -->
<g id="node16" class="node">
<title>Node16</title>
<g id="a_node16"><a xlink:title=" ">
<polygon fill="none" stroke="#bfbfbf" points="512.5,-0.5 512.5,-19.5 550.5,-19.5 550.5,-0.5 512.5,-0.5"/>
<text text-anchor="middle" x="531.5" y="-7.5" font-family="Helvetica,sans-Serif" font-size="10.00">span</text>
</a>
</g>
</g>
<!-- Node14&#45;&gt;Node16 -->
<g id="edge15" class="edge">
<title>Node14&#45;&gt;Node16</title>
<path fill="none" stroke="midnightblue" d="M528.98,-112.47C531.46,-103.48 535.09,-88.89 536.5,-76 538.2,-60.51 536.63,-42.88 534.81,-29.9"/>
<polygon fill="midnightblue" stroke="midnightblue" points="538.24,-29.18 533.22,-19.85 531.32,-30.27 538.24,-29.18"/>
</g>
<!-- Node17 -->
<g id="node17" class="node">
<title>Node17</title>
<g id="a_node17"><a xlink:title=" ">
<polygon fill="none" stroke="#bfbfbf" points="481.5,-56.5 481.5,-75.5 527.5,-75.5 527.5,-56.5 481.5,-56.5"/>
<text text-anchor="middle" x="504.5" y="-63.5" font-family="Helvetica,sans-Serif" font-size="10.00">variant</text>
</a>
</g>
</g>
<!-- Node14&#45;&gt;Node17 -->
<g id="edge16" class="edge">
<title>Node14&#45;&gt;Node17</title>
<path fill="none" stroke="midnightblue" d="M522.87,-112.08C519.89,-104.77 515.57,-94.18 511.88,-85.1"/>
<polygon fill="midnightblue" stroke="midnightblue" points="515.08,-83.69 508.07,-75.75 508.6,-86.33 515.08,-83.69"/>
</g>
<!-- Node18 -->
<g id="node18" class="node">
<title>Node18</title>
<g id="a_node18"><a xlink:href="file__descriptor_8hpp.html" target="_top" xlink:title=" ">
<polygon fill="none" stroke="black" points="277.5,-56.5 277.5,-75.5 395.5,-75.5 395.5,-56.5 277.5,-56.5"/>
<text text-anchor="middle" x="336.5" y="-63.5" font-family="Helvetica,sans-Serif" font-size="10.00">elphi/file_descriptor.hpp</text>
</a>
</g>
</g>
<!-- Node14&#45;&gt;Node18 -->
<g id="edge19" class="edge">
<title>Node14&#45;&gt;Node18</title>
<path fill="none" stroke="midnightblue" d="M496.39,-112.44C463.87,-103.2 411.92,-88.44 376.11,-78.26"/>
<polygon fill="midnightblue" stroke="midnightblue" points="377.04,-74.88 366.47,-75.52 375.13,-81.62 377.04,-74.88"/>
</g>
<!-- Node14&#45;&gt;Node19 -->
<g id="edge21" class="edge">
<title>Node14&#45;&gt;Node19</title>
<path fill="none" stroke="midnightblue" d="M553.6,-112.44C582.49,-103.32 628.42,-88.81 660.61,-78.65"/>
<polygon fill="midnightblue" stroke="midnightblue" points="662.05,-81.87 670.53,-75.52 659.94,-75.19 662.05,-81.87"/>
</g>
<!-- Node18&#45;&gt;Node4 -->
<g id="edge20" class="edge">
<title>Node18&#45;&gt;Node4</title>
<path fill="none" stroke="midnightblue" d="M320.75,-56.32C305.18,-47.74 281.12,-34.49 263.04,-24.52"/>
<polygon fill="midnightblue" stroke="midnightblue" points="264.65,-21.42 254.21,-19.65 261.28,-27.55 264.65,-21.42"/>
</g>
<!-- Node19&#45;&gt;Node6 -->
<g id="edge24" class="edge">
<title>Node19&#45;&gt;Node6</title>
<path fill="none" stroke="midnightblue" d="M734.66,-56.44C770.22,-48.14 825.6,-34.99 882.56,-20.18"/>
<polygon fill="midnightblue" stroke="midnightblue" points="883.67,-23.51 892.46,-17.59 881.9,-16.73 883.67,-23.51"/>
</g>
<!-- Node19&#45;&gt;Node13 -->
<g id="edge28" class="edge">
<title>Node19&#45;&gt;Node13</title>
<path fill="none" stroke="midnightblue" d="M680.79,-56.32C664.19,-47.7 638.5,-34.36 619.28,-24.39"/>
<polygon fill="midnightblue" stroke="midnightblue" points="620.66,-21.16 610.17,-19.65 617.43,-27.37 620.66,-21.16"/>
</g>
<!-- Node19&#45;&gt;Node16 -->
<g id="edge26" class="edge">
<title>Node19&#45;&gt;Node16</title>
<path fill="none" stroke="midnightblue" d="M671.2,-56.44C641.14,-46.66 592.07,-30.7 560.8,-20.53"/>
<polygon fill="midnightblue" stroke="midnightblue" points="561.53,-17.09 550.94,-17.32 559.36,-23.74 561.53,-17.09"/>
</g>
<!-- Node20 -->
<g id="node20" class="node">
<title>Node20</title>
<g id="a_node20"><a xlink:title=" ">
<polygon fill="none" stroke="#bfbfbf" points="818.5,-0.5 818.5,-19.5 874.5,-19.5 874.5,-0.5 818.5,-0.5"/>
<text text-anchor="middle" x="846.5" y="-7.5" font-family="Helvetica,sans-Serif" font-size="10.00">algorithm</text>
</a>
</g>
</g>
<!-- Node19&#45;&gt;Node20 -->
<g id="edge22" class="edge">
<title>Node19&#45;&gt;Node20</title>
<path fill="none" stroke="midnightblue" d="M721.11,-56.44C745.96,-47.44 785.27,-33.19 813.25,-23.05"/>
<polygon fill="midnightblue" stroke="midnightblue" points="814.79,-26.21 823,-19.52 812.41,-19.63 814.79,-26.21"/>
</g>
<!-- Node21 -->
<g id="node21" class="node">
<title>Node21</title>
<g id="a_node21"><a xlink:title=" ">
<polygon fill="none" stroke="#bfbfbf" points="636.5,-0.5 636.5,-19.5 674.5,-19.5 674.5,-0.5 636.5,-0.5"/>
<text text-anchor="middle" x="655.5" y="-7.5" font-family="Helvetica,sans-Serif" font-size="10.00">array</text>
</a>
</g>
</g>
<!-- Node19&#45;&gt;Node21 -->
<g id="edge23" class="edge">
<title>Node19&#45;&gt;Node21</title>
<path fill="none" stroke="midnightblue" d="M690.56,-56.08C684.57,-48.38 675.75,-37.03 668.45,-27.65"/>
<polygon fill="midnightblue" stroke="midnightblue" points="671.21,-25.5 662.31,-19.75 665.68,-29.79 671.21,-25.5"/>
</g>
<!-- Node22 -->
<g id="node22" class="node">
<title>Node22</title>
<g id="a_node22"><a xlink:title=" ">
<polygon fill="none" stroke="#bfbfbf" points="692.5,-0.5 692.5,-19.5 738.5,-19.5 738.5,-0.5 692.5,-0.5"/>
<text text-anchor="middle" x="715.5" y="-7.5" font-family="Helvetica,sans-Serif" font-size="10.00">ranges</text>
</a>
</g>
</g>
<!-- Node19&#45;&gt;Node22 -->
<g id="edge25" class="edge">
<title>Node19&#45;&gt;Node22</title>
<path fill="none" stroke="midnightblue" d="M700.47,-56.08C702.88,-48.85 706.36,-38.41 709.37,-29.4"/>
<polygon fill="midnightblue" stroke="midnightblue" points="712.74,-30.34 712.58,-19.75 706.1,-28.13 712.74,-30.34"/>
</g>
<!-- Node23 -->
<g id="node23" class="node">
<title>Node23</title>
<g id="a_node23"><a xlink:title=" ">
<polygon fill="none" stroke="#bfbfbf" points="756.5,-0.5 756.5,-19.5 800.5,-19.5 800.5,-0.5 756.5,-0.5"/>
<text text-anchor="middle" x="778.5" y="-7.5" font-family="Helvetica,sans-Serif" font-size="10.00">vector</text>
</a>
</g>
</g>
<!-- Node19&#45;&gt;Node23 -->
<g id="edge27" class="edge">
<title>Node19&#45;&gt;Node23</title>
<path fill="none" stroke="midnightblue" d="M710.51,-56.32C723.03,-47.98 742.18,-35.21 756.97,-25.35"/>
<polygon fill="midnightblue" stroke="midnightblue" points="759.14,-28.11 765.52,-19.65 755.26,-22.29 759.14,-28.11"/>
</g>
<!-- Node25 -->
<g id="node25" class="node">
<title>Node25</title>
<g id="a_node25"><a xlink:title=" ">
<polygon fill="none" stroke="#bfbfbf" points="1202,-56.5 1202,-75.5 1261,-75.5 1261,-56.5 1202,-56.5"/>
<text text-anchor="middle" x="1231.5" y="-63.5" font-family="Helvetica,sans-Serif" font-size="10.00">stdexcept</text>
</a>
</g>
</g>
<!-- Node24&#45;&gt;Node25 -->
<g id="edge31" class="edge">
<title>Node24&#45;&gt;Node25</title>
<path fill="none" stroke="midnightblue" d="M1231.5,-112.08C1231.5,-105.01 1231.5,-94.86 1231.5,-85.99"/>
<polygon fill="midnightblue" stroke="midnightblue" points="1235,-85.75 1231.5,-75.75 1228,-85.75 1235,-85.75"/>
</g>
</g>
</svg>
