<?xml version="1.0" encoding="UTF-8" standalone="no"?>
<!DOCTYPE svg PUBLIC "-//W3C//DTD SVG 1.1//EN"
 "http://www.w3.org/Graphics/SVG/1.1/DTD/svg11.dtd">
<!-- Generated by graphviz version 2.47.1 (20210515.0534)
 -->
<!-- Title: elphi/include/elphi/perf_events.hpp Pages: 1 -->
<svg width="553pt" height="151pt"
 viewBox="0.00 0.00 553.00 151.00" xmlns="http://www.w3.org/2000/svg" xmlns:xlink="http://www.w3.org/1999/xlink">
<g id="graph0" class="graph" transform="scale(1 1) rotate(0) translate(4 147)">
<title>elphi/include/elphi/perf_events.hpp</title>
<!-- Node1 -->
<g id="node1" class="node">
<title>Node1</title>
<g id="a_node1"><a xlink:title=" ">
<polygon fill="#bfbfbf" stroke="black" points="135,-112.5 135,-142.5 229,-142.5 229,-112.5 135,-112.5"/>
<text text-anchor="start" x="143" y="-130.5" font-family="Helvetica,sans-Serif" font-size="10.00">elphi/include/elphi</text>
<text text-anchor="middle" x="182" y="-119.5" font-family="Helvetica,sans-Serif" font-size="10.00">/perf_events.hpp</text>
</a>
</g>
</g>
<!-- Node2 -->
<g id="node2" class="node">
<title>Node2</title>
<g id="a_node2"><a xlink:title=" ">
<polygon fill="none" stroke="#bfbfbf" points="0,-56.5 0,-75.5 50,-75.5 50,-56.5 0,-56.5"/>
<text text-anchor="middle" x="25" y="-63.5" font-family="Helvetica,sans-Serif" font-size="10.00">optional</text>
</a>
</g>
</g>
<!-- Node1&#45;&gt;Node2 -->
<g id="edge1" class="edge">
<title>Node1&#45;&gt;Node2</title>
<path fill="none" stroke="midnightblue" d="M144.79,-112.4C118.22,-102.33 82.81,-88.91 57.39,-79.28"/>
<polygon fill="midnightblue" stroke="midnightblue" points="58.44,-75.93 47.84,-75.66 55.96,-82.47 58.44,-75.93"/>
</g>
<!-- Node3 -->
<g id="node3" class="node">
<title>Node3</title>
<g id="a_node3"><a xlink:title=" ">
<polygon fill="none" stroke="#bfbfbf" points="27,-0.5 27,-19.5 65,-19.5 65,-0.5 27,-0.5"/>
<text text-anchor="middle" x="46" y="-7.5" font-family="Helvetica,sans-Serif" font-size="10.00">span</text>
</a>
</g>
</g>
<!-- Node1&#45;&gt;Node3 -->
<g id="edge2" class="edge">
<title>Node1&#45;&gt;Node3</title>
<path fill="none" stroke="midnightblue" d="M164.22,-112.31C151.74,-102.28 134.73,-88.46 120,-76 100.36,-59.38 78.24,-39.84 63.34,-26.56"/>
<polygon fill="midnightblue" stroke="midnightblue" points="65.27,-23.58 55.48,-19.53 60.6,-28.8 65.27,-23.58"/>
</g>
<!-- Node4 -->
<g id="node4" class="node">
<title>Node4</title>
<g id="a_node4"><a xlink:title=" ">
<polygon fill="none" stroke="#bfbfbf" points="238,-56.5 238,-75.5 284,-75.5 284,-56.5 238,-56.5"/>
<text text-anchor="middle" x="261" y="-63.5" font-family="Helvetica,sans-Serif" font-size="10.00">variant</text>
</a>
</g>
</g>
<!-- Node1&#45;&gt;Node4 -->
<g id="edge3" class="edge">
<title>Node1&#45;&gt;Node4</title>
<path fill="none" stroke="midnightblue" d="M200.72,-112.4C212.91,-103.22 228.79,-91.26 241.19,-81.92"/>
<polygon fill="midnightblue" stroke="midnightblue" points="243.62,-84.47 249.5,-75.66 239.41,-78.88 243.62,-84.47"/>
</g>
<!-- Node5 -->
<g id="node5" class="node">
<title>Node5</title>
<g id="a_node5"><a xlink:title=" ">
<polygon fill="none" stroke="#bfbfbf" points="302,-56.5 302,-75.5 394,-75.5 394,-56.5 302,-56.5"/>
<text text-anchor="middle" x="348" y="-63.5" font-family="Helvetica,sans-Serif" font-size="10.00">linux/perf_event.h</text>
</a>
</g>
</g>
<!-- Node1&#45;&gt;Node5 -->
<g id="edge4" class="edge">
<title>Node1&#45;&gt;Node5</title>
<path fill="none" stroke="midnightblue" d="M221.34,-112.4C249.56,-102.28 287.21,-88.79 314.1,-79.15"/>
<polygon fill="midnightblue" stroke="midnightblue" points="315.61,-82.33 323.85,-75.66 313.25,-75.74 315.61,-82.33"/>
</g>
<!-- Node6 -->
<g id="node6" class="node">
<title>Node6</title>
<g id="a_node6"><a xlink:title=" ">
<polygon fill="none" stroke="#bfbfbf" points="83,-0.5 83,-19.5 133,-19.5 133,-0.5 83,-0.5"/>
<text text-anchor="middle" x="108" y="-7.5" font-family="Helvetica,sans-Serif" font-size="10.00">unistd.h</text>
</a>
</g>
</g>
<!-- Node1&#45;&gt;Node6 -->
<g id="edge5" class="edge">
<title>Node1&#45;&gt;Node6</title>
<path fill="none" stroke="midnightblue" d="M166.07,-112.22C156.15,-102.7 143.68,-89.5 135,-76 125.61,-61.4 118.33,-43 113.71,-29.5"/>
<polygon fill="midnightblue" stroke="midnightblue" points="117,-28.32 110.58,-19.89 110.35,-30.49 117,-28.32"/>
</g>
<!-- Node7 -->
<g id="node7" class="node">
<title>Node7</title>
<g id="a_node7"><a xlink:href="file__descriptor_8hpp.html" target="_top" xlink:title=" ">
<polygon fill="none" stroke="black" points="427,-56.5 427,-75.5 545,-75.5 545,-56.5 427,-56.5"/>
<text text-anchor="middle" x="486" y="-63.5" font-family="Helvetica,sans-Serif" font-size="10.00">elphi/file_descriptor.hpp</text>
</a>
</g>
</g>
<!-- Node1&#45;&gt;Node7 -->
<g id="edge6" class="edge">
<title>Node1&#45;&gt;Node7</title>
<path fill="none" stroke="midnightblue" d="M229.17,-117.27C284.07,-106.52 374.56,-88.81 432.17,-77.54"/>
<polygon fill="midnightblue" stroke="midnightblue" points="433.04,-80.93 442.18,-75.58 431.69,-74.06 433.04,-80.93"/>
</g>
<!-- Node9 -->
<g id="node9" class="node">
<title>Node9</title>
<g id="a_node9"><a xlink:href="utils_8hpp.html" target="_top" xlink:title=" ">
<polygon fill="none" stroke="black" points="144,-56.5 144,-75.5 220,-75.5 220,-56.5 144,-56.5"/>
<text text-anchor="middle" x="182" y="-63.5" font-family="Helvetica,sans-Serif" font-size="10.00">elphi/utils.hpp</text>
</a>
</g>
</g>
<!-- Node1&#45;&gt;Node9 -->
<g id="edge8" class="edge">
<title>Node1&#45;&gt;Node9</title>
<path fill="none" stroke="midnightblue" d="M182,-112.4C182,-104.47 182,-94.46 182,-85.86"/>
<polygon fill="midnightblue" stroke="midnightblue" points="185.5,-85.66 182,-75.66 178.5,-85.66 185.5,-85.66"/>
</g>
<!-- Node8 -->
<g id="node8" class="node">
<title>Node8</title>
<g id="a_node8"><a xlink:title=" ">
<polygon fill="none" stroke="#bfbfbf" points="471,-0.5 471,-19.5 517,-19.5 517,-0.5 471,-0.5"/>
<text text-anchor="middle" x="494" y="-7.5" font-family="Helvetica,sans-Serif" font-size="10.00">cstdint</text>
</a>
</g>
</g>
<!-- Node7&#45;&gt;Node8 -->
<g id="edge7" class="edge">
<title>Node7&#45;&gt;Node8</title>
<path fill="none" stroke="midnightblue" d="M487.32,-56.08C488.38,-48.93 489.91,-38.64 491.23,-29.69"/>
<polygon fill="midnightblue" stroke="midnightblue" points="494.7,-30.16 492.7,-19.75 487.78,-29.13 494.7,-30.16"/>
</g>
<!-- Node9&#45;&gt;Node3 -->
<g id="edge13" class="edge">
<title>Node9&#45;&gt;Node3</title>
<path fill="none" stroke="midnightblue" d="M160.45,-56.44C137.31,-47.25 100.42,-32.61 74.8,-22.43"/>
<polygon fill="midnightblue" stroke="midnightblue" points="75.84,-19.08 65.25,-18.64 73.25,-25.59 75.84,-19.08"/>
</g>
<!-- Node9&#45;&gt;Node6 -->
<g id="edge15" class="edge">
<title>Node9&#45;&gt;Node6</title>
<path fill="none" stroke="midnightblue" d="M170.11,-56.32C158.85,-48.11 141.71,-35.6 128.29,-25.81"/>
<polygon fill="midnightblue" stroke="midnightblue" points="130.25,-22.9 120.11,-19.83 126.12,-28.56 130.25,-22.9"/>
</g>
<!-- Node10 -->
<g id="node10" class="node">
<title>Node10</title>
<g id="a_node10"><a xlink:title=" ">
<polygon fill="none" stroke="#bfbfbf" points="213,-0.5 213,-19.5 269,-19.5 269,-0.5 213,-0.5"/>
<text text-anchor="middle" x="241" y="-7.5" font-family="Helvetica,sans-Serif" font-size="10.00">algorithm</text>
</a>
</g>
</g>
<!-- Node9&#45;&gt;Node10 -->
<g id="edge9" class="edge">
<title>Node9&#45;&gt;Node10</title>
<path fill="none" stroke="midnightblue" d="M191.48,-56.32C200.2,-48.34 213.34,-36.31 223.9,-26.65"/>
<polygon fill="midnightblue" stroke="midnightblue" points="226.33,-29.17 231.35,-19.83 221.61,-24 226.33,-29.17"/>
</g>
<!-- Node11 -->
<g id="node11" class="node">
<title>Node11</title>
<g id="a_node11"><a xlink:title=" ">
<polygon fill="none" stroke="#bfbfbf" points="287,-0.5 287,-19.5 325,-19.5 325,-0.5 287,-0.5"/>
<text text-anchor="middle" x="306" y="-7.5" font-family="Helvetica,sans-Serif" font-size="10.00">array</text>
</a>
</g>
</g>
<!-- Node9&#45;&gt;Node11 -->
<g id="edge10" class="edge">
<title>Node9&#45;&gt;Node11</title>
<path fill="none" stroke="midnightblue" d="M201.65,-56.44C222.08,-47.54 254.28,-33.52 277.51,-23.41"/>
<polygon fill="midnightblue" stroke="midnightblue" points="279.08,-26.54 286.85,-19.34 276.29,-20.12 279.08,-26.54"/>
</g>
<!-- Node12 -->
<g id="node12" class="node">
<title>Node12</title>
<g id="a_node12"><a xlink:title=" ">
<polygon fill="none" stroke="#bfbfbf" points="343,-0.5 343,-19.5 389,-19.5 389,-0.5 343,-0.5"/>
<text text-anchor="middle" x="366" y="-7.5" font-family="Helvetica,sans-Serif" font-size="10.00">cstring</text>
</a>
</g>
</g>
<!-- Node9&#45;&gt;Node12 -->
<g id="edge11" class="edge">
<title>Node9&#45;&gt;Node12</title>
<path fill="none" stroke="midnightblue" d="M211.16,-56.44C244.36,-46.7 298.48,-30.82 333.15,-20.64"/>
<polygon fill="midnightblue" stroke="midnightblue" points="334.2,-23.98 342.81,-17.81 332.23,-17.26 334.2,-23.98"/>
</g>
<!-- Node13 -->
<g id="node13" class="node">
<title>Node13</title>
<g id="a_node13"><a xlink:title=" ">
<polygon fill="none" stroke="#bfbfbf" points="407,-0.5 407,-19.5 453,-19.5 453,-0.5 407,-0.5"/>
<text text-anchor="middle" x="430" y="-7.5" font-family="Helvetica,sans-Serif" font-size="10.00">ranges</text>
</a>
</g>
</g>
<!-- Node9&#45;&gt;Node13 -->
<g id="edge12" class="edge">
<title>Node9&#45;&gt;Node13</title>
<path fill="none" stroke="midnightblue" d="M220.27,-57.36C269.08,-47.56 351.71,-30.78 397.09,-20.07"/>
<polygon fill="midnightblue" stroke="midnightblue" points="398.08,-23.43 406.98,-17.68 396.44,-16.62 398.08,-23.43"/>
</g>
<!-- Node14 -->
<g id="node14" class="node">
<title>Node14</title>
<g id="a_node14"><a xlink:title=" ">
<polygon fill="none" stroke="#bfbfbf" points="151,-0.5 151,-19.5 195,-19.5 195,-0.5 151,-0.5"/>
<text text-anchor="middle" x="173" y="-7.5" font-family="Helvetica,sans-Serif" font-size="10.00">vector</text>
</a>
</g>
</g>
<!-- Node9&#45;&gt;Node14 -->
<g id="edge14" class="edge">
<title>Node9&#45;&gt;Node14</title>
<path fill="none" stroke="midnightblue" d="M180.51,-56.08C179.32,-48.93 177.61,-38.64 176.12,-29.69"/>
<polygon fill="midnightblue" stroke="midnightblue" points="179.55,-29.04 174.46,-19.75 172.65,-30.19 179.55,-29.04"/>
</g>
</g>
</svg>
