<?xml version="1.0" encoding="UTF-8" standalone="no"?>
<!DOCTYPE svg PUBLIC "-//W3C//DTD SVG 1.1//EN"
 "http://www.w3.org/Graphics/SVG/1.1/DTD/svg11.dtd">
<!-- Generated by graphviz version 2.47.1 (20210515.0534)
 -->
<!-- Title: elphi/src/perf_events.cpp Pages: 1 -->
<svg width="823pt" height="196pt"
 viewBox="0.00 0.00 822.50 196.00" xmlns="http://www.w3.org/2000/svg" xmlns:xlink="http://www.w3.org/1999/xlink">
<g id="graph0" class="graph" transform="scale(1 1) rotate(0) translate(4 192)">
<title>elphi/src/perf_events.cpp</title>
<!-- Node1 -->
<g id="node1" class="node">
<title>Node1</title>
<g id="a_node1"><a xlink:title=" ">
<polygon fill="#bfbfbf" stroke="black" points="279,-168.5 279,-187.5 404,-187.5 404,-168.5 279,-168.5"/>
<text text-anchor="middle" x="341.5" y="-175.5" font-family="Helvetica,sans-Serif" font-size="10.00">elphi/src/perf_events.cpp</text>
</a>
</g>
</g>
<!-- Node2 -->
<g id="node2" class="node">
<title>Node2</title>
<g id="a_node2"><a xlink:title=" ">
<polygon fill="none" stroke="#bfbfbf" points="0,-112.5 0,-131.5 49,-131.5 49,-112.5 0,-112.5"/>
<text text-anchor="middle" x="24.5" y="-119.5" font-family="Helvetica,sans-Serif" font-size="10.00">cassert</text>
</a>
</g>
</g>
<!-- Node1&#45;&gt;Node2 -->
<g id="edge1" class="edge">
<title>Node1&#45;&gt;Node2</title>
<path fill="none" stroke="midnightblue" d="M278.78,-168.88C223.46,-161.3 140.49,-148.91 59.21,-131.97"/>
<polygon fill="midnightblue" stroke="midnightblue" points="59.82,-128.52 49.31,-129.88 58.38,-135.37 59.82,-128.52"/>
</g>
<!-- Node3 -->
<g id="node3" class="node">
<title>Node3</title>
<g id="a_node3"><a xlink:title=" ">
<polygon fill="none" stroke="#bfbfbf" points="67.5,-112.5 67.5,-131.5 111.5,-131.5 111.5,-112.5 67.5,-112.5"/>
<text text-anchor="middle" x="89.5" y="-119.5" font-family="Helvetica,sans-Serif" font-size="10.00">cerrno</text>
</a>
</g>
</g>
<!-- Node1&#45;&gt;Node3 -->
<g id="edge2" class="edge">
<title>Node1&#45;&gt;Node3</title>
<path fill="none" stroke="midnightblue" d="M293.83,-168.46C251.09,-160.54 186.5,-147.93 121.76,-132.16"/>
<polygon fill="midnightblue" stroke="midnightblue" points="122.34,-128.7 111.79,-129.71 120.67,-135.5 122.34,-128.7"/>
</g>
<!-- Node4 -->
<g id="node4" class="node">
<title>Node4</title>
<g id="a_node4"><a xlink:title=" ">
<polygon fill="none" stroke="#bfbfbf" points="129.5,-112.5 129.5,-131.5 175.5,-131.5 175.5,-112.5 129.5,-112.5"/>
<text text-anchor="middle" x="152.5" y="-119.5" font-family="Helvetica,sans-Serif" font-size="10.00">cstdint</text>
</a>
</g>
</g>
<!-- Node1&#45;&gt;Node4 -->
<g id="edge3" class="edge">
<title>Node1&#45;&gt;Node4</title>
<path fill="none" stroke="midnightblue" d="M311.55,-168.44C277.26,-158.65 221.24,-142.64 185.65,-132.47"/>
<polygon fill="midnightblue" stroke="midnightblue" points="186.33,-129.03 175.75,-129.64 184.41,-135.76 186.33,-129.03"/>
</g>
<!-- Node5 -->
<g id="node5" class="node">
<title>Node5</title>
<g id="a_node5"><a xlink:title=" ">
<polygon fill="none" stroke="#bfbfbf" points="194,-112.5 194,-131.5 237,-131.5 237,-112.5 194,-112.5"/>
<text text-anchor="middle" x="215.5" y="-119.5" font-family="Helvetica,sans-Serif" font-size="10.00">cstdio</text>
</a>
</g>
</g>
<!-- Node1&#45;&gt;Node5 -->
<g id="edge4" class="edge">
<title>Node1&#45;&gt;Node5</title>
<path fill="none" stroke="midnightblue" d="M321.53,-168.44C300.89,-159.6 268.44,-145.69 244.87,-135.59"/>
<polygon fill="midnightblue" stroke="midnightblue" points="245.94,-132.24 235.37,-131.52 243.18,-138.67 245.94,-132.24"/>
</g>
<!-- Node6 -->
<g id="node6" class="node">
<title>Node6</title>
<g id="a_node6"><a xlink:title=" ">
<polygon fill="none" stroke="#bfbfbf" points="118.5,-0.5 118.5,-19.5 164.5,-19.5 164.5,-0.5 118.5,-0.5"/>
<text text-anchor="middle" x="141.5" y="-7.5" font-family="Helvetica,sans-Serif" font-size="10.00">cstring</text>
</a>
</g>
</g>
<!-- Node1&#45;&gt;Node6 -->
<g id="edge5" class="edge">
<title>Node1&#45;&gt;Node6</title>
<path fill="none" stroke="midnightblue" d="M331.03,-168.31C298.76,-141.53 200.58,-60.03 159.68,-26.09"/>
<polygon fill="midnightblue" stroke="midnightblue" points="161.8,-23.3 151.87,-19.61 157.33,-28.69 161.8,-23.3"/>
</g>
<!-- Node7 -->
<g id="node7" class="node">
<title>Node7</title>
<g id="a_node7"><a xlink:title=" ">
<polygon fill="none" stroke="#bfbfbf" points="535,-112.5 535,-131.5 576,-131.5 576,-112.5 535,-112.5"/>
<text text-anchor="middle" x="555.5" y="-119.5" font-family="Helvetica,sans-Serif" font-size="10.00">ctime</text>
</a>
</g>
</g>
<!-- Node1&#45;&gt;Node7 -->
<g id="edge6" class="edge">
<title>Node1&#45;&gt;Node7</title>
<path fill="none" stroke="midnightblue" d="M379,-168.43C414.25,-160.24 468.68,-147.25 525.08,-132"/>
<polygon fill="midnightblue" stroke="midnightblue" points="526.15,-135.34 534.88,-129.34 524.32,-128.59 526.15,-135.34"/>
</g>
<!-- Node8 -->
<g id="node8" class="node">
<title>Node8</title>
<g id="a_node8"><a xlink:title=" ">
<polygon fill="none" stroke="#bfbfbf" points="369.5,-56.5 369.5,-75.5 461.5,-75.5 461.5,-56.5 369.5,-56.5"/>
<text text-anchor="middle" x="415.5" y="-63.5" font-family="Helvetica,sans-Serif" font-size="10.00">linux/perf_event.h</text>
</a>
</g>
</g>
<!-- Node1&#45;&gt;Node8 -->
<g id="edge7" class="edge">
<title>Node1&#45;&gt;Node8</title>
<path fill="none" stroke="midnightblue" d="M347.31,-168.37C359.52,-150.22 388.05,-107.8 404.07,-83.99"/>
<polygon fill="midnightblue" stroke="midnightblue" points="407.04,-85.84 409.72,-75.59 401.23,-81.94 407.04,-85.84"/>
</g>
<!-- Node9 -->
<g id="node9" class="node">
<title>Node9</title>
<g id="a_node9"><a xlink:title=" ">
<polygon fill="none" stroke="#bfbfbf" points="594.5,-112.5 594.5,-131.5 654.5,-131.5 654.5,-112.5 594.5,-112.5"/>
<text text-anchor="middle" x="624.5" y="-119.5" font-family="Helvetica,sans-Serif" font-size="10.00">sys/ioctl.h</text>
</a>
</g>
</g>
<!-- Node1&#45;&gt;Node9 -->
<g id="edge8" class="edge">
<title>Node1&#45;&gt;Node9</title>
<path fill="none" stroke="midnightblue" d="M390.48,-168.5C439.63,-159.83 517.46,-145.74 584.5,-132 584.6,-131.98 584.7,-131.96 584.8,-131.94"/>
<polygon fill="midnightblue" stroke="midnightblue" points="585.33,-135.4 594.39,-129.91 583.88,-128.56 585.33,-135.4"/>
</g>
<!-- Node10 -->
<g id="node10" class="node">
<title>Node10</title>
<g id="a_node10"><a xlink:title=" ">
<polygon fill="none" stroke="#bfbfbf" points="673,-112.5 673,-131.5 742,-131.5 742,-112.5 673,-112.5"/>
<text text-anchor="middle" x="707.5" y="-119.5" font-family="Helvetica,sans-Serif" font-size="10.00">sys/mman.h</text>
</a>
</g>
</g>
<!-- Node1&#45;&gt;Node10 -->
<g id="edge9" class="edge">
<title>Node1&#45;&gt;Node10</title>
<path fill="none" stroke="midnightblue" d="M404.01,-169.45C466.86,-161.59 566.75,-148.36 663.05,-131.98"/>
<polygon fill="midnightblue" stroke="midnightblue" points="663.69,-135.42 672.95,-130.28 662.5,-128.52 663.69,-135.42"/>
</g>
<!-- Node11 -->
<g id="node11" class="node">
<title>Node11</title>
<g id="a_node11"><a xlink:title=" ">
<polygon fill="none" stroke="#bfbfbf" points="760.5,-112.5 760.5,-131.5 814.5,-131.5 814.5,-112.5 760.5,-112.5"/>
<text text-anchor="middle" x="787.5" y="-119.5" font-family="Helvetica,sans-Serif" font-size="10.00">syscall.h</text>
</a>
</g>
</g>
<!-- Node1&#45;&gt;Node11 -->
<g id="edge10" class="edge">
<title>Node1&#45;&gt;Node11</title>
<path fill="none" stroke="midnightblue" d="M404.04,-172.79C482.72,-166.9 622.08,-154.51 750.45,-131.96"/>
<polygon fill="midnightblue" stroke="midnightblue" points="751.23,-135.38 760.46,-130.18 750,-128.49 751.23,-135.38"/>
</g>
<!-- Node12 -->
<g id="node12" class="node">
<title>Node12</title>
<g id="a_node12"><a xlink:title=" ">
<polygon fill="none" stroke="#bfbfbf" points="438.5,-0.5 438.5,-19.5 488.5,-19.5 488.5,-0.5 438.5,-0.5"/>
<text text-anchor="middle" x="463.5" y="-7.5" font-family="Helvetica,sans-Serif" font-size="10.00">unistd.h</text>
</a>
</g>
</g>
<!-- Node1&#45;&gt;Node12 -->
<g id="edge11" class="edge">
<title>Node1&#45;&gt;Node12</title>
<path fill="none" stroke="midnightblue" d="M340.25,-168.3C337.67,-146.79 334,-90.34 360.5,-56 369.33,-44.56 402.41,-31.3 428.73,-22.15"/>
<polygon fill="midnightblue" stroke="midnightblue" points="430.08,-25.39 438.42,-18.86 427.82,-18.76 430.08,-25.39"/>
</g>
<!-- Node13 -->
<g id="node13" class="node">
<title>Node13</title>
<g id="a_node13"><a xlink:href="perf__events_8hpp.html" target="_top" xlink:title=" ">
<polygon fill="none" stroke="black" points="408,-112.5 408,-131.5 517,-131.5 517,-112.5 408,-112.5"/>
<text text-anchor="middle" x="462.5" y="-119.5" font-family="Helvetica,sans-Serif" font-size="10.00">elphi/perf_events.hpp</text>
</a>
</g>
</g>
<!-- Node1&#45;&gt;Node13 -->
<g id="edge12" class="edge">
<title>Node1&#45;&gt;Node13</title>
<path fill="none" stroke="midnightblue" d="M360.67,-168.44C380.41,-159.64 411.39,-145.81 433.99,-135.72"/>
<polygon fill="midnightblue" stroke="midnightblue" points="435.71,-138.79 443.42,-131.52 432.86,-132.4 435.71,-138.79"/>
</g>
<!-- Node17 -->
<g id="node17" class="node">
<title>Node17</title>
<g id="a_node17"><a xlink:href="utils_8hpp.html" target="_top" xlink:title=" ">
<polygon fill="none" stroke="black" points="237.5,-56.5 237.5,-75.5 313.5,-75.5 313.5,-56.5 237.5,-56.5"/>
<text text-anchor="middle" x="275.5" y="-63.5" font-family="Helvetica,sans-Serif" font-size="10.00">elphi/utils.hpp</text>
</a>
</g>
</g>
<!-- Node1&#45;&gt;Node17 -->
<g id="edge26" class="edge">
<title>Node1&#45;&gt;Node17</title>
<path fill="none" stroke="midnightblue" d="M336.32,-168.37C325.48,-150.3 300.21,-108.18 285.88,-84.31"/>
<polygon fill="midnightblue" stroke="midnightblue" points="288.8,-82.37 280.65,-75.59 282.8,-85.97 288.8,-82.37"/>
</g>
<!-- Node13&#45;&gt;Node8 -->
<g id="edge16" class="edge">
<title>Node13&#45;&gt;Node8</title>
<path fill="none" stroke="midnightblue" d="M454.74,-112.08C447.96,-104.3 437.96,-92.8 429.74,-83.37"/>
<polygon fill="midnightblue" stroke="midnightblue" points="432.32,-81 423.12,-75.75 427.04,-85.59 432.32,-81"/>
</g>
<!-- Node13&#45;&gt;Node12 -->
<g id="edge17" class="edge">
<title>Node13&#45;&gt;Node12</title>
<path fill="none" stroke="midnightblue" d="M464.49,-112.43C466.47,-103.42 469.37,-88.8 470.5,-76 471.87,-60.43 469.74,-42.81 467.48,-29.85"/>
<polygon fill="midnightblue" stroke="midnightblue" points="470.88,-28.98 465.55,-19.82 464.01,-30.3 470.88,-28.98"/>
</g>
<!-- Node14 -->
<g id="node14" class="node">
<title>Node14</title>
<g id="a_node14"><a xlink:title=" ">
<polygon fill="none" stroke="#bfbfbf" points="517.5,-56.5 517.5,-75.5 567.5,-75.5 567.5,-56.5 517.5,-56.5"/>
<text text-anchor="middle" x="542.5" y="-63.5" font-family="Helvetica,sans-Serif" font-size="10.00">optional</text>
</a>
</g>
</g>
<!-- Node13&#45;&gt;Node14 -->
<g id="edge13" class="edge">
<title>Node13&#45;&gt;Node14</title>
<path fill="none" stroke="midnightblue" d="M475.35,-112.32C487.72,-103.98 506.63,-91.21 521.24,-81.35"/>
<polygon fill="midnightblue" stroke="midnightblue" points="523.35,-84.15 529.68,-75.65 519.43,-78.35 523.35,-84.15"/>
</g>
<!-- Node15 -->
<g id="node15" class="node">
<title>Node15</title>
<g id="a_node15"><a xlink:title=" ">
<polygon fill="none" stroke="#bfbfbf" points="541.5,-0.5 541.5,-19.5 579.5,-19.5 579.5,-0.5 541.5,-0.5"/>
<text text-anchor="middle" x="560.5" y="-7.5" font-family="Helvetica,sans-Serif" font-size="10.00">span</text>
</a>
</g>
</g>
<!-- Node13&#45;&gt;Node15 -->
<g id="edge14" class="edge">
<title>Node13&#45;&gt;Node15</title>
<path fill="none" stroke="midnightblue" d="M517.11,-113.09C539.39,-106.88 563.03,-95.79 576.5,-76 586.17,-61.79 579.33,-42.31 571.83,-28.39"/>
<polygon fill="midnightblue" stroke="midnightblue" points="574.83,-26.59 566.72,-19.77 568.81,-30.16 574.83,-26.59"/>
</g>
<!-- Node16 -->
<g id="node16" class="node">
<title>Node16</title>
<g id="a_node16"><a xlink:title=" ">
<polygon fill="none" stroke="#bfbfbf" points="623.5,-56.5 623.5,-75.5 669.5,-75.5 669.5,-56.5 623.5,-56.5"/>
<text text-anchor="middle" x="646.5" y="-63.5" font-family="Helvetica,sans-Serif" font-size="10.00">variant</text>
</a>
</g>
</g>
<!-- Node13&#45;&gt;Node16 -->
<g id="edge15" class="edge">
<title>Node13&#45;&gt;Node16</title>
<path fill="none" stroke="midnightblue" d="M491.66,-112.44C524.86,-102.7 578.98,-86.82 613.65,-76.64"/>
<polygon fill="midnightblue" stroke="midnightblue" points="614.7,-79.98 623.31,-73.81 612.73,-73.26 614.7,-79.98"/>
</g>
<!-- Node13&#45;&gt;Node17 -->
<g id="edge18" class="edge">
<title>Node13&#45;&gt;Node17</title>
<path fill="none" stroke="midnightblue" d="M432.87,-112.44C401,-103.24 350.17,-88.56 314.94,-78.39"/>
<polygon fill="midnightblue" stroke="midnightblue" points="315.57,-74.93 304.99,-75.52 313.63,-81.65 315.57,-74.93"/>
</g>
<!-- Node17&#45;&gt;Node6 -->
<g id="edge21" class="edge">
<title>Node17&#45;&gt;Node6</title>
<path fill="none" stroke="midnightblue" d="M254.27,-56.44C232.12,-47.52 197.18,-33.44 172.06,-23.32"/>
<polygon fill="midnightblue" stroke="midnightblue" points="173.22,-20.01 162.63,-19.52 170.6,-26.5 173.22,-20.01"/>
</g>
<!-- Node17&#45;&gt;Node12 -->
<g id="edge25" class="edge">
<title>Node17&#45;&gt;Node12</title>
<path fill="none" stroke="midnightblue" d="M305.29,-56.44C338.74,-46.83 392.98,-31.26 428.45,-21.07"/>
<polygon fill="midnightblue" stroke="midnightblue" points="429.72,-24.35 438.36,-18.22 427.78,-17.62 429.72,-24.35"/>
</g>
<!-- Node17&#45;&gt;Node15 -->
<g id="edge23" class="edge">
<title>Node17&#45;&gt;Node15</title>
<path fill="none" stroke="midnightblue" d="M313.64,-57.77C371.4,-46.83 479.78,-26.29 531.54,-16.49"/>
<polygon fill="midnightblue" stroke="midnightblue" points="532.23,-19.92 541.4,-14.62 530.92,-13.04 532.23,-19.92"/>
</g>
<!-- Node18 -->
<g id="node18" class="node">
<title>Node18</title>
<g id="a_node18"><a xlink:title=" ">
<polygon fill="none" stroke="#bfbfbf" points="182.5,-0.5 182.5,-19.5 238.5,-19.5 238.5,-0.5 182.5,-0.5"/>
<text text-anchor="middle" x="210.5" y="-7.5" font-family="Helvetica,sans-Serif" font-size="10.00">algorithm</text>
</a>
</g>
</g>
<!-- Node17&#45;&gt;Node18 -->
<g id="edge19" class="edge">
<title>Node17&#45;&gt;Node18</title>
<path fill="none" stroke="midnightblue" d="M265.06,-56.32C255.35,-48.26 240.68,-36.08 229,-26.37"/>
<polygon fill="midnightblue" stroke="midnightblue" points="231.06,-23.53 221.13,-19.83 226.59,-28.92 231.06,-23.53"/>
</g>
<!-- Node19 -->
<g id="node19" class="node">
<title>Node19</title>
<g id="a_node19"><a xlink:title=" ">
<polygon fill="none" stroke="#bfbfbf" points="256.5,-0.5 256.5,-19.5 294.5,-19.5 294.5,-0.5 256.5,-0.5"/>
<text text-anchor="middle" x="275.5" y="-7.5" font-family="Helvetica,sans-Serif" font-size="10.00">array</text>
</a>
</g>
</g>
<!-- Node17&#45;&gt;Node19 -->
<g id="edge20" class="edge">
<title>Node17&#45;&gt;Node19</title>
<path fill="none" stroke="midnightblue" d="M275.5,-56.08C275.5,-49.01 275.5,-38.86 275.5,-29.99"/>
<polygon fill="midnightblue" stroke="midnightblue" points="279,-29.75 275.5,-19.75 272,-29.75 279,-29.75"/>
</g>
<!-- Node20 -->
<g id="node20" class="node">
<title>Node20</title>
<g id="a_node20"><a xlink:title=" ">
<polygon fill="none" stroke="#bfbfbf" points="312.5,-0.5 312.5,-19.5 358.5,-19.5 358.5,-0.5 312.5,-0.5"/>
<text text-anchor="middle" x="335.5" y="-7.5" font-family="Helvetica,sans-Serif" font-size="10.00">ranges</text>
</a>
</g>
</g>
<!-- Node17&#45;&gt;Node20 -->
<g id="edge22" class="edge">
<title>Node17&#45;&gt;Node20</title>
<path fill="none" stroke="midnightblue" d="M285.14,-56.32C294.01,-48.34 307.37,-36.31 318.11,-26.65"/>
<polygon fill="midnightblue" stroke="midnightblue" points="320.59,-29.13 325.68,-19.83 315.91,-23.92 320.59,-29.13"/>
</g>
<!-- Node21 -->
<g id="node21" class="node">
<title>Node21</title>
<g id="a_node21"><a xlink:title=" ">
<polygon fill="none" stroke="#bfbfbf" points="376.5,-0.5 376.5,-19.5 420.5,-19.5 420.5,-0.5 376.5,-0.5"/>
<text text-anchor="middle" x="398.5" y="-7.5" font-family="Helvetica,sans-Serif" font-size="10.00">vector</text>
</a>
</g>
</g>
<!-- Node17&#45;&gt;Node21 -->
<g id="edge24" class="edge">
<title>Node17&#45;&gt;Node21</title>
<path fill="none" stroke="midnightblue" d="M294.99,-56.44C315.14,-47.6 346.82,-33.69 369.83,-23.59"/>
<polygon fill="midnightblue" stroke="midnightblue" points="371.35,-26.74 379.1,-19.52 368.54,-20.33 371.35,-26.74"/>
</g>
</g>
</svg>
