<?xml version="1.0" encoding="UTF-8" standalone="no"?>
<!DOCTYPE svg PUBLIC "-//W3C//DTD SVG 1.1//EN"
 "http://www.w3.org/Graphics/SVG/1.1/DTD/svg11.dtd">
<!-- Generated by graphviz version 2.47.1 (20210515.0534)
 -->
<!-- Title: elphi/src/perf_cpu_sampler.cpp Pages: 1 -->
<svg width="1187pt" height="263pt"
 viewBox="0.00 0.00 1187.00 263.00" xmlns="http://www.w3.org/2000/svg" xmlns:xlink="http://www.w3.org/1999/xlink">
<g id="graph0" class="graph" transform="scale(1 1) rotate(0) translate(4 259)">
<title>elphi/src/perf_cpu_sampler.cpp</title>
<!-- Node1 -->
<g id="node1" class="node">
<title>Node1</title>
<g id="a_node1"><a xlink:title=" ">
<polygon fill="#bfbfbf" stroke="black" points="643,-224.5 643,-254.5 737,-254.5 737,-224.5 643,-224.5"/>
<text text-anchor="start" x="651" y="-242.5" font-family="Helvetica,sans-Serif" font-size="10.00">elphi/src/perf_cpu</text>
<text text-anchor="middle" x="690" y="-231.5" font-family="Helvetica,sans-Serif" font-size="10.00">_sampler.cpp</text>
</a>
</g>
</g>
<!-- Node2 -->
<g id="node2" class="node">
<title>Node2</title>
<g id="a_node2"><a xlink:title=" ">
<polygon fill="none" stroke="#bfbfbf" points="202.5,-168.5 202.5,-187.5 251.5,-187.5 251.5,-168.5 202.5,-168.5"/>
<text text-anchor="middle" x="227" y="-175.5" font-family="Helvetica,sans-Serif" font-size="10.00">cassert</text>
</a>
</g>
</g>
<!-- Node1&#45;&gt;Node2 -->
<g id="edge1" class="edge">
<title>Node1&#45;&gt;Node2</title>
<path fill="none" stroke="midnightblue" d="M642.7,-234.55C564.11,-227.61 401.83,-211.69 266,-188 264.55,-187.75 263.06,-187.47 261.57,-187.18"/>
<polygon fill="midnightblue" stroke="midnightblue" points="262.18,-183.74 251.68,-185.12 260.75,-190.59 262.18,-183.74"/>
</g>
<!-- Node3 -->
<g id="node3" class="node">
<title>Node3</title>
<g id="a_node3"><a xlink:title=" ">
<polygon fill="none" stroke="#bfbfbf" points="0,-56.5 0,-75.5 46,-75.5 46,-56.5 0,-56.5"/>
<text text-anchor="middle" x="23" y="-63.5" font-family="Helvetica,sans-Serif" font-size="10.00">chrono</text>
</a>
</g>
</g>
<!-- Node1&#45;&gt;Node3 -->
<g id="edge2" class="edge">
<title>Node1&#45;&gt;Node3</title>
<path fill="none" stroke="midnightblue" d="M642.92,-234.87C575.74,-228.96 448.92,-215.09 344,-188 232.17,-159.12 105.56,-104.56 50.74,-79.8"/>
<polygon fill="midnightblue" stroke="midnightblue" points="51.91,-76.49 41.36,-75.53 49.01,-82.86 51.91,-76.49"/>
</g>
<!-- Node4 -->
<g id="node4" class="node">
<title>Node4</title>
<g id="a_node4"><a xlink:title=" ">
<polygon fill="none" stroke="#bfbfbf" points="353,-168.5 353,-187.5 397,-187.5 397,-168.5 353,-168.5"/>
<text text-anchor="middle" x="375" y="-175.5" font-family="Helvetica,sans-Serif" font-size="10.00">thread</text>
</a>
</g>
</g>
<!-- Node1&#45;&gt;Node4 -->
<g id="edge3" class="edge">
<title>Node1&#45;&gt;Node4</title>
<path fill="none" stroke="midnightblue" d="M642.65,-231.5C588.25,-223.13 496.17,-207.99 407.29,-187.86"/>
<polygon fill="midnightblue" stroke="midnightblue" points="407.84,-184.39 397.31,-185.57 406.27,-191.22 407.84,-184.39"/>
</g>
<!-- Node5 -->
<g id="node5" class="node">
<title>Node5</title>
<g id="a_node5"><a xlink:title=" ">
<polygon fill="none" stroke="#bfbfbf" points="415.5,-168.5 415.5,-187.5 484.5,-187.5 484.5,-168.5 415.5,-168.5"/>
<text text-anchor="middle" x="450" y="-175.5" font-family="Helvetica,sans-Serif" font-size="10.00">fmt/format.h</text>
</a>
</g>
</g>
<!-- Node1&#45;&gt;Node5 -->
<g id="edge4" class="edge">
<title>Node1&#45;&gt;Node5</title>
<path fill="none" stroke="midnightblue" d="M642.87,-226.82C599.77,-216.13 536.5,-200.44 494.31,-189.99"/>
<polygon fill="midnightblue" stroke="midnightblue" points="495.14,-186.59 484.59,-187.58 493.46,-193.38 495.14,-186.59"/>
</g>
<!-- Node6 -->
<g id="node6" class="node">
<title>Node6</title>
<g id="a_node6"><a xlink:title=" ">
<polygon fill="none" stroke="#bfbfbf" points="846,-56.5 846,-75.5 938,-75.5 938,-56.5 846,-56.5"/>
<text text-anchor="middle" x="892" y="-63.5" font-family="Helvetica,sans-Serif" font-size="10.00">linux/perf_event.h</text>
</a>
</g>
</g>
<!-- Node1&#45;&gt;Node6 -->
<g id="edge5" class="edge">
<title>Node1&#45;&gt;Node6</title>
<path fill="none" stroke="midnightblue" d="M737.04,-228.57C763.96,-221.02 797.03,-208.35 821,-188 854.45,-159.59 875.98,-111.24 885.81,-85.08"/>
<polygon fill="midnightblue" stroke="midnightblue" points="889.11,-86.24 889.2,-75.65 882.52,-83.87 889.11,-86.24"/>
</g>
<!-- Node7 -->
<g id="node7" class="node">
<title>Node7</title>
<g id="a_node7"><a xlink:title=" ">
<polygon fill="none" stroke="#bfbfbf" points="655.5,-168.5 655.5,-187.5 724.5,-187.5 724.5,-168.5 655.5,-168.5"/>
<text text-anchor="middle" x="690" y="-175.5" font-family="Helvetica,sans-Serif" font-size="10.00">sys/mman.h</text>
</a>
</g>
</g>
<!-- Node1&#45;&gt;Node7 -->
<g id="edge6" class="edge">
<title>Node1&#45;&gt;Node7</title>
<path fill="none" stroke="midnightblue" d="M690,-224.4C690,-216.47 690,-206.46 690,-197.86"/>
<polygon fill="midnightblue" stroke="midnightblue" points="693.5,-197.66 690,-187.66 686.5,-197.66 693.5,-197.66"/>
</g>
<!-- Node8 -->
<g id="node8" class="node">
<title>Node8</title>
<g id="a_node8"><a xlink:title=" ">
<polygon fill="none" stroke="#bfbfbf" points="743,-168.5 743,-187.5 797,-187.5 797,-168.5 743,-168.5"/>
<text text-anchor="middle" x="770" y="-175.5" font-family="Helvetica,sans-Serif" font-size="10.00">syscall.h</text>
</a>
</g>
</g>
<!-- Node1&#45;&gt;Node8 -->
<g id="edge7" class="edge">
<title>Node1&#45;&gt;Node8</title>
<path fill="none" stroke="midnightblue" d="M708.96,-224.4C721.42,-215.13 737.7,-203.03 750.31,-193.65"/>
<polygon fill="midnightblue" stroke="midnightblue" points="752.42,-196.43 758.36,-187.66 748.25,-190.82 752.42,-196.43"/>
</g>
<!-- Node9 -->
<g id="node9" class="node">
<title>Node9</title>
<g id="a_node9"><a xlink:title=" ">
<polygon fill="none" stroke="#bfbfbf" points="871,-0.5 871,-19.5 921,-19.5 921,-0.5 871,-0.5"/>
<text text-anchor="middle" x="896" y="-7.5" font-family="Helvetica,sans-Serif" font-size="10.00">unistd.h</text>
</a>
</g>
</g>
<!-- Node1&#45;&gt;Node9 -->
<g id="edge8" class="edge">
<title>Node1&#45;&gt;Node9</title>
<path fill="none" stroke="midnightblue" d="M737.19,-229.6C769.15,-222.05 811.35,-209.02 844,-188 900.86,-151.39 922.43,-139.01 947,-76 950.23,-67.72 950.66,-64.1 947,-56 941.38,-43.56 930.44,-33.17 920.12,-25.53"/>
<polygon fill="midnightblue" stroke="midnightblue" points="921.96,-22.54 911.73,-19.76 917.99,-28.31 921.96,-22.54"/>
</g>
<!-- Node10 -->
<g id="node10" class="node">
<title>Node10</title>
<g id="a_node10"><a xlink:href="perf__cpu__sampler_8hpp.html" target="_top" xlink:title=" ">
<polygon fill="none" stroke="black" points="502.5,-168.5 502.5,-187.5 637.5,-187.5 637.5,-168.5 502.5,-168.5"/>
<text text-anchor="middle" x="570" y="-175.5" font-family="Helvetica,sans-Serif" font-size="10.00">elphi/perf_cpu_sampler.hpp</text>
</a>
</g>
</g>
<!-- Node1&#45;&gt;Node10 -->
<g id="edge9" class="edge">
<title>Node1&#45;&gt;Node10</title>
<path fill="none" stroke="midnightblue" d="M661.56,-224.4C641.88,-214.64 615.86,-201.74 596.59,-192.18"/>
<polygon fill="midnightblue" stroke="midnightblue" points="597.98,-188.96 587.46,-187.66 594.87,-195.24 597.98,-188.96"/>
</g>
<!-- Node14 -->
<g id="node14" class="node">
<title>Node14</title>
<g id="a_node14"><a xlink:href="perf__events_8hpp.html" target="_top" xlink:title=" ">
<polygon fill="none" stroke="black" points="682.5,-112.5 682.5,-131.5 791.5,-131.5 791.5,-112.5 682.5,-112.5"/>
<text text-anchor="middle" x="737" y="-119.5" font-family="Helvetica,sans-Serif" font-size="10.00">elphi/perf_events.hpp</text>
</a>
</g>
</g>
<!-- Node1&#45;&gt;Node14 -->
<g id="edge37" class="edge">
<title>Node1&#45;&gt;Node14</title>
<path fill="none" stroke="midnightblue" d="M737.03,-230.73C762.04,-223.94 790.71,-211.33 806,-188 819.78,-166.98 792.56,-147.9 768.35,-135.94"/>
<polygon fill="midnightblue" stroke="midnightblue" points="769.52,-132.62 758.98,-131.56 766.56,-138.96 769.52,-132.62"/>
</g>
<!-- Node18 -->
<g id="node18" class="node">
<title>Node18</title>
<g id="a_node18"><a xlink:href="utils_8hpp.html" target="_top" xlink:title=" ">
<polygon fill="none" stroke="black" points="994,-56.5 994,-75.5 1070,-75.5 1070,-56.5 994,-56.5"/>
<text text-anchor="middle" x="1032" y="-63.5" font-family="Helvetica,sans-Serif" font-size="10.00">elphi/utils.hpp</text>
</a>
</g>
</g>
<!-- Node1&#45;&gt;Node18 -->
<g id="edge38" class="edge">
<title>Node1&#45;&gt;Node18</title>
<path fill="none" stroke="midnightblue" d="M737.16,-235.68C809.43,-230.48 943.11,-217.15 980,-188 1012.34,-162.45 1024.92,-112.89 1029.53,-85.8"/>
<polygon fill="midnightblue" stroke="midnightblue" points="1033.02,-86.11 1031.05,-75.7 1026.1,-85.07 1033.02,-86.11"/>
</g>
<!-- Node11 -->
<g id="node11" class="node">
<title>Node11</title>
<g id="a_node11"><a xlink:title=" ">
<polygon fill="none" stroke="#bfbfbf" points="589.5,-112.5 589.5,-131.5 628.5,-131.5 628.5,-112.5 589.5,-112.5"/>
<text text-anchor="middle" x="609" y="-119.5" font-family="Helvetica,sans-Serif" font-size="10.00">poll.h</text>
</a>
</g>
</g>
<!-- Node10&#45;&gt;Node11 -->
<g id="edge10" class="edge">
<title>Node10&#45;&gt;Node11</title>
<path fill="none" stroke="midnightblue" d="M576.44,-168.08C581.95,-160.46 590.03,-149.26 596.76,-139.94"/>
<polygon fill="midnightblue" stroke="midnightblue" points="599.66,-141.91 602.68,-131.75 593.99,-137.81 599.66,-141.91"/>
</g>
<!-- Node12 -->
<g id="node12" class="node">
<title>Node12</title>
<g id="a_node12"><a xlink:href="file__descriptor_8hpp.html" target="_top" xlink:title=" ">
<polygon fill="none" stroke="black" points="502,-56.5 502,-75.5 620,-75.5 620,-56.5 502,-56.5"/>
<text text-anchor="middle" x="561" y="-63.5" font-family="Helvetica,sans-Serif" font-size="10.00">elphi/file_descriptor.hpp</text>
</a>
</g>
</g>
<!-- Node10&#45;&gt;Node12 -->
<g id="edge11" class="edge">
<title>Node10&#45;&gt;Node12</title>
<path fill="none" stroke="midnightblue" d="M569.29,-168.37C567.84,-150.62 564.49,-109.67 562.52,-85.6"/>
<polygon fill="midnightblue" stroke="midnightblue" points="566.01,-85.27 561.7,-75.59 559.03,-85.84 566.01,-85.27"/>
</g>
<!-- Node10&#45;&gt;Node14 -->
<g id="edge13" class="edge">
<title>Node10&#45;&gt;Node14</title>
<path fill="none" stroke="midnightblue" d="M596.46,-168.44C624.68,-159.32 669.54,-144.81 700.97,-134.65"/>
<polygon fill="midnightblue" stroke="midnightblue" points="702.22,-137.92 710.66,-131.52 700.07,-131.26 702.22,-137.92"/>
</g>
<!-- Node24 -->
<g id="node24" class="node">
<title>Node24</title>
<g id="a_node24"><a xlink:href="sampler_8hpp.html" target="_top" xlink:title=" ">
<polygon fill="none" stroke="black" points="308,-112.5 308,-131.5 400,-131.5 400,-112.5 308,-112.5"/>
<text text-anchor="middle" x="354" y="-119.5" font-family="Helvetica,sans-Serif" font-size="10.00">elphi/sampler.hpp</text>
</a>
</g>
</g>
<!-- Node10&#45;&gt;Node24 -->
<g id="edge28" class="edge">
<title>Node10&#45;&gt;Node24</title>
<path fill="none" stroke="midnightblue" d="M535.77,-168.44C498.49,-159.12 438.73,-144.18 397.99,-134"/>
<polygon fill="midnightblue" stroke="midnightblue" points="398.62,-130.55 388.07,-131.52 396.92,-137.34 398.62,-130.55"/>
</g>
<!-- Node13 -->
<g id="node13" class="node">
<title>Node13</title>
<g id="a_node13"><a xlink:title=" ">
<polygon fill="none" stroke="#bfbfbf" points="329,-0.5 329,-19.5 375,-19.5 375,-0.5 329,-0.5"/>
<text text-anchor="middle" x="352" y="-7.5" font-family="Helvetica,sans-Serif" font-size="10.00">cstdint</text>
</a>
</g>
</g>
<!-- Node12&#45;&gt;Node13 -->
<g id="edge12" class="edge">
<title>Node12&#45;&gt;Node13</title>
<path fill="none" stroke="midnightblue" d="M527.88,-56.44C488.79,-46.34 424.16,-29.64 385.08,-19.55"/>
<polygon fill="midnightblue" stroke="midnightblue" points="385.81,-16.12 375.25,-17.01 384.06,-22.9 385.81,-16.12"/>
</g>
<!-- Node14&#45;&gt;Node6 -->
<g id="edge17" class="edge">
<title>Node14&#45;&gt;Node6</title>
<path fill="none" stroke="midnightblue" d="M761.56,-112.44C787.52,-103.4 828.67,-89.06 857.8,-78.92"/>
<polygon fill="midnightblue" stroke="midnightblue" points="859.26,-82.11 867.55,-75.52 856.96,-75.5 859.26,-82.11"/>
</g>
<!-- Node14&#45;&gt;Node9 -->
<g id="edge18" class="edge">
<title>Node14&#45;&gt;Node9</title>
<path fill="none" stroke="midnightblue" d="M726.96,-112.35C712.96,-99.23 690.79,-73.95 705,-56 724.05,-31.94 810.91,-19.45 860.68,-14.17"/>
<polygon fill="midnightblue" stroke="midnightblue" points="861.1,-17.65 870.7,-13.15 860.4,-10.68 861.1,-17.65"/>
</g>
<!-- Node14&#45;&gt;Node12 -->
<g id="edge19" class="edge">
<title>Node14&#45;&gt;Node12</title>
<path fill="none" stroke="midnightblue" d="M709.11,-112.44C679.25,-103.28 631.69,-88.69 598.54,-78.52"/>
<polygon fill="midnightblue" stroke="midnightblue" points="599.34,-75.1 588.76,-75.52 597.29,-81.8 599.34,-75.1"/>
</g>
<!-- Node15 -->
<g id="node15" class="node">
<title>Node15</title>
<g id="a_node15"><a xlink:title=" ">
<polygon fill="none" stroke="#bfbfbf" points="778,-56.5 778,-75.5 828,-75.5 828,-56.5 778,-56.5"/>
<text text-anchor="middle" x="803" y="-63.5" font-family="Helvetica,sans-Serif" font-size="10.00">optional</text>
</a>
</g>
</g>
<!-- Node14&#45;&gt;Node15 -->
<g id="edge14" class="edge">
<title>Node14&#45;&gt;Node15</title>
<path fill="none" stroke="midnightblue" d="M747.6,-112.32C757.46,-104.26 772.35,-92.08 784.22,-82.37"/>
<polygon fill="midnightblue" stroke="midnightblue" points="786.68,-84.88 792.2,-75.83 782.25,-79.46 786.68,-84.88"/>
</g>
<!-- Node16 -->
<g id="node16" class="node">
<title>Node16</title>
<g id="a_node16"><a xlink:title=" ">
<polygon fill="none" stroke="#bfbfbf" points="722,-0.5 722,-19.5 760,-19.5 760,-0.5 722,-0.5"/>
<text text-anchor="middle" x="741" y="-7.5" font-family="Helvetica,sans-Serif" font-size="10.00">span</text>
</a>
</g>
</g>
<!-- Node14&#45;&gt;Node16 -->
<g id="edge15" class="edge">
<title>Node14&#45;&gt;Node16</title>
<path fill="none" stroke="midnightblue" d="M716.37,-112.39C692.76,-101.18 658.93,-80.14 672,-56 680.61,-40.11 697.52,-28.95 712.45,-21.71"/>
<polygon fill="midnightblue" stroke="midnightblue" points="714.15,-24.78 721.86,-17.52 711.3,-18.39 714.15,-24.78"/>
</g>
<!-- Node17 -->
<g id="node17" class="node">
<title>Node17</title>
<g id="a_node17"><a xlink:title=" ">
<polygon fill="none" stroke="#bfbfbf" points="714,-56.5 714,-75.5 760,-75.5 760,-56.5 714,-56.5"/>
<text text-anchor="middle" x="737" y="-63.5" font-family="Helvetica,sans-Serif" font-size="10.00">variant</text>
</a>
</g>
</g>
<!-- Node14&#45;&gt;Node17 -->
<g id="edge16" class="edge">
<title>Node14&#45;&gt;Node17</title>
<path fill="none" stroke="midnightblue" d="M737,-112.08C737,-105.01 737,-94.86 737,-85.99"/>
<polygon fill="midnightblue" stroke="midnightblue" points="740.5,-85.75 737,-75.75 733.5,-85.75 740.5,-85.75"/>
</g>
<!-- Node14&#45;&gt;Node18 -->
<g id="edge20" class="edge">
<title>Node14&#45;&gt;Node18</title>
<path fill="none" stroke="midnightblue" d="M783.74,-112.44C838.5,-102.42 928.74,-85.9 984.02,-75.78"/>
<polygon fill="midnightblue" stroke="midnightblue" points="984.71,-79.21 993.92,-73.97 983.45,-72.33 984.71,-79.21"/>
</g>
<!-- Node18&#45;&gt;Node9 -->
<g id="edge27" class="edge">
<title>Node18&#45;&gt;Node9</title>
<path fill="none" stroke="midnightblue" d="M1010.45,-56.44C987.97,-47.52 952.51,-33.44 927.02,-23.32"/>
<polygon fill="midnightblue" stroke="midnightblue" points="928.03,-19.95 917.45,-19.52 925.45,-26.46 928.03,-19.95"/>
</g>
<!-- Node18&#45;&gt;Node16 -->
<g id="edge25" class="edge">
<title>Node18&#45;&gt;Node16</title>
<path fill="none" stroke="midnightblue" d="M993.96,-57.94C935.15,-47.03 823.44,-26.3 770.38,-16.45"/>
<polygon fill="midnightblue" stroke="midnightblue" points="770.76,-12.96 760.29,-14.58 769.48,-19.85 770.76,-12.96"/>
</g>
<!-- Node19 -->
<g id="node19" class="node">
<title>Node19</title>
<g id="a_node19"><a xlink:title=" ">
<polygon fill="none" stroke="#bfbfbf" points="939,-0.5 939,-19.5 995,-19.5 995,-0.5 939,-0.5"/>
<text text-anchor="middle" x="967" y="-7.5" font-family="Helvetica,sans-Serif" font-size="10.00">algorithm</text>
</a>
</g>
</g>
<!-- Node18&#45;&gt;Node19 -->
<g id="edge21" class="edge">
<title>Node18&#45;&gt;Node19</title>
<path fill="none" stroke="midnightblue" d="M1021.56,-56.32C1011.85,-48.26 997.18,-36.08 985.5,-26.37"/>
<polygon fill="midnightblue" stroke="midnightblue" points="987.56,-23.53 977.63,-19.83 983.09,-28.92 987.56,-23.53"/>
</g>
<!-- Node20 -->
<g id="node20" class="node">
<title>Node20</title>
<g id="a_node20"><a xlink:title=" ">
<polygon fill="none" stroke="#bfbfbf" points="1013,-0.5 1013,-19.5 1051,-19.5 1051,-0.5 1013,-0.5"/>
<text text-anchor="middle" x="1032" y="-7.5" font-family="Helvetica,sans-Serif" font-size="10.00">array</text>
</a>
</g>
</g>
<!-- Node18&#45;&gt;Node20 -->
<g id="edge22" class="edge">
<title>Node18&#45;&gt;Node20</title>
<path fill="none" stroke="midnightblue" d="M1032,-56.08C1032,-49.01 1032,-38.86 1032,-29.99"/>
<polygon fill="midnightblue" stroke="midnightblue" points="1035.5,-29.75 1032,-19.75 1028.5,-29.75 1035.5,-29.75"/>
</g>
<!-- Node21 -->
<g id="node21" class="node">
<title>Node21</title>
<g id="a_node21"><a xlink:title=" ">
<polygon fill="none" stroke="#bfbfbf" points="1069,-0.5 1069,-19.5 1115,-19.5 1115,-0.5 1069,-0.5"/>
<text text-anchor="middle" x="1092" y="-7.5" font-family="Helvetica,sans-Serif" font-size="10.00">cstring</text>
</a>
</g>
</g>
<!-- Node18&#45;&gt;Node21 -->
<g id="edge23" class="edge">
<title>Node18&#45;&gt;Node21</title>
<path fill="none" stroke="midnightblue" d="M1041.64,-56.32C1050.51,-48.34 1063.87,-36.31 1074.61,-26.65"/>
<polygon fill="midnightblue" stroke="midnightblue" points="1077.09,-29.13 1082.18,-19.83 1072.41,-23.92 1077.09,-29.13"/>
</g>
<!-- Node22 -->
<g id="node22" class="node">
<title>Node22</title>
<g id="a_node22"><a xlink:title=" ">
<polygon fill="none" stroke="#bfbfbf" points="1133,-0.5 1133,-19.5 1179,-19.5 1179,-0.5 1133,-0.5"/>
<text text-anchor="middle" x="1156" y="-7.5" font-family="Helvetica,sans-Serif" font-size="10.00">ranges</text>
</a>
</g>
</g>
<!-- Node18&#45;&gt;Node22 -->
<g id="edge24" class="edge">
<title>Node18&#45;&gt;Node22</title>
<path fill="none" stroke="midnightblue" d="M1051.65,-56.44C1071.96,-47.6 1103.9,-33.69 1127.1,-23.59"/>
<polygon fill="midnightblue" stroke="midnightblue" points="1128.67,-26.72 1136.44,-19.52 1125.88,-20.3 1128.67,-26.72"/>
</g>
<!-- Node23 -->
<g id="node23" class="node">
<title>Node23</title>
<g id="a_node23"><a xlink:title=" ">
<polygon fill="none" stroke="#bfbfbf" points="556,-0.5 556,-19.5 600,-19.5 600,-0.5 556,-0.5"/>
<text text-anchor="middle" x="578" y="-7.5" font-family="Helvetica,sans-Serif" font-size="10.00">vector</text>
</a>
</g>
</g>
<!-- Node18&#45;&gt;Node23 -->
<g id="edge26" class="edge">
<title>Node18&#45;&gt;Node23</title>
<path fill="none" stroke="midnightblue" d="M993.68,-60.44C906.02,-50.02 692.11,-24.57 610.43,-14.86"/>
<polygon fill="midnightblue" stroke="midnightblue" points="610.6,-11.35 600.25,-13.65 609.77,-18.3 610.6,-11.35"/>
</g>
<!-- Node24&#45;&gt;Node3 -->
<g id="edge29" class="edge">
<title>Node24&#45;&gt;Node3</title>
<path fill="none" stroke="midnightblue" d="M307.9,-114.08C234.34,-103.04 95.34,-82.16 56.29,-75.7"/>
<polygon fill="midnightblue" stroke="midnightblue" points="56.79,-72.23 46.33,-73.93 55.57,-79.12 56.79,-72.23"/>
</g>
<!-- Node24&#45;&gt;Node13 -->
<g id="edge30" class="edge">
<title>Node24&#45;&gt;Node13</title>
<path fill="none" stroke="midnightblue" d="M342.46,-112.49C332.52,-104.38 318.88,-91.18 313,-76 306.01,-57.94 319.93,-39.17 333.04,-26.47"/>
<polygon fill="midnightblue" stroke="midnightblue" points="335.42,-29.04 340.5,-19.75 330.73,-23.84 335.42,-29.04"/>
</g>
<!-- Node24&#45;&gt;Node23 -->
<g id="edge34" class="edge">
<title>Node24&#45;&gt;Node23</title>
<path fill="none" stroke="midnightblue" d="M374.3,-112.43C394.83,-103.65 427.38,-89.43 455,-76 457.44,-74.81 517.31,-43.13 552.6,-24.45"/>
<polygon fill="midnightblue" stroke="midnightblue" points="554.64,-27.33 561.84,-19.56 551.36,-21.14 554.64,-27.33"/>
</g>
<!-- Node25 -->
<g id="node25" class="node">
<title>Node25</title>
<g id="a_node25"><a xlink:title=" ">
<polygon fill="none" stroke="#bfbfbf" points="321.5,-56.5 321.5,-75.5 386.5,-75.5 386.5,-56.5 321.5,-56.5"/>
<text text-anchor="middle" x="354" y="-63.5" font-family="Helvetica,sans-Serif" font-size="10.00">stop_token</text>
</a>
</g>
</g>
<!-- Node24&#45;&gt;Node25 -->
<g id="edge31" class="edge">
<title>Node24&#45;&gt;Node25</title>
<path fill="none" stroke="midnightblue" d="M354,-112.08C354,-105.01 354,-94.86 354,-85.99"/>
<polygon fill="midnightblue" stroke="midnightblue" points="357.5,-85.75 354,-75.75 350.5,-85.75 357.5,-85.75"/>
</g>
<!-- Node26 -->
<g id="node26" class="node">
<title>Node26</title>
<g id="a_node26"><a xlink:title=" ">
<polygon fill="none" stroke="#bfbfbf" points="404.5,-56.5 404.5,-75.5 445.5,-75.5 445.5,-56.5 404.5,-56.5"/>
<text text-anchor="middle" x="425" y="-63.5" font-family="Helvetica,sans-Serif" font-size="10.00">string</text>
</a>
</g>
</g>
<!-- Node24&#45;&gt;Node26 -->
<g id="edge32" class="edge">
<title>Node24&#45;&gt;Node26</title>
<path fill="none" stroke="midnightblue" d="M365.41,-112.32C376.11,-104.18 392.34,-91.84 405.16,-82.09"/>
<polygon fill="midnightblue" stroke="midnightblue" points="407.54,-84.67 413.39,-75.83 403.31,-79.1 407.54,-84.67"/>
</g>
<!-- Node27 -->
<g id="node27" class="node">
<title>Node27</title>
<g id="a_node27"><a xlink:title=" ">
<polygon fill="none" stroke="#bfbfbf" points="64.5,-56.5 64.5,-75.5 147.5,-75.5 147.5,-56.5 64.5,-56.5"/>
<text text-anchor="middle" x="106" y="-63.5" font-family="Helvetica,sans-Serif" font-size="10.00">unordered_map</text>
</a>
</g>
</g>
<!-- Node24&#45;&gt;Node27 -->
<g id="edge33" class="edge">
<title>Node24&#45;&gt;Node27</title>
<path fill="none" stroke="midnightblue" d="M314.7,-112.44C271.44,-103.02 201.83,-87.87 155.03,-77.68"/>
<polygon fill="midnightblue" stroke="midnightblue" points="155.63,-74.22 145.11,-75.52 154.14,-81.06 155.63,-74.22"/>
</g>
<!-- Node28 -->
<g id="node28" class="node">
<title>Node28</title>
<g id="a_node28"><a xlink:href="exception_8hpp.html" target="_top" xlink:title=" ">
<polygon fill="none" stroke="black" points="165.5,-56.5 165.5,-75.5 264.5,-75.5 264.5,-56.5 165.5,-56.5"/>
<text text-anchor="middle" x="215" y="-63.5" font-family="Helvetica,sans-Serif" font-size="10.00">elphi/exception.hpp</text>
</a>
</g>
</g>
<!-- Node24&#45;&gt;Node28 -->
<g id="edge35" class="edge">
<title>Node24&#45;&gt;Node28</title>
<path fill="none" stroke="midnightblue" d="M331.98,-112.44C308.9,-103.48 272.44,-89.31 246.36,-79.18"/>
<polygon fill="midnightblue" stroke="midnightblue" points="247.51,-75.88 236.92,-75.52 244.98,-82.4 247.51,-75.88"/>
</g>
<!-- Node29 -->
<g id="node29" class="node">
<title>Node29</title>
<g id="a_node29"><a xlink:title=" ">
<polygon fill="none" stroke="#bfbfbf" points="185.5,-0.5 185.5,-19.5 244.5,-19.5 244.5,-0.5 185.5,-0.5"/>
<text text-anchor="middle" x="215" y="-7.5" font-family="Helvetica,sans-Serif" font-size="10.00">stdexcept</text>
</a>
</g>
</g>
<!-- Node28&#45;&gt;Node29 -->
<g id="edge36" class="edge">
<title>Node28&#45;&gt;Node29</title>
<path fill="none" stroke="midnightblue" d="M215,-56.08C215,-49.01 215,-38.86 215,-29.99"/>
<polygon fill="midnightblue" stroke="midnightblue" points="218.5,-29.75 215,-19.75 211.5,-29.75 218.5,-29.75"/>
</g>
</g>
</svg>
