<?xml version="1.0" encoding="UTF-8" standalone="no"?>
<!DOCTYPE svg PUBLIC "-//W3C//DTD SVG 1.1//EN"
 "http://www.w3.org/Graphics/SVG/1.1/DTD/svg11.dtd">
<!-- Generated by graphviz version 2.47.1 (20210515.0534)
 -->
<!-- Title: elphi/src/perf_cpu_sampler.cpp Pages: 1 -->
<svg width="1210pt" height="263pt"
 viewBox="0.00 0.00 1210.00 263.00" xmlns="http://www.w3.org/2000/svg" xmlns:xlink="http://www.w3.org/1999/xlink">
<g id="graph0" class="graph" transform="scale(1 1) rotate(0) translate(4 259)">
<title>elphi/src/perf_cpu_sampler.cpp</title>
<!-- Node1 -->
<g id="node1" class="node">
<title>Node1</title>
<g id="a_node1"><a xlink:title=" ">
<polygon fill="#bfbfbf" stroke="black" points="798,-224.5 798,-254.5 892,-254.5 892,-224.5 798,-224.5"/>
<text text-anchor="start" x="806" y="-242.5" font-family="Helvetica,sans-Serif" font-size="10.00">elphi/src/perf_cpu</text>
<text text-anchor="middle" x="845" y="-231.5" font-family="Helvetica,sans-Serif" font-size="10.00">_sampler.cpp</text>
</a>
</g>
</g>
<!-- Node2 -->
<g id="node2" class="node">
<title>Node2</title>
<g id="a_node2"><a xlink:title=" ">
<polygon fill="none" stroke="#bfbfbf" points="200.5,-168.5 200.5,-187.5 249.5,-187.5 249.5,-168.5 200.5,-168.5"/>
<text text-anchor="middle" x="225" y="-175.5" font-family="Helvetica,sans-Serif" font-size="10.00">cassert</text>
</a>
</g>
</g>
<!-- Node1&#45;&gt;Node2 -->
<g id="edge1" class="edge">
<title>Node1&#45;&gt;Node2</title>
<path fill="none" stroke="midnightblue" d="M797.66,-236.63C698.26,-232.22 460.76,-219.1 264,-188 262.54,-187.77 261.06,-187.52 259.56,-187.24"/>
<polygon fill="midnightblue" stroke="midnightblue" points="260.15,-183.79 249.66,-185.24 258.76,-190.65 260.15,-183.79"/>
</g>
<!-- Node3 -->
<g id="node3" class="node">
<title>Node3</title>
<g id="a_node3"><a xlink:title=" ">
<polygon fill="none" stroke="#bfbfbf" points="0,-56.5 0,-75.5 46,-75.5 46,-56.5 0,-56.5"/>
<text text-anchor="middle" x="23" y="-63.5" font-family="Helvetica,sans-Serif" font-size="10.00">chrono</text>
</a>
</g>
</g>
<!-- Node1&#45;&gt;Node3 -->
<g id="edge2" class="edge">
<title>Node1&#45;&gt;Node3</title>
<path fill="none" stroke="midnightblue" d="M797.86,-234.29C725.7,-227.39 583.73,-211.99 465,-188 309.71,-156.62 128.57,-100.84 55.75,-77.61"/>
<polygon fill="midnightblue" stroke="midnightblue" points="56.8,-74.27 46.21,-74.56 54.67,-80.94 56.8,-74.27"/>
</g>
<!-- Node4 -->
<g id="node4" class="node">
<title>Node4</title>
<g id="a_node4"><a xlink:title=" ">
<polygon fill="none" stroke="#bfbfbf" points="911,-168.5 911,-187.5 955,-187.5 955,-168.5 911,-168.5"/>
<text text-anchor="middle" x="933" y="-175.5" font-family="Helvetica,sans-Serif" font-size="10.00">thread</text>
</a>
</g>
</g>
<!-- Node1&#45;&gt;Node4 -->
<g id="edge3" class="edge">
<title>Node1&#45;&gt;Node4</title>
<path fill="none" stroke="midnightblue" d="M865.85,-224.4C879.7,-215.04 897.81,-202.79 911.74,-193.38"/>
<polygon fill="midnightblue" stroke="midnightblue" points="913.87,-196.16 920.2,-187.66 909.95,-190.36 913.87,-196.16"/>
</g>
<!-- Node5 -->
<g id="node5" class="node">
<title>Node5</title>
<g id="a_node5"><a xlink:title=" ">
<polygon fill="none" stroke="#bfbfbf" points="973.5,-168.5 973.5,-187.5 1042.5,-187.5 1042.5,-168.5 973.5,-168.5"/>
<text text-anchor="middle" x="1008" y="-175.5" font-family="Helvetica,sans-Serif" font-size="10.00">fmt/format.h</text>
</a>
</g>
</g>
<!-- Node1&#45;&gt;Node5 -->
<g id="edge4" class="edge">
<title>Node1&#45;&gt;Node5</title>
<path fill="none" stroke="midnightblue" d="M883.63,-224.4C911.34,-214.28 948.31,-200.79 974.72,-191.15"/>
<polygon fill="midnightblue" stroke="midnightblue" points="976.09,-194.37 984.28,-187.66 973.69,-187.8 976.09,-194.37"/>
</g>
<!-- Node6 -->
<g id="node6" class="node">
<title>Node6</title>
<g id="a_node6"><a xlink:title=" ">
<polygon fill="none" stroke="#bfbfbf" points="528,-56.5 528,-75.5 620,-75.5 620,-56.5 528,-56.5"/>
<text text-anchor="middle" x="574" y="-63.5" font-family="Helvetica,sans-Serif" font-size="10.00">linux/perf_event.h</text>
</a>
</g>
</g>
<!-- Node1&#45;&gt;Node6 -->
<g id="edge5" class="edge">
<title>Node1&#45;&gt;Node6</title>
<path fill="none" stroke="midnightblue" d="M822.82,-224.47C771.89,-192.23 647.02,-113.21 596.13,-81.01"/>
<polygon fill="midnightblue" stroke="midnightblue" points="597.85,-77.95 587.53,-75.56 594.1,-83.86 597.85,-77.95"/>
</g>
<!-- Node7 -->
<g id="node7" class="node">
<title>Node7</title>
<g id="a_node7"><a xlink:title=" ">
<polygon fill="none" stroke="#bfbfbf" points="1060.5,-168.5 1060.5,-187.5 1129.5,-187.5 1129.5,-168.5 1060.5,-168.5"/>
<text text-anchor="middle" x="1095" y="-175.5" font-family="Helvetica,sans-Serif" font-size="10.00">sys/mman.h</text>
</a>
</g>
</g>
<!-- Node1&#45;&gt;Node7 -->
<g id="edge6" class="edge">
<title>Node1&#45;&gt;Node7</title>
<path fill="none" stroke="midnightblue" d="M892.02,-227.31C937.43,-216.5 1005.68,-200.26 1050.29,-189.64"/>
<polygon fill="midnightblue" stroke="midnightblue" points="1051.34,-192.99 1060.26,-187.27 1049.72,-186.18 1051.34,-192.99"/>
</g>
<!-- Node8 -->
<g id="node8" class="node">
<title>Node8</title>
<g id="a_node8"><a xlink:title=" ">
<polygon fill="none" stroke="#bfbfbf" points="1148,-168.5 1148,-187.5 1202,-187.5 1202,-168.5 1148,-168.5"/>
<text text-anchor="middle" x="1175" y="-175.5" font-family="Helvetica,sans-Serif" font-size="10.00">syscall.h</text>
</a>
</g>
</g>
<!-- Node1&#45;&gt;Node8 -->
<g id="edge7" class="edge">
<title>Node1&#45;&gt;Node8</title>
<path fill="none" stroke="midnightblue" d="M892.05,-231.53C948.29,-222.95 1045.42,-207.36 1138.1,-188.06"/>
<polygon fill="midnightblue" stroke="midnightblue" points="1138.86,-191.48 1147.92,-186 1137.42,-184.63 1138.86,-191.48"/>
</g>
<!-- Node9 -->
<g id="node9" class="node">
<title>Node9</title>
<g id="a_node9"><a xlink:title=" ">
<polygon fill="none" stroke="#bfbfbf" points="817,-0.5 817,-19.5 867,-19.5 867,-0.5 817,-0.5"/>
<text text-anchor="middle" x="842" y="-7.5" font-family="Helvetica,sans-Serif" font-size="10.00">unistd.h</text>
</a>
</g>
</g>
<!-- Node1&#45;&gt;Node9 -->
<g id="edge8" class="edge">
<title>Node1&#45;&gt;Node9</title>
<path fill="none" stroke="midnightblue" d="M844.81,-224.27C844.29,-184.89 842.84,-74.49 842.25,-29.97"/>
<polygon fill="midnightblue" stroke="midnightblue" points="845.75,-29.88 842.12,-19.93 838.75,-29.97 845.75,-29.88"/>
</g>
<!-- Node10 -->
<g id="node10" class="node">
<title>Node10</title>
<g id="a_node10"><a xlink:href="perf__cpu__sampler_8hpp.html" target="_top" xlink:title=" ">
<polygon fill="none" stroke="black" points="473.5,-168.5 473.5,-187.5 608.5,-187.5 608.5,-168.5 473.5,-168.5"/>
<text text-anchor="middle" x="541" y="-175.5" font-family="Helvetica,sans-Serif" font-size="10.00">elphi/perf_cpu_sampler.hpp</text>
</a>
</g>
</g>
<!-- Node1&#45;&gt;Node10 -->
<g id="edge9" class="edge">
<title>Node1&#45;&gt;Node10</title>
<path fill="none" stroke="midnightblue" d="M797.83,-229.27C742.93,-218.52 652.44,-200.81 594.83,-189.54"/>
<polygon fill="midnightblue" stroke="midnightblue" points="595.31,-186.06 584.82,-187.58 593.96,-192.93 595.31,-186.06"/>
</g>
<!-- Node14 -->
<g id="node14" class="node">
<title>Node14</title>
<g id="a_node14"><a xlink:href="perf__events_8hpp.html" target="_top" xlink:title=" ">
<polygon fill="none" stroke="black" points="685.5,-112.5 685.5,-131.5 794.5,-131.5 794.5,-112.5 685.5,-112.5"/>
<text text-anchor="middle" x="740" y="-119.5" font-family="Helvetica,sans-Serif" font-size="10.00">elphi/perf_events.hpp</text>
</a>
</g>
</g>
<!-- Node1&#45;&gt;Node14 -->
<g id="edge36" class="edge">
<title>Node1&#45;&gt;Node14</title>
<path fill="none" stroke="midnightblue" d="M832.12,-224.34C812.52,-202.77 775.28,-161.81 754.66,-139.13"/>
<polygon fill="midnightblue" stroke="midnightblue" points="757.2,-136.71 747.88,-131.67 752.02,-141.42 757.2,-136.71"/>
</g>
<!-- Node18 -->
<g id="node18" class="node">
<title>Node18</title>
<g id="a_node18"><a xlink:href="utils_8hpp.html" target="_top" xlink:title=" ">
<polygon fill="none" stroke="black" points="884,-56.5 884,-75.5 960,-75.5 960,-56.5 884,-56.5"/>
<text text-anchor="middle" x="922" y="-63.5" font-family="Helvetica,sans-Serif" font-size="10.00">elphi/utils.hpp</text>
</a>
</g>
</g>
<!-- Node1&#45;&gt;Node18 -->
<g id="edge37" class="edge">
<title>Node1&#45;&gt;Node18</title>
<path fill="none" stroke="midnightblue" d="M851.3,-224.47C865.23,-193.44 898.63,-119.05 914.01,-84.81"/>
<polygon fill="midnightblue" stroke="midnightblue" points="917.25,-86.12 918.16,-75.56 910.87,-83.25 917.25,-86.12"/>
</g>
<!-- Node11 -->
<g id="node11" class="node">
<title>Node11</title>
<g id="a_node11"><a xlink:title=" ">
<polygon fill="none" stroke="#bfbfbf" points="424.5,-112.5 424.5,-131.5 463.5,-131.5 463.5,-112.5 424.5,-112.5"/>
<text text-anchor="middle" x="444" y="-119.5" font-family="Helvetica,sans-Serif" font-size="10.00">poll.h</text>
</a>
</g>
</g>
<!-- Node10&#45;&gt;Node11 -->
<g id="edge10" class="edge">
<title>Node10&#45;&gt;Node11</title>
<path fill="none" stroke="midnightblue" d="M525.42,-168.32C510,-159.74 486.19,-146.49 468.29,-136.52"/>
<polygon fill="midnightblue" stroke="midnightblue" points="469.99,-133.46 459.55,-131.65 466.58,-139.58 469.99,-133.46"/>
</g>
<!-- Node12 -->
<g id="node12" class="node">
<title>Node12</title>
<g id="a_node12"><a xlink:href="file__descriptor_8hpp.html" target="_top" xlink:title=" ">
<polygon fill="none" stroke="black" points="482,-112.5 482,-131.5 600,-131.5 600,-112.5 482,-112.5"/>
<text text-anchor="middle" x="541" y="-119.5" font-family="Helvetica,sans-Serif" font-size="10.00">elphi/file_descriptor.hpp</text>
</a>
</g>
</g>
<!-- Node10&#45;&gt;Node12 -->
<g id="edge11" class="edge">
<title>Node10&#45;&gt;Node12</title>
<path fill="none" stroke="midnightblue" d="M541,-168.08C541,-161.01 541,-150.86 541,-141.99"/>
<polygon fill="midnightblue" stroke="midnightblue" points="544.5,-141.75 541,-131.75 537.5,-141.75 544.5,-141.75"/>
</g>
<!-- Node10&#45;&gt;Node14 -->
<g id="edge13" class="edge">
<title>Node10&#45;&gt;Node14</title>
<path fill="none" stroke="midnightblue" d="M572.53,-168.44C606.59,-159.2 661.01,-144.44 698.52,-134.26"/>
<polygon fill="midnightblue" stroke="midnightblue" points="699.88,-137.51 708.62,-131.52 698.05,-130.76 699.88,-137.51"/>
</g>
<!-- Node24 -->
<g id="node24" class="node">
<title>Node24</title>
<g id="a_node24"><a xlink:href="sampler_8hpp.html" target="_top" xlink:title=" ">
<polygon fill="none" stroke="black" points="306,-112.5 306,-131.5 398,-131.5 398,-112.5 306,-112.5"/>
<text text-anchor="middle" x="352" y="-119.5" font-family="Helvetica,sans-Serif" font-size="10.00">elphi/sampler.hpp</text>
</a>
</g>
</g>
<!-- Node10&#45;&gt;Node24 -->
<g id="edge27" class="edge">
<title>Node10&#45;&gt;Node24</title>
<path fill="none" stroke="midnightblue" d="M511.05,-168.44C478.84,-159.24 427.47,-144.56 391.86,-134.39"/>
<polygon fill="midnightblue" stroke="midnightblue" points="392.38,-130.9 381.81,-131.52 390.46,-137.63 392.38,-130.9"/>
</g>
<!-- Node13 -->
<g id="node13" class="node">
<title>Node13</title>
<g id="a_node13"><a xlink:title=" ">
<polygon fill="none" stroke="#bfbfbf" points="464,-56.5 464,-75.5 510,-75.5 510,-56.5 464,-56.5"/>
<text text-anchor="middle" x="487" y="-63.5" font-family="Helvetica,sans-Serif" font-size="10.00">cstdint</text>
</a>
</g>
</g>
<!-- Node12&#45;&gt;Node13 -->
<g id="edge12" class="edge">
<title>Node12&#45;&gt;Node13</title>
<path fill="none" stroke="midnightblue" d="M532.08,-112.08C524.22,-104.22 512.57,-92.57 503.08,-83.08"/>
<polygon fill="midnightblue" stroke="midnightblue" points="505.3,-80.35 495.75,-75.75 500.35,-85.3 505.3,-80.35"/>
</g>
<!-- Node14&#45;&gt;Node6 -->
<g id="edge17" class="edge">
<title>Node14&#45;&gt;Node6</title>
<path fill="none" stroke="midnightblue" d="M713.7,-112.44C685.65,-103.32 641.06,-88.81 609.82,-78.65"/>
<polygon fill="midnightblue" stroke="midnightblue" points="610.77,-75.28 600.18,-75.52 608.61,-81.94 610.77,-75.28"/>
</g>
<!-- Node14&#45;&gt;Node9 -->
<g id="edge18" class="edge">
<title>Node14&#45;&gt;Node9</title>
<path fill="none" stroke="midnightblue" d="M748,-112.37C765.06,-93.97 805.21,-50.67 827.12,-27.05"/>
<polygon fill="midnightblue" stroke="midnightblue" points="829.8,-29.3 834.03,-19.59 824.67,-24.54 829.8,-29.3"/>
</g>
<!-- Node15 -->
<g id="node15" class="node">
<title>Node15</title>
<g id="a_node15"><a xlink:title=" ">
<polygon fill="none" stroke="#bfbfbf" points="638,-56.5 638,-75.5 688,-75.5 688,-56.5 638,-56.5"/>
<text text-anchor="middle" x="663" y="-63.5" font-family="Helvetica,sans-Serif" font-size="10.00">optional</text>
</a>
</g>
</g>
<!-- Node14&#45;&gt;Node15 -->
<g id="edge14" class="edge">
<title>Node14&#45;&gt;Node15</title>
<path fill="none" stroke="midnightblue" d="M727.63,-112.32C715.84,-104.06 697.87,-91.45 683.86,-81.63"/>
<polygon fill="midnightblue" stroke="midnightblue" points="685.54,-78.53 675.34,-75.65 681.52,-84.26 685.54,-78.53"/>
</g>
<!-- Node16 -->
<g id="node16" class="node">
<title>Node16</title>
<g id="a_node16"><a xlink:title=" ">
<polygon fill="none" stroke="#bfbfbf" points="761,-0.5 761,-19.5 799,-19.5 799,-0.5 761,-0.5"/>
<text text-anchor="middle" x="780" y="-7.5" font-family="Helvetica,sans-Serif" font-size="10.00">span</text>
</a>
</g>
</g>
<!-- Node14&#45;&gt;Node16 -->
<g id="edge15" class="edge">
<title>Node14&#45;&gt;Node16</title>
<path fill="none" stroke="midnightblue" d="M744.59,-112.21C749.15,-103.26 756.13,-88.91 761,-76 766.83,-60.53 771.99,-42.44 775.45,-29.28"/>
<polygon fill="midnightblue" stroke="midnightblue" points="778.86,-30.1 777.94,-19.55 772.07,-28.37 778.86,-30.1"/>
</g>
<!-- Node17 -->
<g id="node17" class="node">
<title>Node17</title>
<g id="a_node17"><a xlink:title=" ">
<polygon fill="none" stroke="#bfbfbf" points="706,-56.5 706,-75.5 752,-75.5 752,-56.5 706,-56.5"/>
<text text-anchor="middle" x="729" y="-63.5" font-family="Helvetica,sans-Serif" font-size="10.00">variant</text>
</a>
</g>
</g>
<!-- Node14&#45;&gt;Node17 -->
<g id="edge16" class="edge">
<title>Node14&#45;&gt;Node17</title>
<path fill="none" stroke="midnightblue" d="M738.18,-112.08C736.73,-104.93 734.63,-94.64 732.81,-85.69"/>
<polygon fill="midnightblue" stroke="midnightblue" points="736.21,-84.85 730.78,-75.75 729.35,-86.25 736.21,-84.85"/>
</g>
<!-- Node14&#45;&gt;Node18 -->
<g id="edge19" class="edge">
<title>Node14&#45;&gt;Node18</title>
<path fill="none" stroke="midnightblue" d="M768.84,-112.44C799.86,-103.24 849.33,-88.56 883.62,-78.39"/>
<polygon fill="midnightblue" stroke="midnightblue" points="884.71,-81.72 893.3,-75.52 882.71,-75.01 884.71,-81.72"/>
</g>
<!-- Node18&#45;&gt;Node9 -->
<g id="edge26" class="edge">
<title>Node18&#45;&gt;Node9</title>
<path fill="none" stroke="midnightblue" d="M909.15,-56.32C896.78,-47.98 877.87,-35.21 863.26,-25.35"/>
<polygon fill="midnightblue" stroke="midnightblue" points="865.07,-22.35 854.82,-19.65 861.15,-28.15 865.07,-22.35"/>
</g>
<!-- Node18&#45;&gt;Node16 -->
<g id="edge24" class="edge">
<title>Node18&#45;&gt;Node16</title>
<path fill="none" stroke="midnightblue" d="M899.5,-56.44C874.95,-47.11 835.59,-32.14 808.8,-21.95"/>
<polygon fill="midnightblue" stroke="midnightblue" points="809.8,-18.59 799.21,-18.3 807.31,-25.13 809.8,-18.59"/>
</g>
<!-- Node19 -->
<g id="node19" class="node">
<title>Node19</title>
<g id="a_node19"><a xlink:title=" ">
<polygon fill="none" stroke="#bfbfbf" points="885,-0.5 885,-19.5 941,-19.5 941,-0.5 885,-0.5"/>
<text text-anchor="middle" x="913" y="-7.5" font-family="Helvetica,sans-Serif" font-size="10.00">algorithm</text>
</a>
</g>
</g>
<!-- Node18&#45;&gt;Node19 -->
<g id="edge20" class="edge">
<title>Node18&#45;&gt;Node19</title>
<path fill="none" stroke="midnightblue" d="M920.51,-56.08C919.32,-48.93 917.61,-38.64 916.12,-29.69"/>
<polygon fill="midnightblue" stroke="midnightblue" points="919.55,-29.04 914.46,-19.75 912.65,-30.19 919.55,-29.04"/>
</g>
<!-- Node20 -->
<g id="node20" class="node">
<title>Node20</title>
<g id="a_node20"><a xlink:title=" ">
<polygon fill="none" stroke="#bfbfbf" points="959,-0.5 959,-19.5 997,-19.5 997,-0.5 959,-0.5"/>
<text text-anchor="middle" x="978" y="-7.5" font-family="Helvetica,sans-Serif" font-size="10.00">array</text>
</a>
</g>
</g>
<!-- Node18&#45;&gt;Node20 -->
<g id="edge21" class="edge">
<title>Node18&#45;&gt;Node20</title>
<path fill="none" stroke="midnightblue" d="M931,-56.32C939.19,-48.42 951.51,-36.55 961.47,-26.94"/>
<polygon fill="midnightblue" stroke="midnightblue" points="964.07,-29.29 968.84,-19.83 959.21,-24.26 964.07,-29.29"/>
</g>
<!-- Node21 -->
<g id="node21" class="node">
<title>Node21</title>
<g id="a_node21"><a xlink:title=" ">
<polygon fill="none" stroke="#bfbfbf" points="1015,-0.5 1015,-19.5 1061,-19.5 1061,-0.5 1015,-0.5"/>
<text text-anchor="middle" x="1038" y="-7.5" font-family="Helvetica,sans-Serif" font-size="10.00">cstring</text>
</a>
</g>
</g>
<!-- Node18&#45;&gt;Node21 -->
<g id="edge22" class="edge">
<title>Node18&#45;&gt;Node21</title>
<path fill="none" stroke="midnightblue" d="M940.38,-56.44C959.22,-47.68 988.73,-33.94 1010.38,-23.86"/>
<polygon fill="midnightblue" stroke="midnightblue" points="1012.12,-26.91 1019.71,-19.52 1009.16,-20.56 1012.12,-26.91"/>
</g>
<!-- Node22 -->
<g id="node22" class="node">
<title>Node22</title>
<g id="a_node22"><a xlink:title=" ">
<polygon fill="none" stroke="#bfbfbf" points="1079,-0.5 1079,-19.5 1125,-19.5 1125,-0.5 1079,-0.5"/>
<text text-anchor="middle" x="1102" y="-7.5" font-family="Helvetica,sans-Serif" font-size="10.00">ranges</text>
</a>
</g>
</g>
<!-- Node18&#45;&gt;Node22 -->
<g id="edge23" class="edge">
<title>Node18&#45;&gt;Node22</title>
<path fill="none" stroke="midnightblue" d="M950.52,-56.44C982.68,-46.79 1034.91,-31.13 1068.86,-20.94"/>
<polygon fill="midnightblue" stroke="midnightblue" points="1070.19,-24.2 1078.76,-17.97 1068.18,-17.49 1070.19,-24.2"/>
</g>
<!-- Node23 -->
<g id="node23" class="node">
<title>Node23</title>
<g id="a_node23"><a xlink:title=" ">
<polygon fill="none" stroke="#bfbfbf" points="514,-0.5 514,-19.5 558,-19.5 558,-0.5 514,-0.5"/>
<text text-anchor="middle" x="536" y="-7.5" font-family="Helvetica,sans-Serif" font-size="10.00">vector</text>
</a>
</g>
</g>
<!-- Node18&#45;&gt;Node23 -->
<g id="edge25" class="edge">
<title>Node18&#45;&gt;Node23</title>
<path fill="none" stroke="midnightblue" d="M883.93,-59.67C808.13,-49.07 639.52,-25.48 568.52,-15.55"/>
<polygon fill="midnightblue" stroke="midnightblue" points="568.77,-12.05 558.38,-14.13 567.8,-18.98 568.77,-12.05"/>
</g>
<!-- Node24&#45;&gt;Node3 -->
<g id="edge28" class="edge">
<title>Node24&#45;&gt;Node3</title>
<path fill="none" stroke="midnightblue" d="M305.78,-114.07C232.8,-103.12 95.73,-82.52 56.19,-75.75"/>
<polygon fill="midnightblue" stroke="midnightblue" points="56.81,-72.3 46.34,-73.92 55.53,-79.19 56.81,-72.3"/>
</g>
<!-- Node24&#45;&gt;Node13 -->
<g id="edge29" class="edge">
<title>Node24&#45;&gt;Node13</title>
<path fill="none" stroke="midnightblue" d="M373.39,-112.44C395.71,-103.52 430.9,-89.44 456.21,-79.32"/>
<polygon fill="midnightblue" stroke="midnightblue" points="457.72,-82.48 465.71,-75.52 455.12,-75.98 457.72,-82.48"/>
</g>
<!-- Node24&#45;&gt;Node23 -->
<g id="edge33" class="edge">
<title>Node24&#45;&gt;Node23</title>
<path fill="none" stroke="midnightblue" d="M352.16,-112.06C352.9,-98.09 356.4,-71.12 372,-56 407.59,-21.48 467.06,-12.89 503.76,-11.06"/>
<polygon fill="midnightblue" stroke="midnightblue" points="504.05,-14.55 513.92,-10.7 503.8,-7.55 504.05,-14.55"/>
</g>
<!-- Node25 -->
<g id="node25" class="node">
<title>Node25</title>
<g id="a_node25"><a xlink:title=" ">
<polygon fill="none" stroke="#bfbfbf" points="380.5,-56.5 380.5,-75.5 445.5,-75.5 445.5,-56.5 380.5,-56.5"/>
<text text-anchor="middle" x="413" y="-63.5" font-family="Helvetica,sans-Serif" font-size="10.00">stop_token</text>
</a>
</g>
</g>
<!-- Node24&#45;&gt;Node25 -->
<g id="edge30" class="edge">
<title>Node24&#45;&gt;Node25</title>
<path fill="none" stroke="midnightblue" d="M361.8,-112.32C370.82,-104.34 384.41,-92.31 395.32,-82.65"/>
<polygon fill="midnightblue" stroke="midnightblue" points="397.85,-85.08 403.02,-75.83 393.21,-79.84 397.85,-85.08"/>
</g>
<!-- Node26 -->
<g id="node26" class="node">
<title>Node26</title>
<g id="a_node26"><a xlink:title=" ">
<polygon fill="none" stroke="#bfbfbf" points="64.5,-56.5 64.5,-75.5 105.5,-75.5 105.5,-56.5 64.5,-56.5"/>
<text text-anchor="middle" x="85" y="-63.5" font-family="Helvetica,sans-Serif" font-size="10.00">string</text>
</a>
</g>
</g>
<!-- Node24&#45;&gt;Node26 -->
<g id="edge31" class="edge">
<title>Node24&#45;&gt;Node26</title>
<path fill="none" stroke="midnightblue" d="M305.59,-113.84C259.54,-106.37 186.8,-93.61 115.55,-76.17"/>
<polygon fill="midnightblue" stroke="midnightblue" points="116.06,-72.69 105.51,-73.68 114.38,-79.49 116.06,-72.69"/>
</g>
<!-- Node27 -->
<g id="node27" class="node">
<title>Node27</title>
<g id="a_node27"><a xlink:title=" ">
<polygon fill="none" stroke="#bfbfbf" points="123.5,-56.5 123.5,-75.5 206.5,-75.5 206.5,-56.5 123.5,-56.5"/>
<text text-anchor="middle" x="165" y="-63.5" font-family="Helvetica,sans-Serif" font-size="10.00">unordered_map</text>
</a>
</g>
</g>
<!-- Node24&#45;&gt;Node27 -->
<g id="edge32" class="edge">
<title>Node24&#45;&gt;Node27</title>
<path fill="none" stroke="midnightblue" d="M322.37,-112.44C290.5,-103.24 239.67,-88.56 204.44,-78.39"/>
<polygon fill="midnightblue" stroke="midnightblue" points="205.07,-74.93 194.49,-75.52 203.13,-81.65 205.07,-74.93"/>
</g>
<!-- Node28 -->
<g id="node28" class="node">
<title>Node28</title>
<g id="a_node28"><a xlink:href="exception_8hpp.html" target="_top" xlink:title=" ">
<polygon fill="none" stroke="black" points="224.5,-56.5 224.5,-75.5 323.5,-75.5 323.5,-56.5 224.5,-56.5"/>
<text text-anchor="middle" x="274" y="-63.5" font-family="Helvetica,sans-Serif" font-size="10.00">elphi/exception.hpp</text>
</a>
</g>
</g>
<!-- Node24&#45;&gt;Node28 -->
<g id="edge34" class="edge">
<title>Node24&#45;&gt;Node28</title>
<path fill="none" stroke="midnightblue" d="M339.47,-112.32C327.41,-103.98 308.97,-91.21 294.73,-81.35"/>
<polygon fill="midnightblue" stroke="midnightblue" points="296.72,-78.47 286.5,-75.65 292.73,-84.22 296.72,-78.47"/>
</g>
<!-- Node29 -->
<g id="node29" class="node">
<title>Node29</title>
<g id="a_node29"><a xlink:title=" ">
<polygon fill="none" stroke="#bfbfbf" points="244.5,-0.5 244.5,-19.5 303.5,-19.5 303.5,-0.5 244.5,-0.5"/>
<text text-anchor="middle" x="274" y="-7.5" font-family="Helvetica,sans-Serif" font-size="10.00">stdexcept</text>
</a>
</g>
</g>
<!-- Node28&#45;&gt;Node29 -->
<g id="edge35" class="edge">
<title>Node28&#45;&gt;Node29</title>
<path fill="none" stroke="midnightblue" d="M274,-56.08C274,-49.01 274,-38.86 274,-29.99"/>
<polygon fill="midnightblue" stroke="midnightblue" points="277.5,-29.75 274,-19.75 270.5,-29.75 277.5,-29.75"/>
</g>
</g>
</svg>
