<?xml version="1.0" encoding="UTF-8" standalone="no"?>
<!DOCTYPE svg PUBLIC "-//W3C//DTD SVG 1.1//EN"
 "http://www.w3.org/Graphics/SVG/1.1/DTD/svg11.dtd">
<!-- Generated by graphviz version 2.47.1 (20210515.0534)
 -->
<!-- Title: elphi/src/perf_events.cpp Pages: 1 -->
<svg width="902pt" height="196pt"
 viewBox="0.00 0.00 901.50 196.00" xmlns="http://www.w3.org/2000/svg" xmlns:xlink="http://www.w3.org/1999/xlink">
<g id="graph0" class="graph" transform="scale(1 1) rotate(0) translate(4 192)">
<title>elphi/src/perf_events.cpp</title>
<!-- Node1 -->
<g id="node1" class="node">
<title>Node1</title>
<g id="a_node1"><a xlink:title=" ">
<polygon fill="#bfbfbf" stroke="black" points="320,-168.5 320,-187.5 445,-187.5 445,-168.5 320,-168.5"/>
<text text-anchor="middle" x="382.5" y="-175.5" font-family="Helvetica,sans-Serif" font-size="10.00">elphi/src/perf_events.cpp</text>
</a>
</g>
</g>
<!-- Node2 -->
<g id="node2" class="node">
<title>Node2</title>
<g id="a_node2"><a xlink:title=" ">
<polygon fill="none" stroke="#bfbfbf" points="0,-112.5 0,-131.5 49,-131.5 49,-112.5 0,-112.5"/>
<text text-anchor="middle" x="24.5" y="-119.5" font-family="Helvetica,sans-Serif" font-size="10.00">cassert</text>
</a>
</g>
</g>
<!-- Node1&#45;&gt;Node2 -->
<g id="edge1" class="edge">
<title>Node1&#45;&gt;Node2</title>
<path fill="none" stroke="midnightblue" d="M319.71,-170.55C256.33,-163.54 155.52,-150.97 59.21,-131.92"/>
<polygon fill="midnightblue" stroke="midnightblue" points="59.79,-128.47 49.3,-129.94 58.42,-135.33 59.79,-128.47"/>
</g>
<!-- Node3 -->
<g id="node3" class="node">
<title>Node3</title>
<g id="a_node3"><a xlink:title=" ">
<polygon fill="none" stroke="#bfbfbf" points="67.5,-112.5 67.5,-131.5 111.5,-131.5 111.5,-112.5 67.5,-112.5"/>
<text text-anchor="middle" x="89.5" y="-119.5" font-family="Helvetica,sans-Serif" font-size="10.00">cerrno</text>
</a>
</g>
</g>
<!-- Node1&#45;&gt;Node3 -->
<g id="edge2" class="edge">
<title>Node1&#45;&gt;Node3</title>
<path fill="none" stroke="midnightblue" d="M321.23,-168.47C270.18,-160.91 195.4,-148.79 121.69,-132.07"/>
<polygon fill="midnightblue" stroke="midnightblue" points="122.3,-128.62 111.77,-129.79 120.73,-135.44 122.3,-128.62"/>
</g>
<!-- Node4 -->
<g id="node4" class="node">
<title>Node4</title>
<g id="a_node4"><a xlink:title=" ">
<polygon fill="none" stroke="#bfbfbf" points="129.5,-112.5 129.5,-131.5 175.5,-131.5 175.5,-112.5 129.5,-112.5"/>
<text text-anchor="middle" x="152.5" y="-119.5" font-family="Helvetica,sans-Serif" font-size="10.00">cstdint</text>
</a>
</g>
</g>
<!-- Node1&#45;&gt;Node4 -->
<g id="edge3" class="edge">
<title>Node1&#45;&gt;Node4</title>
<path fill="none" stroke="midnightblue" d="M342.16,-168.46C304.16,-160.27 245.43,-147.27 185.54,-132.17"/>
<polygon fill="midnightblue" stroke="midnightblue" points="186.09,-128.7 175.53,-129.63 184.37,-135.48 186.09,-128.7"/>
</g>
<!-- Node5 -->
<g id="node5" class="node">
<title>Node5</title>
<g id="a_node5"><a xlink:title=" ">
<polygon fill="none" stroke="#bfbfbf" points="194,-112.5 194,-131.5 237,-131.5 237,-112.5 194,-112.5"/>
<text text-anchor="middle" x="215.5" y="-119.5" font-family="Helvetica,sans-Serif" font-size="10.00">cstdio</text>
</a>
</g>
</g>
<!-- Node1&#45;&gt;Node5 -->
<g id="edge4" class="edge">
<title>Node1&#45;&gt;Node5</title>
<path fill="none" stroke="midnightblue" d="M356.04,-168.44C326.33,-158.84 278.16,-143.26 246.66,-133.07"/>
<polygon fill="midnightblue" stroke="midnightblue" points="247.65,-129.72 237.06,-129.97 245.5,-136.38 247.65,-129.72"/>
</g>
<!-- Node6 -->
<g id="node6" class="node">
<title>Node6</title>
<g id="a_node6"><a xlink:title=" ">
<polygon fill="none" stroke="#bfbfbf" points="150.5,-0.5 150.5,-19.5 196.5,-19.5 196.5,-0.5 150.5,-0.5"/>
<text text-anchor="middle" x="173.5" y="-7.5" font-family="Helvetica,sans-Serif" font-size="10.00">cstring</text>
</a>
</g>
</g>
<!-- Node1&#45;&gt;Node6 -->
<g id="edge5" class="edge">
<title>Node1&#45;&gt;Node6</title>
<path fill="none" stroke="midnightblue" d="M371.56,-168.31C337.77,-141.47 234.81,-59.69 192.23,-25.88"/>
<polygon fill="midnightblue" stroke="midnightblue" points="194.34,-23.08 184.33,-19.61 189.99,-28.57 194.34,-23.08"/>
</g>
<!-- Node7 -->
<g id="node7" class="node">
<title>Node7</title>
<g id="a_node7"><a xlink:title=" ">
<polygon fill="none" stroke="#bfbfbf" points="536,-112.5 536,-131.5 577,-131.5 577,-112.5 536,-112.5"/>
<text text-anchor="middle" x="556.5" y="-119.5" font-family="Helvetica,sans-Serif" font-size="10.00">ctime</text>
</a>
</g>
</g>
<!-- Node1&#45;&gt;Node7 -->
<g id="edge6" class="edge">
<title>Node1&#45;&gt;Node7</title>
<path fill="none" stroke="midnightblue" d="M410.07,-168.44C441.63,-158.65 493.18,-142.65 525.94,-132.48"/>
<polygon fill="midnightblue" stroke="midnightblue" points="527.36,-135.71 535.87,-129.4 525.28,-129.02 527.36,-135.71"/>
</g>
<!-- Node8 -->
<g id="node8" class="node">
<title>Node8</title>
<g id="a_node8"><a xlink:title=" ">
<polygon fill="none" stroke="#bfbfbf" points="359.5,-56.5 359.5,-75.5 451.5,-75.5 451.5,-56.5 359.5,-56.5"/>
<text text-anchor="middle" x="405.5" y="-63.5" font-family="Helvetica,sans-Serif" font-size="10.00">linux/perf_event.h</text>
</a>
</g>
</g>
<!-- Node1&#45;&gt;Node8 -->
<g id="edge7" class="edge">
<title>Node1&#45;&gt;Node8</title>
<path fill="none" stroke="midnightblue" d="M375.66,-168.45C366.5,-155.9 352.29,-131.81 360.5,-112 365.42,-100.12 375.17,-89.74 384.33,-81.96"/>
<polygon fill="midnightblue" stroke="midnightblue" points="386.75,-84.51 392.44,-75.56 382.42,-79.01 386.75,-84.51"/>
</g>
<!-- Node9 -->
<g id="node9" class="node">
<title>Node9</title>
<g id="a_node9"><a xlink:title=" ">
<polygon fill="none" stroke="#bfbfbf" points="595.5,-112.5 595.5,-131.5 655.5,-131.5 655.5,-112.5 595.5,-112.5"/>
<text text-anchor="middle" x="625.5" y="-119.5" font-family="Helvetica,sans-Serif" font-size="10.00">sys/ioctl.h</text>
</a>
</g>
</g>
<!-- Node1&#45;&gt;Node9 -->
<g id="edge8" class="edge">
<title>Node1&#45;&gt;Node9</title>
<path fill="none" stroke="midnightblue" d="M421.63,-168.49C460.63,-159.97 522.5,-146.4 585.21,-132.28"/>
<polygon fill="midnightblue" stroke="midnightblue" points="586.29,-135.62 595.27,-130.01 584.75,-128.79 586.29,-135.62"/>
</g>
<!-- Node10 -->
<g id="node10" class="node">
<title>Node10</title>
<g id="a_node10"><a xlink:title=" ">
<polygon fill="none" stroke="#bfbfbf" points="674,-112.5 674,-131.5 743,-131.5 743,-112.5 674,-112.5"/>
<text text-anchor="middle" x="708.5" y="-119.5" font-family="Helvetica,sans-Serif" font-size="10.00">sys/mman.h</text>
</a>
</g>
</g>
<!-- Node1&#45;&gt;Node10 -->
<g id="edge9" class="edge">
<title>Node1&#45;&gt;Node10</title>
<path fill="none" stroke="midnightblue" d="M440.68,-168.47C495.62,-160.25 580.54,-147.1 664.03,-132.02"/>
<polygon fill="midnightblue" stroke="midnightblue" points="664.73,-135.45 673.94,-130.22 663.48,-128.56 664.73,-135.45"/>
</g>
<!-- Node11 -->
<g id="node11" class="node">
<title>Node11</title>
<g id="a_node11"><a xlink:title=" ">
<polygon fill="none" stroke="#bfbfbf" points="761.5,-112.5 761.5,-131.5 815.5,-131.5 815.5,-112.5 761.5,-112.5"/>
<text text-anchor="middle" x="788.5" y="-119.5" font-family="Helvetica,sans-Serif" font-size="10.00">syscall.h</text>
</a>
</g>
</g>
<!-- Node1&#45;&gt;Node11 -->
<g id="edge10" class="edge">
<title>Node1&#45;&gt;Node11</title>
<path fill="none" stroke="midnightblue" d="M445.05,-171.78C516.82,-165.25 638.17,-152.59 751.56,-131.97"/>
<polygon fill="midnightblue" stroke="midnightblue" points="752.25,-135.4 761.45,-130.14 750.98,-128.51 752.25,-135.4"/>
</g>
<!-- Node12 -->
<g id="node12" class="node">
<title>Node12</title>
<g id="a_node12"><a xlink:title=" ">
<polygon fill="none" stroke="#bfbfbf" points="639.5,-56.5 639.5,-75.5 689.5,-75.5 689.5,-56.5 639.5,-56.5"/>
<text text-anchor="middle" x="664.5" y="-63.5" font-family="Helvetica,sans-Serif" font-size="10.00">unistd.h</text>
</a>
</g>
</g>
<!-- Node1&#45;&gt;Node12 -->
<g id="edge11" class="edge">
<title>Node1&#45;&gt;Node12</title>
<path fill="none" stroke="midnightblue" d="M403.58,-168.39C424.89,-159.59 458.71,-145.35 487.5,-132 505.53,-123.64 509.12,-119.57 527.5,-112 561.52,-98 601.63,-85.24 629.62,-76.92"/>
<polygon fill="midnightblue" stroke="midnightblue" points="630.75,-80.23 639.35,-74.06 628.77,-73.52 630.75,-80.23"/>
</g>
<!-- Node13 -->
<g id="node13" class="node">
<title>Node13</title>
<g id="a_node13"><a xlink:href="perf__events_8hpp.html" target="_top" xlink:title=" ">
<polygon fill="none" stroke="black" points="370,-112.5 370,-131.5 479,-131.5 479,-112.5 370,-112.5"/>
<text text-anchor="middle" x="424.5" y="-119.5" font-family="Helvetica,sans-Serif" font-size="10.00">elphi/perf_events.hpp</text>
</a>
</g>
</g>
<!-- Node1&#45;&gt;Node13 -->
<g id="edge12" class="edge">
<title>Node1&#45;&gt;Node13</title>
<path fill="none" stroke="midnightblue" d="M389.44,-168.08C395.43,-160.38 404.25,-149.03 411.55,-139.65"/>
<polygon fill="midnightblue" stroke="midnightblue" points="414.32,-141.79 417.69,-131.75 408.79,-137.5 414.32,-141.79"/>
</g>
<!-- Node17 -->
<g id="node17" class="node">
<title>Node17</title>
<g id="a_node17"><a xlink:href="utils_8hpp.html" target="_top" xlink:title=" ">
<polygon fill="none" stroke="black" points="265.5,-56.5 265.5,-75.5 341.5,-75.5 341.5,-56.5 265.5,-56.5"/>
<text text-anchor="middle" x="303.5" y="-63.5" font-family="Helvetica,sans-Serif" font-size="10.00">elphi/utils.hpp</text>
</a>
</g>
</g>
<!-- Node1&#45;&gt;Node17 -->
<g id="edge25" class="edge">
<title>Node1&#45;&gt;Node17</title>
<path fill="none" stroke="midnightblue" d="M376.3,-168.37C363.26,-150.22 332.8,-107.8 315.7,-83.99"/>
<polygon fill="midnightblue" stroke="midnightblue" points="318.35,-81.67 309.67,-75.59 312.66,-85.76 318.35,-81.67"/>
</g>
<!-- Node22 -->
<g id="node22" class="node">
<title>Node22</title>
<g id="a_node22"><a xlink:title=" ">
<polygon fill="none" stroke="#bfbfbf" points="833.5,-112.5 833.5,-131.5 893.5,-131.5 893.5,-112.5 833.5,-112.5"/>
<text text-anchor="middle" x="863.5" y="-119.5" font-family="Helvetica,sans-Serif" font-size="10.00">fmt/core.h</text>
</a>
</g>
</g>
<!-- Node1&#45;&gt;Node22 -->
<g id="edge26" class="edge">
<title>Node1&#45;&gt;Node22</title>
<path fill="none" stroke="midnightblue" d="M445.05,-173.11C528.96,-167.34 682.77,-154.85 823.25,-132.01"/>
<polygon fill="midnightblue" stroke="midnightblue" points="824.04,-135.43 833.34,-130.35 822.9,-128.52 824.04,-135.43"/>
</g>
<!-- Node13&#45;&gt;Node8 -->
<g id="edge16" class="edge">
<title>Node13&#45;&gt;Node8</title>
<path fill="none" stroke="midnightblue" d="M421.36,-112.08C418.82,-104.85 415.14,-94.41 411.97,-85.4"/>
<polygon fill="midnightblue" stroke="midnightblue" points="415.2,-84.02 408.58,-75.75 408.6,-86.35 415.2,-84.02"/>
</g>
<!-- Node13&#45;&gt;Node12 -->
<g id="edge17" class="edge">
<title>Node13&#45;&gt;Node12</title>
<path fill="none" stroke="midnightblue" d="M466.05,-112.48C505.63,-104.24 567.1,-91.12 629.3,-76.21"/>
<polygon fill="midnightblue" stroke="midnightblue" points="630.38,-79.55 639.28,-73.81 628.74,-72.75 630.38,-79.55"/>
</g>
<!-- Node14 -->
<g id="node14" class="node">
<title>Node14</title>
<g id="a_node14"><a xlink:title=" ">
<polygon fill="none" stroke="#bfbfbf" points="507.5,-56.5 507.5,-75.5 557.5,-75.5 557.5,-56.5 507.5,-56.5"/>
<text text-anchor="middle" x="532.5" y="-63.5" font-family="Helvetica,sans-Serif" font-size="10.00">optional</text>
</a>
</g>
</g>
<!-- Node13&#45;&gt;Node14 -->
<g id="edge13" class="edge">
<title>Node13&#45;&gt;Node14</title>
<path fill="none" stroke="midnightblue" d="M441.85,-112.32C459.17,-103.66 486.02,-90.24 506,-80.25"/>
<polygon fill="midnightblue" stroke="midnightblue" points="507.81,-83.26 515.19,-75.65 504.68,-77 507.81,-83.26"/>
</g>
<!-- Node15 -->
<g id="node15" class="node">
<title>Node15</title>
<g id="a_node15"><a xlink:title=" ">
<polygon fill="none" stroke="#bfbfbf" points="470.5,-0.5 470.5,-19.5 508.5,-19.5 508.5,-0.5 470.5,-0.5"/>
<text text-anchor="middle" x="489.5" y="-7.5" font-family="Helvetica,sans-Serif" font-size="10.00">span</text>
</a>
</g>
</g>
<!-- Node13&#45;&gt;Node15 -->
<g id="edge14" class="edge">
<title>Node13&#45;&gt;Node15</title>
<path fill="none" stroke="midnightblue" d="M432.67,-112.2C440.49,-103.48 452.28,-89.5 460.5,-76 469.63,-61.01 477.56,-42.65 482.8,-29.27"/>
<polygon fill="midnightblue" stroke="midnightblue" points="486.13,-30.35 486.41,-19.76 479.59,-27.87 486.13,-30.35"/>
</g>
<!-- Node16 -->
<g id="node16" class="node">
<title>Node16</title>
<g id="a_node16"><a xlink:title=" ">
<polygon fill="none" stroke="#bfbfbf" points="575.5,-56.5 575.5,-75.5 621.5,-75.5 621.5,-56.5 575.5,-56.5"/>
<text text-anchor="middle" x="598.5" y="-63.5" font-family="Helvetica,sans-Serif" font-size="10.00">variant</text>
</a>
</g>
</g>
<!-- Node13&#45;&gt;Node16 -->
<g id="edge15" class="edge">
<title>Node13&#45;&gt;Node16</title>
<path fill="none" stroke="midnightblue" d="M452.07,-112.44C482.9,-102.88 532.8,-87.39 565.63,-77.2"/>
<polygon fill="midnightblue" stroke="midnightblue" points="566.72,-80.53 575.23,-74.22 564.65,-73.84 566.72,-80.53"/>
</g>
<!-- Node13&#45;&gt;Node17 -->
<g id="edge18" class="edge">
<title>Node13&#45;&gt;Node17</title>
<path fill="none" stroke="midnightblue" d="M405.33,-112.44C385.59,-103.64 354.61,-89.81 332.01,-79.72"/>
<polygon fill="midnightblue" stroke="midnightblue" points="333.14,-76.4 322.58,-75.52 330.29,-82.79 333.14,-76.4"/>
</g>
<!-- Node17&#45;&gt;Node6 -->
<g id="edge21" class="edge">
<title>Node17&#45;&gt;Node6</title>
<path fill="none" stroke="midnightblue" d="M282.9,-56.44C261.51,-47.56 227.82,-33.56 203.48,-23.45"/>
<polygon fill="midnightblue" stroke="midnightblue" points="204.58,-20.12 194,-19.52 201.89,-26.58 204.58,-20.12"/>
</g>
<!-- Node17&#45;&gt;Node15 -->
<g id="edge23" class="edge">
<title>Node17&#45;&gt;Node15</title>
<path fill="none" stroke="midnightblue" d="M334.77,-56.43C364.71,-48.15 411.39,-35.04 460.42,-20.26"/>
<polygon fill="midnightblue" stroke="midnightblue" points="461.69,-23.53 470.25,-17.28 459.66,-16.83 461.69,-23.53"/>
</g>
<!-- Node18 -->
<g id="node18" class="node">
<title>Node18</title>
<g id="a_node18"><a xlink:title=" ">
<polygon fill="none" stroke="#bfbfbf" points="396.5,-0.5 396.5,-19.5 452.5,-19.5 452.5,-0.5 396.5,-0.5"/>
<text text-anchor="middle" x="424.5" y="-7.5" font-family="Helvetica,sans-Serif" font-size="10.00">algorithm</text>
</a>
</g>
</g>
<!-- Node17&#45;&gt;Node18 -->
<g id="edge19" class="edge">
<title>Node17&#45;&gt;Node18</title>
<path fill="none" stroke="midnightblue" d="M322.67,-56.44C342.41,-47.64 373.39,-33.81 395.99,-23.72"/>
<polygon fill="midnightblue" stroke="midnightblue" points="397.71,-26.79 405.42,-19.52 394.86,-20.4 397.71,-26.79"/>
</g>
<!-- Node19 -->
<g id="node19" class="node">
<title>Node19</title>
<g id="a_node19"><a xlink:title=" ">
<polygon fill="none" stroke="#bfbfbf" points="214.5,-0.5 214.5,-19.5 252.5,-19.5 252.5,-0.5 214.5,-0.5"/>
<text text-anchor="middle" x="233.5" y="-7.5" font-family="Helvetica,sans-Serif" font-size="10.00">array</text>
</a>
</g>
</g>
<!-- Node17&#45;&gt;Node19 -->
<g id="edge20" class="edge">
<title>Node17&#45;&gt;Node19</title>
<path fill="none" stroke="midnightblue" d="M292.25,-56.32C281.7,-48.18 265.7,-35.84 253.06,-26.09"/>
<polygon fill="midnightblue" stroke="midnightblue" points="255.01,-23.17 244.95,-19.83 250.73,-28.71 255.01,-23.17"/>
</g>
<!-- Node20 -->
<g id="node20" class="node">
<title>Node20</title>
<g id="a_node20"><a xlink:title=" ">
<polygon fill="none" stroke="#bfbfbf" points="270.5,-0.5 270.5,-19.5 316.5,-19.5 316.5,-0.5 270.5,-0.5"/>
<text text-anchor="middle" x="293.5" y="-7.5" font-family="Helvetica,sans-Serif" font-size="10.00">ranges</text>
</a>
</g>
</g>
<!-- Node17&#45;&gt;Node20 -->
<g id="edge22" class="edge">
<title>Node17&#45;&gt;Node20</title>
<path fill="none" stroke="midnightblue" d="M301.85,-56.08C300.52,-48.93 298.62,-38.64 296.96,-29.69"/>
<polygon fill="midnightblue" stroke="midnightblue" points="300.38,-28.95 295.12,-19.75 293.5,-30.22 300.38,-28.95"/>
</g>
<!-- Node21 -->
<g id="node21" class="node">
<title>Node21</title>
<g id="a_node21"><a xlink:title=" ">
<polygon fill="none" stroke="#bfbfbf" points="334.5,-0.5 334.5,-19.5 378.5,-19.5 378.5,-0.5 334.5,-0.5"/>
<text text-anchor="middle" x="356.5" y="-7.5" font-family="Helvetica,sans-Serif" font-size="10.00">vector</text>
</a>
</g>
</g>
<!-- Node17&#45;&gt;Node21 -->
<g id="edge24" class="edge">
<title>Node17&#45;&gt;Node21</title>
<path fill="none" stroke="midnightblue" d="M312.25,-56.08C319.97,-48.22 331.4,-36.57 340.72,-27.08"/>
<polygon fill="midnightblue" stroke="midnightblue" points="343.4,-29.34 347.91,-19.75 338.41,-24.44 343.4,-29.34"/>
</g>
</g>
</svg>
