<?xml version="1.0" encoding="UTF-8" standalone="no"?>
<!DOCTYPE svg PUBLIC "-//W3C//DTD SVG 1.1//EN"
 "http://www.w3.org/Graphics/SVG/1.1/DTD/svg11.dtd">
<!-- Generated by graphviz version 2.47.1 (20210515.0534)
 -->
<!-- Title: elphi/include/elphi/perf_events.hpp Pages: 1 -->
<svg width="543pt" height="151pt"
 viewBox="0.00 0.00 543.00 151.00" xmlns="http://www.w3.org/2000/svg" xmlns:xlink="http://www.w3.org/1999/xlink">
<g id="graph0" class="graph" transform="scale(1 1) rotate(0) translate(4 147)">
<title>elphi/include/elphi/perf_events.hpp</title>
<!-- Node1 -->
<g id="node1" class="node">
<title>Node1</title>
<g id="a_node1"><a xlink:title=" ">
<polygon fill="#bfbfbf" stroke="black" points="125,-112.5 125,-142.5 219,-142.5 219,-112.5 125,-112.5"/>
<text text-anchor="start" x="133" y="-130.5" font-family="Helvetica,sans-Serif" font-size="10.00">elphi/include/elphi</text>
<text text-anchor="middle" x="172" y="-119.5" font-family="Helvetica,sans-Serif" font-size="10.00">/perf_events.hpp</text>
</a>
</g>
</g>
<!-- Node2 -->
<g id="node2" class="node">
<title>Node2</title>
<g id="a_node2"><a xlink:title=" ">
<polygon fill="none" stroke="#bfbfbf" points="0,-56.5 0,-75.5 50,-75.5 50,-56.5 0,-56.5"/>
<text text-anchor="middle" x="25" y="-63.5" font-family="Helvetica,sans-Serif" font-size="10.00">optional</text>
</a>
</g>
</g>
<!-- Node1&#45;&gt;Node2 -->
<g id="edge1" class="edge">
<title>Node1&#45;&gt;Node2</title>
<path fill="none" stroke="midnightblue" d="M137.16,-112.4C112.5,-102.42 79.71,-89.15 55.97,-79.53"/>
<polygon fill="midnightblue" stroke="midnightblue" points="56.97,-76.17 46.39,-75.66 54.35,-82.65 56.97,-76.17"/>
</g>
<!-- Node3 -->
<g id="node3" class="node">
<title>Node3</title>
<g id="a_node3"><a xlink:title=" ">
<polygon fill="none" stroke="#bfbfbf" points="118,-0.5 118,-19.5 156,-19.5 156,-0.5 118,-0.5"/>
<text text-anchor="middle" x="137" y="-7.5" font-family="Helvetica,sans-Serif" font-size="10.00">span</text>
</a>
</g>
</g>
<!-- Node1&#45;&gt;Node3 -->
<g id="edge2" class="edge">
<title>Node1&#45;&gt;Node3</title>
<path fill="none" stroke="midnightblue" d="M137.31,-112.34C122.04,-104.15 105.63,-92.21 97,-76 87.65,-58.43 103.04,-39.11 117.36,-26.13"/>
<polygon fill="midnightblue" stroke="midnightblue" points="119.67,-28.76 125.04,-19.63 115.14,-23.42 119.67,-28.76"/>
</g>
<!-- Node4 -->
<g id="node4" class="node">
<title>Node4</title>
<g id="a_node4"><a xlink:title=" ">
<polygon fill="none" stroke="#bfbfbf" points="106,-56.5 106,-75.5 152,-75.5 152,-56.5 106,-56.5"/>
<text text-anchor="middle" x="129" y="-63.5" font-family="Helvetica,sans-Serif" font-size="10.00">variant</text>
</a>
</g>
</g>
<!-- Node1&#45;&gt;Node4 -->
<g id="edge3" class="edge">
<title>Node1&#45;&gt;Node4</title>
<path fill="none" stroke="midnightblue" d="M161.81,-112.4C155.63,-103.84 147.7,-92.87 141.18,-83.86"/>
<polygon fill="midnightblue" stroke="midnightblue" points="143.95,-81.71 135.26,-75.66 138.28,-85.81 143.95,-81.71"/>
</g>
<!-- Node5 -->
<g id="node5" class="node">
<title>Node5</title>
<g id="a_node5"><a xlink:title=" ">
<polygon fill="none" stroke="#bfbfbf" points="170,-56.5 170,-75.5 262,-75.5 262,-56.5 170,-56.5"/>
<text text-anchor="middle" x="216" y="-63.5" font-family="Helvetica,sans-Serif" font-size="10.00">linux/perf_event.h</text>
</a>
</g>
</g>
<!-- Node1&#45;&gt;Node5 -->
<g id="edge4" class="edge">
<title>Node1&#45;&gt;Node5</title>
<path fill="none" stroke="midnightblue" d="M182.43,-112.4C188.76,-103.84 196.87,-92.87 203.53,-83.86"/>
<polygon fill="midnightblue" stroke="midnightblue" points="206.47,-85.78 209.6,-75.66 200.84,-81.62 206.47,-85.78"/>
</g>
<!-- Node6 -->
<g id="node6" class="node">
<title>Node6</title>
<g id="a_node6"><a xlink:title=" ">
<polygon fill="none" stroke="#bfbfbf" points="280,-56.5 280,-75.5 330,-75.5 330,-56.5 280,-56.5"/>
<text text-anchor="middle" x="305" y="-63.5" font-family="Helvetica,sans-Serif" font-size="10.00">unistd.h</text>
</a>
</g>
</g>
<!-- Node1&#45;&gt;Node6 -->
<g id="edge5" class="edge">
<title>Node1&#45;&gt;Node6</title>
<path fill="none" stroke="midnightblue" d="M203.52,-112.4C225.64,-102.51 254.97,-89.38 276.41,-79.79"/>
<polygon fill="midnightblue" stroke="midnightblue" points="277.95,-82.94 285.65,-75.66 275.09,-76.55 277.95,-82.94"/>
</g>
<!-- Node7 -->
<g id="node7" class="node">
<title>Node7</title>
<g id="a_node7"><a xlink:href="utils_8hpp.html" target="_top" xlink:title=" ">
<polygon fill="none" stroke="black" points="348,-56.5 348,-75.5 424,-75.5 424,-56.5 348,-56.5"/>
<text text-anchor="middle" x="386" y="-63.5" font-family="Helvetica,sans-Serif" font-size="10.00">elphi/utils.hpp</text>
</a>
</g>
</g>
<!-- Node1&#45;&gt;Node7 -->
<g id="edge6" class="edge">
<title>Node1&#45;&gt;Node7</title>
<path fill="none" stroke="midnightblue" d="M219.23,-113.37C257.14,-102.83 309.8,-88.19 345.74,-78.19"/>
<polygon fill="midnightblue" stroke="midnightblue" points="346.71,-81.56 355.41,-75.51 344.83,-74.81 346.71,-81.56"/>
</g>
<!-- Node7&#45;&gt;Node3 -->
<g id="edge11" class="edge">
<title>Node7&#45;&gt;Node3</title>
<path fill="none" stroke="midnightblue" d="M347.91,-56.74C297.97,-45.91 211.41,-27.14 166.28,-17.35"/>
<polygon fill="midnightblue" stroke="midnightblue" points="166.78,-13.88 156.27,-15.18 165.3,-20.72 166.78,-13.88"/>
</g>
<!-- Node8 -->
<g id="node8" class="node">
<title>Node8</title>
<g id="a_node8"><a xlink:title=" ">
<polygon fill="none" stroke="#bfbfbf" points="233,-0.5 233,-19.5 289,-19.5 289,-0.5 233,-0.5"/>
<text text-anchor="middle" x="261" y="-7.5" font-family="Helvetica,sans-Serif" font-size="10.00">algorithm</text>
</a>
</g>
</g>
<!-- Node7&#45;&gt;Node8 -->
<g id="edge7" class="edge">
<title>Node7&#45;&gt;Node8</title>
<path fill="none" stroke="midnightblue" d="M366.19,-56.44C345.71,-47.6 313.52,-33.69 290.14,-23.59"/>
<polygon fill="midnightblue" stroke="midnightblue" points="291.28,-20.27 280.71,-19.52 288.51,-26.7 291.28,-20.27"/>
</g>
<!-- Node9 -->
<g id="node9" class="node">
<title>Node9</title>
<g id="a_node9"><a xlink:title=" ">
<polygon fill="none" stroke="#bfbfbf" points="307,-0.5 307,-19.5 345,-19.5 345,-0.5 307,-0.5"/>
<text text-anchor="middle" x="326" y="-7.5" font-family="Helvetica,sans-Serif" font-size="10.00">array</text>
</a>
</g>
</g>
<!-- Node7&#45;&gt;Node9 -->
<g id="edge8" class="edge">
<title>Node7&#45;&gt;Node9</title>
<path fill="none" stroke="midnightblue" d="M376.36,-56.32C367.49,-48.34 354.13,-36.31 343.39,-26.65"/>
<polygon fill="midnightblue" stroke="midnightblue" points="345.59,-23.92 335.82,-19.83 340.91,-29.13 345.59,-23.92"/>
</g>
<!-- Node10 -->
<g id="node10" class="node">
<title>Node10</title>
<g id="a_node10"><a xlink:title=" ">
<polygon fill="none" stroke="#bfbfbf" points="363,-0.5 363,-19.5 409,-19.5 409,-0.5 363,-0.5"/>
<text text-anchor="middle" x="386" y="-7.5" font-family="Helvetica,sans-Serif" font-size="10.00">cstring</text>
</a>
</g>
</g>
<!-- Node7&#45;&gt;Node10 -->
<g id="edge9" class="edge">
<title>Node7&#45;&gt;Node10</title>
<path fill="none" stroke="midnightblue" d="M386,-56.08C386,-49.01 386,-38.86 386,-29.99"/>
<polygon fill="midnightblue" stroke="midnightblue" points="389.5,-29.75 386,-19.75 382.5,-29.75 389.5,-29.75"/>
</g>
<!-- Node11 -->
<g id="node11" class="node">
<title>Node11</title>
<g id="a_node11"><a xlink:title=" ">
<polygon fill="none" stroke="#bfbfbf" points="427,-0.5 427,-19.5 473,-19.5 473,-0.5 427,-0.5"/>
<text text-anchor="middle" x="450" y="-7.5" font-family="Helvetica,sans-Serif" font-size="10.00">ranges</text>
</a>
</g>
</g>
<!-- Node7&#45;&gt;Node11 -->
<g id="edge10" class="edge">
<title>Node7&#45;&gt;Node11</title>
<path fill="none" stroke="midnightblue" d="M396.28,-56.32C405.84,-48.26 420.28,-36.08 431.78,-26.37"/>
<polygon fill="midnightblue" stroke="midnightblue" points="434.14,-28.96 439.53,-19.83 429.63,-23.61 434.14,-28.96"/>
</g>
<!-- Node12 -->
<g id="node12" class="node">
<title>Node12</title>
<g id="a_node12"><a xlink:title=" ">
<polygon fill="none" stroke="#bfbfbf" points="491,-0.5 491,-19.5 535,-19.5 535,-0.5 491,-0.5"/>
<text text-anchor="middle" x="513" y="-7.5" font-family="Helvetica,sans-Serif" font-size="10.00">vector</text>
</a>
</g>
</g>
<!-- Node7&#45;&gt;Node12 -->
<g id="edge12" class="edge">
<title>Node7&#45;&gt;Node12</title>
<path fill="none" stroke="midnightblue" d="M406.12,-56.44C427.02,-47.56 459.93,-33.56 483.72,-23.45"/>
<polygon fill="midnightblue" stroke="midnightblue" points="485.14,-26.65 492.97,-19.52 482.4,-20.21 485.14,-26.65"/>
</g>
</g>
</svg>
