<?xml version="1.0" encoding="UTF-8" standalone="no"?>
<!DOCTYPE svg PUBLIC "-//W3C//DTD SVG 1.1//EN"
 "http://www.w3.org/Graphics/SVG/1.1/DTD/svg11.dtd">
<!-- Generated by graphviz version 2.47.1 (20210515.0534)
 -->
<!-- Title: elphi/include/elphi/sampler.hpp Pages: 1 -->
<svg width="542pt" height="151pt"
 viewBox="0.00 0.00 541.50 151.00" xmlns="http://www.w3.org/2000/svg" xmlns:xlink="http://www.w3.org/1999/xlink">
<g id="graph0" class="graph" transform="scale(1 1) rotate(0) translate(4 147)">
<title>elphi/include/elphi/sampler.hpp</title>
<!-- Node1 -->
<g id="node1" class="node">
<title>Node1</title>
<g id="a_node1"><a xlink:title=" ">
<polygon fill="#bfbfbf" stroke="black" points="185,-112.5 185,-142.5 279,-142.5 279,-112.5 185,-112.5"/>
<text text-anchor="start" x="193" y="-130.5" font-family="Helvetica,sans-Serif" font-size="10.00">elphi/include/elphi</text>
<text text-anchor="middle" x="232" y="-119.5" font-family="Helvetica,sans-Serif" font-size="10.00">/sampler.hpp</text>
</a>
</g>
</g>
<!-- Node2 -->
<g id="node2" class="node">
<title>Node2</title>
<g id="a_node2"><a xlink:title=" ">
<polygon fill="none" stroke="#bfbfbf" points="0,-56.5 0,-75.5 46,-75.5 46,-56.5 0,-56.5"/>
<text text-anchor="middle" x="23" y="-63.5" font-family="Helvetica,sans-Serif" font-size="10.00">chrono</text>
</a>
</g>
</g>
<!-- Node1&#45;&gt;Node2 -->
<g id="edge1" class="edge">
<title>Node1&#45;&gt;Node2</title>
<path fill="none" stroke="midnightblue" d="M184.84,-113.07C145.5,-101.87 90.46,-86.2 55.78,-76.33"/>
<polygon fill="midnightblue" stroke="midnightblue" points="56.72,-72.96 46.14,-73.59 54.8,-79.69 56.72,-72.96"/>
</g>
<!-- Node3 -->
<g id="node3" class="node">
<title>Node3</title>
<g id="a_node3"><a xlink:title=" ">
<polygon fill="none" stroke="#bfbfbf" points="64,-56.5 64,-75.5 110,-75.5 110,-56.5 64,-56.5"/>
<text text-anchor="middle" x="87" y="-63.5" font-family="Helvetica,sans-Serif" font-size="10.00">cstdint</text>
</a>
</g>
</g>
<!-- Node1&#45;&gt;Node3 -->
<g id="edge2" class="edge">
<title>Node1&#45;&gt;Node3</title>
<path fill="none" stroke="midnightblue" d="M197.64,-112.4C173.31,-102.42 140.97,-89.15 117.54,-79.53"/>
<polygon fill="midnightblue" stroke="midnightblue" points="118.68,-76.22 108.1,-75.66 116.02,-82.69 118.68,-76.22"/>
</g>
<!-- Node4 -->
<g id="node4" class="node">
<title>Node4</title>
<g id="a_node4"><a xlink:title=" ">
<polygon fill="none" stroke="#bfbfbf" points="128.5,-56.5 128.5,-75.5 193.5,-75.5 193.5,-56.5 128.5,-56.5"/>
<text text-anchor="middle" x="161" y="-63.5" font-family="Helvetica,sans-Serif" font-size="10.00">stop_token</text>
</a>
</g>
</g>
<!-- Node1&#45;&gt;Node4 -->
<g id="edge3" class="edge">
<title>Node1&#45;&gt;Node4</title>
<path fill="none" stroke="midnightblue" d="M215.17,-112.4C204.33,-103.31 190.22,-91.49 179.13,-82.19"/>
<polygon fill="midnightblue" stroke="midnightblue" points="181.24,-79.4 171.33,-75.66 176.75,-84.76 181.24,-79.4"/>
</g>
<!-- Node5 -->
<g id="node5" class="node">
<title>Node5</title>
<g id="a_node5"><a xlink:title=" ">
<polygon fill="none" stroke="#bfbfbf" points="211.5,-56.5 211.5,-75.5 252.5,-75.5 252.5,-56.5 211.5,-56.5"/>
<text text-anchor="middle" x="232" y="-63.5" font-family="Helvetica,sans-Serif" font-size="10.00">string</text>
</a>
</g>
</g>
<!-- Node1&#45;&gt;Node5 -->
<g id="edge4" class="edge">
<title>Node1&#45;&gt;Node5</title>
<path fill="none" stroke="midnightblue" d="M232,-112.4C232,-104.47 232,-94.46 232,-85.86"/>
<polygon fill="midnightblue" stroke="midnightblue" points="235.5,-85.66 232,-75.66 228.5,-85.66 235.5,-85.66"/>
</g>
<!-- Node6 -->
<g id="node6" class="node">
<title>Node6</title>
<g id="a_node6"><a xlink:title=" ">
<polygon fill="none" stroke="#bfbfbf" points="270.5,-56.5 270.5,-75.5 353.5,-75.5 353.5,-56.5 270.5,-56.5"/>
<text text-anchor="middle" x="312" y="-63.5" font-family="Helvetica,sans-Serif" font-size="10.00">unordered_map</text>
</a>
</g>
</g>
<!-- Node1&#45;&gt;Node6 -->
<g id="edge5" class="edge">
<title>Node1&#45;&gt;Node6</title>
<path fill="none" stroke="midnightblue" d="M250.96,-112.4C263.42,-103.13 279.7,-91.03 292.31,-81.65"/>
<polygon fill="midnightblue" stroke="midnightblue" points="294.42,-84.43 300.36,-75.66 290.25,-78.82 294.42,-84.43"/>
</g>
<!-- Node7 -->
<g id="node7" class="node">
<title>Node7</title>
<g id="a_node7"><a xlink:title=" ">
<polygon fill="none" stroke="#bfbfbf" points="372,-56.5 372,-75.5 416,-75.5 416,-56.5 372,-56.5"/>
<text text-anchor="middle" x="394" y="-63.5" font-family="Helvetica,sans-Serif" font-size="10.00">vector</text>
</a>
</g>
</g>
<!-- Node1&#45;&gt;Node7 -->
<g id="edge6" class="edge">
<title>Node1&#45;&gt;Node7</title>
<path fill="none" stroke="midnightblue" d="M270.39,-112.4C298.43,-102.1 336,-88.3 362.33,-78.63"/>
<polygon fill="midnightblue" stroke="midnightblue" points="363.65,-81.87 371.83,-75.14 361.24,-75.3 363.65,-81.87"/>
</g>
<!-- Node8 -->
<g id="node8" class="node">
<title>Node8</title>
<g id="a_node8"><a xlink:href="exception_8hpp.html" target="_top" xlink:title=" ">
<polygon fill="none" stroke="black" points="434.5,-56.5 434.5,-75.5 533.5,-75.5 533.5,-56.5 434.5,-56.5"/>
<text text-anchor="middle" x="484" y="-63.5" font-family="Helvetica,sans-Serif" font-size="10.00">elphi/exception.hpp</text>
</a>
</g>
</g>
<!-- Node1&#45;&gt;Node8 -->
<g id="edge7" class="edge">
<title>Node1&#45;&gt;Node8</title>
<path fill="none" stroke="midnightblue" d="M279.1,-115.38C324.53,-104.65 392.85,-88.52 437.93,-77.88"/>
<polygon fill="midnightblue" stroke="midnightblue" points="438.81,-81.27 447.74,-75.56 437.2,-74.45 438.81,-81.27"/>
</g>
<!-- Node9 -->
<g id="node9" class="node">
<title>Node9</title>
<g id="a_node9"><a xlink:title=" ">
<polygon fill="none" stroke="#bfbfbf" points="454.5,-0.5 454.5,-19.5 513.5,-19.5 513.5,-0.5 454.5,-0.5"/>
<text text-anchor="middle" x="484" y="-7.5" font-family="Helvetica,sans-Serif" font-size="10.00">stdexcept</text>
</a>
</g>
</g>
<!-- Node8&#45;&gt;Node9 -->
<g id="edge8" class="edge">
<title>Node8&#45;&gt;Node9</title>
<path fill="none" stroke="midnightblue" d="M484,-56.08C484,-49.01 484,-38.86 484,-29.99"/>
<polygon fill="midnightblue" stroke="midnightblue" points="487.5,-29.75 484,-19.75 480.5,-29.75 487.5,-29.75"/>
</g>
</g>
</svg>
