<?xml version="1.0" encoding="UTF-8" standalone="no"?>
<!DOCTYPE svg PUBLIC "-//W3C//DTD SVG 1.1//EN"
 "http://www.w3.org/Graphics/SVG/1.1/DTD/svg11.dtd">
<!-- Generated by graphviz version 2.47.1 (20210515.0534)
 -->
<!-- Title: elphi/include/elphi/sampler.hpp Pages: 1 -->
<svg width="482pt" height="173pt"
 viewBox="0.00 0.00 481.50 173.00" xmlns="http://www.w3.org/2000/svg" xmlns:xlink="http://www.w3.org/1999/xlink">
<g id="graph0" class="graph" transform="scale(1 1) rotate(0) translate(4 169)">
<title>elphi/include/elphi/sampler.hpp</title>
<!-- Node1 -->
<g id="node1" class="node">
<title>Node1</title>
<g id="a_node1"><a xlink:title=" ">
<polygon fill="#bfbfbf" stroke="black" points="251,-134.5 251,-164.5 345,-164.5 345,-134.5 251,-134.5"/>
<text text-anchor="start" x="259" y="-152.5" font-family="Helvetica,sans-Serif" font-size="10.00">elphi/include/elphi</text>
<text text-anchor="middle" x="298" y="-141.5" font-family="Helvetica,sans-Serif" font-size="10.00">/sampler.hpp</text>
</a>
</g>
</g>
<!-- Node2 -->
<g id="node2" class="node">
<title>Node2</title>
<g id="a_node2"><a xlink:href="perf__cpu__sampler_8hpp.html" target="_top" xlink:title=" ">
<polygon fill="none" stroke="black" points="116.5,-67.5 116.5,-97.5 231.5,-97.5 231.5,-67.5 116.5,-67.5"/>
<text text-anchor="start" x="124.5" y="-85.5" font-family="Helvetica,sans-Serif" font-size="10.00">elphi/include/elphi</text>
<text text-anchor="middle" x="174" y="-74.5" font-family="Helvetica,sans-Serif" font-size="10.00">/perf_cpu_sampler.hpp</text>
</a>
</g>
</g>
<!-- Node1&#45;&gt;Node2 -->
<g id="edge1" class="edge">
<title>Node1&#45;&gt;Node2</title>
<path fill="none" stroke="midnightblue" d="M262.16,-129.71C242.61,-119.46 218.8,-106.98 200.85,-97.58"/>
<polygon fill="midnightblue" stroke="midnightblue" points="260.61,-132.85 271.09,-134.4 263.86,-126.65 260.61,-132.85"/>
</g>
<!-- Node5 -->
<g id="node5" class="node">
<title>Node5</title>
<g id="a_node5"><a xlink:href="timeline__view_8hpp.html" target="_top" xlink:title=" ">
<polygon fill="none" stroke="black" points="249.5,-67.5 249.5,-97.5 346.5,-97.5 346.5,-67.5 249.5,-67.5"/>
<text text-anchor="start" x="257.5" y="-85.5" font-family="Helvetica,sans-Serif" font-size="10.00">elphi/include/elphi</text>
<text text-anchor="middle" x="298" y="-74.5" font-family="Helvetica,sans-Serif" font-size="10.00">/timeline_view.hpp</text>
</a>
</g>
</g>
<!-- Node1&#45;&gt;Node5 -->
<g id="edge4" class="edge">
<title>Node1&#45;&gt;Node5</title>
<path fill="none" stroke="midnightblue" d="M298,-124.11C298,-115.15 298,-105.32 298,-97.58"/>
<polygon fill="midnightblue" stroke="midnightblue" points="294.5,-124.4 298,-134.4 301.5,-124.4 294.5,-124.4"/>
</g>
<!-- Node7 -->
<g id="node7" class="node">
<title>Node7</title>
<g id="a_node7"><a xlink:href="sampler_8cpp.html" target="_top" xlink:title=" ">
<polygon fill="none" stroke="black" points="364.5,-73 364.5,-92 473.5,-92 473.5,-73 364.5,-73"/>
<text text-anchor="middle" x="419" y="-80" font-family="Helvetica,sans-Serif" font-size="10.00">elphi/src/sampler.cpp</text>
</a>
</g>
</g>
<!-- Node1&#45;&gt;Node7 -->
<g id="edge6" class="edge">
<title>Node1&#45;&gt;Node7</title>
<path fill="none" stroke="midnightblue" d="M333.11,-129.64C356.26,-117.2 385.47,-101.51 403.16,-92.01"/>
<polygon fill="midnightblue" stroke="midnightblue" points="331.41,-126.58 324.26,-134.4 334.72,-132.75 331.41,-126.58"/>
</g>
<!-- Node3 -->
<g id="node3" class="node">
<title>Node3</title>
<g id="a_node3"><a xlink:href="system__sampling_8cpp.html" target="_top" xlink:title=" ">
<polygon fill="none" stroke="black" points="0,-0.5 0,-30.5 116,-30.5 116,-0.5 0,-0.5"/>
<text text-anchor="start" x="8" y="-18.5" font-family="Helvetica,sans-Serif" font-size="10.00">elphi/examples/system</text>
<text text-anchor="middle" x="58" y="-7.5" font-family="Helvetica,sans-Serif" font-size="10.00">_sampling.cpp</text>
</a>
</g>
</g>
<!-- Node2&#45;&gt;Node3 -->
<g id="edge2" class="edge">
<title>Node2&#45;&gt;Node3</title>
<path fill="none" stroke="midnightblue" d="M139.73,-62.3C121.58,-52.12 99.68,-39.85 83.12,-30.58"/>
<polygon fill="midnightblue" stroke="midnightblue" points="138.4,-65.56 148.83,-67.4 141.82,-59.45 138.4,-65.56"/>
</g>
<!-- Node4 -->
<g id="node4" class="node">
<title>Node4</title>
<g id="a_node4"><a xlink:href="perf__cpu__sampler_8cpp.html" target="_top" xlink:title=" ">
<polygon fill="none" stroke="black" points="134,-0.5 134,-30.5 228,-30.5 228,-0.5 134,-0.5"/>
<text text-anchor="start" x="142" y="-18.5" font-family="Helvetica,sans-Serif" font-size="10.00">elphi/src/perf_cpu</text>
<text text-anchor="middle" x="181" y="-7.5" font-family="Helvetica,sans-Serif" font-size="10.00">_sampler.cpp</text>
</a>
</g>
</g>
<!-- Node2&#45;&gt;Node4 -->
<g id="edge3" class="edge">
<title>Node2&#45;&gt;Node4</title>
<path fill="none" stroke="midnightblue" d="M176.6,-57.4C177.57,-48.37 178.64,-38.41 179.48,-30.58"/>
<polygon fill="midnightblue" stroke="midnightblue" points="173.11,-57.08 175.52,-67.4 180.07,-57.83 173.11,-57.08"/>
</g>
<!-- Node6 -->
<g id="node6" class="node">
<title>Node6</title>
<g id="a_node6"><a xlink:href="timeline__view_8cpp.html" target="_top" xlink:title=" ">
<polygon fill="none" stroke="black" points="253,-0.5 253,-30.5 343,-30.5 343,-0.5 253,-0.5"/>
<text text-anchor="start" x="261" y="-18.5" font-family="Helvetica,sans-Serif" font-size="10.00">elphi/src/timeline</text>
<text text-anchor="middle" x="298" y="-7.5" font-family="Helvetica,sans-Serif" font-size="10.00">_view.cpp</text>
</a>
</g>
</g>
<!-- Node5&#45;&gt;Node6 -->
<g id="edge5" class="edge">
<title>Node5&#45;&gt;Node6</title>
<path fill="none" stroke="midnightblue" d="M298,-57.11C298,-48.15 298,-38.32 298,-30.58"/>
<polygon fill="midnightblue" stroke="midnightblue" points="294.5,-57.4 298,-67.4 301.5,-57.4 294.5,-57.4"/>
</g>
</g>
</svg>
