<?xml version="1.0" encoding="UTF-8" standalone="no"?>
<!DOCTYPE svg PUBLIC "-//W3C//DTD SVG 1.1//EN"
 "http://www.w3.org/Graphics/SVG/1.1/DTD/svg11.dtd">
<!-- Generated by graphviz version 2.47.1 (20210515.0534)
 -->
<!-- Title: elphi::CpuSamplingResult Pages: 1 -->
<svg width="227pt" height="241pt"
 viewBox="0.00 0.00 226.50 241.00" xmlns="http://www.w3.org/2000/svg" xmlns:xlink="http://www.w3.org/1999/xlink">
<g id="graph0" class="graph" transform="scale(1 1) rotate(0) translate(4 237)">
<title>elphi::CpuSamplingResult</title>
<!-- Node1 -->
<g id="node1" class="node">
<title>Node1</title>
<g id="a_node1"><a xlink:title=" ">
<polygon fill="#bfbfbf" stroke="black" points="49,-0.5 49,-19.5 176,-19.5 176,-0.5 49,-0.5"/>
<text text-anchor="middle" x="112.5" y="-7.5" font-family="Helvetica,sans-Serif" font-size="10.00">elphi::CpuSamplingResult</text>
</a>
</g>
</g>
<!-- Node2 -->
<g id="node2" class="node">
<title>Node2</title>
<g id="a_node2"><a xlink:title=" ">
<polygon fill="none" stroke="#bfbfbf" points="0,-67.5 0,-97.5 109,-97.5 109,-67.5 0,-67.5"/>
<text text-anchor="start" x="8" y="-85.5" font-family="Helvetica,sans-Serif" font-size="10.00">std::unordered_map</text>
<text text-anchor="middle" x="54.5" y="-74.5" font-family="Helvetica,sans-Serif" font-size="10.00">&lt; ProcId, std::string &gt;</text>
</a>
</g>
</g>
<!-- Node2&#45;&gt;Node1 -->
<g id="edge1" class="edge">
<title>Node2&#45;&gt;Node1</title>
<path fill="none" stroke="#9a32cd" stroke-dasharray="5,2" d="M61.4,-57.85C64.13,-50.98 67.78,-43.78 72.5,-38 78.65,-30.47 87.44,-24.22 95.21,-19.64"/>
<polygon fill="#9a32cd" stroke="#9a32cd" points="58.03,-56.87 58.02,-67.46 64.64,-59.19 58.03,-56.87"/>
<text text-anchor="middle" x="108.5" y="-41" font-family="Helvetica,sans-Serif" font-size="10.00"> process_names</text>
</g>
<!-- Node3 -->
<g id="node3" class="node">
<title>Node3</title>
<g id="a_node3"><a xlink:title=" ">
<polygon fill="none" stroke="#bfbfbf" points="25,-145.5 25,-164.5 84,-164.5 84,-145.5 25,-145.5"/>
<text text-anchor="middle" x="54.5" y="-152.5" font-family="Helvetica,sans-Serif" font-size="10.00">std::string</text>
</a>
</g>
</g>
<!-- Node3&#45;&gt;Node2 -->
<g id="edge2" class="edge">
<title>Node3&#45;&gt;Node2</title>
<path fill="none" stroke="#9a32cd" stroke-dasharray="5,2" d="M54.5,-135.24C54.5,-123.41 54.5,-108.38 54.5,-97.58"/>
<polygon fill="#9a32cd" stroke="#9a32cd" points="51,-135.36 54.5,-145.36 58,-135.36 51,-135.36"/>
<text text-anchor="middle" x="76" y="-119" font-family="Helvetica,sans-Serif" font-size="10.00"> elements</text>
</g>
<!-- Node4 -->
<g id="node4" class="node">
<title>Node4</title>
<g id="a_node4"><a xlink:title=" ">
<polygon fill="none" stroke="#bfbfbf" points="8,-202.5 8,-232.5 101,-232.5 101,-202.5 8,-202.5"/>
<text text-anchor="start" x="16" y="-220.5" font-family="Helvetica,sans-Serif" font-size="10.00">std::basic_string&lt;</text>
<text text-anchor="middle" x="54.5" y="-209.5" font-family="Helvetica,sans-Serif" font-size="10.00"> Char &gt;</text>
</a>
</g>
</g>
<!-- Node4&#45;&gt;Node3 -->
<g id="edge3" class="edge">
<title>Node4&#45;&gt;Node3</title>
<path fill="none" stroke="midnightblue" d="M54.5,-192.35C54.5,-182.51 54.5,-171.78 54.5,-164.54"/>
<polygon fill="midnightblue" stroke="midnightblue" points="51,-192.47 54.5,-202.47 58,-192.47 51,-192.47"/>
</g>
<!-- Node5 -->
<g id="node5" class="node">
<title>Node5</title>
<g id="a_node5"><a xlink:title=" ">
<polygon fill="none" stroke="#bfbfbf" points="127.5,-67.5 127.5,-97.5 217.5,-97.5 217.5,-67.5 127.5,-67.5"/>
<text text-anchor="start" x="135.5" y="-85.5" font-family="Helvetica,sans-Serif" font-size="10.00">std::vector&lt; elphi</text>
<text text-anchor="middle" x="172.5" y="-74.5" font-family="Helvetica,sans-Serif" font-size="10.00">::CpuSample &gt;</text>
</a>
</g>
</g>
<!-- Node5&#45;&gt;Node1 -->
<g id="edge4" class="edge">
<title>Node5&#45;&gt;Node1</title>
<path fill="none" stroke="#9a32cd" stroke-dasharray="5,2" d="M159.48,-58.49C155.12,-51.59 149.96,-44.22 144.5,-38 138.55,-31.23 130.86,-24.68 124.5,-19.73"/>
<polygon fill="#9a32cd" stroke="#9a32cd" points="156.73,-60.69 164.9,-67.44 162.72,-57.07 156.73,-60.69"/>
<text text-anchor="middle" x="172.5" y="-41" font-family="Helvetica,sans-Serif" font-size="10.00"> samples</text>
</g>
<!-- Node6 -->
<g id="node6" class="node">
<title>Node6</title>
<g id="a_node6"><a xlink:href="structelphi_1_1CpuSample.html" target="_top" xlink:title=" ">
<polygon fill="none" stroke="black" points="126.5,-145.5 126.5,-164.5 218.5,-164.5 218.5,-145.5 126.5,-145.5"/>
<text text-anchor="middle" x="172.5" y="-152.5" font-family="Helvetica,sans-Serif" font-size="10.00">elphi::CpuSample</text>
</a>
</g>
</g>
<!-- Node6&#45;&gt;Node5 -->
<g id="edge5" class="edge">
<title>Node6&#45;&gt;Node5</title>
<path fill="none" stroke="#9a32cd" stroke-dasharray="5,2" d="M172.5,-135.24C172.5,-123.41 172.5,-108.38 172.5,-97.58"/>
<polygon fill="#9a32cd" stroke="#9a32cd" points="169,-135.36 172.5,-145.36 176,-135.36 169,-135.36"/>
<text text-anchor="middle" x="194" y="-119" font-family="Helvetica,sans-Serif" font-size="10.00"> elements</text>
</g>
</g>
</svg>
