<?xml version="1.0" encoding="UTF-8" standalone="no"?>
<!DOCTYPE svg PUBLIC "-//W3C//DTD SVG 1.1//EN"
 "http://www.w3.org/Graphics/SVG/1.1/DTD/svg11.dtd">
<!-- Generated by graphviz version 2.47.1 (20210515.0534)
 -->
<!-- Title: elphi/examples/system_sampling.cpp Pages: 1 -->
<svg width="966pt" height="263pt"
 viewBox="0.00 0.00 965.50 263.00" xmlns="http://www.w3.org/2000/svg" xmlns:xlink="http://www.w3.org/1999/xlink">
<g id="graph0" class="graph" transform="scale(1 1) rotate(0) translate(4 259)">
<title>elphi/examples/system_sampling.cpp</title>
<!-- Node1 -->
<g id="node1" class="node">
<title>Node1</title>
<g id="a_node1"><a xlink:title=" ">
<polygon fill="#bfbfbf" stroke="black" points="164,-224.5 164,-254.5 280,-254.5 280,-224.5 164,-224.5"/>
<text text-anchor="start" x="172" y="-242.5" font-family="Helvetica,sans-Serif" font-size="10.00">elphi/examples/system</text>
<text text-anchor="middle" x="222" y="-231.5" font-family="Helvetica,sans-Serif" font-size="10.00">_sampling.cpp</text>
</a>
</g>
</g>
<!-- Node2 -->
<g id="node2" class="node">
<title>Node2</title>
<g id="a_node2"><a xlink:title=" ">
<polygon fill="none" stroke="#bfbfbf" points="124.5,-168.5 124.5,-187.5 173.5,-187.5 173.5,-168.5 124.5,-168.5"/>
<text text-anchor="middle" x="149" y="-175.5" font-family="Helvetica,sans-Serif" font-size="10.00">cassert</text>
</a>
</g>
</g>
<!-- Node1&#45;&gt;Node2 -->
<g id="edge1" class="edge">
<title>Node1&#45;&gt;Node2</title>
<path fill="none" stroke="midnightblue" d="M204.7,-224.4C193.55,-215.31 179.05,-203.49 167.64,-194.19"/>
<polygon fill="midnightblue" stroke="midnightblue" points="169.58,-191.26 159.62,-187.66 165.16,-196.69 169.58,-191.26"/>
</g>
<!-- Node3 -->
<g id="node3" class="node">
<title>Node3</title>
<g id="a_node3"><a xlink:title=" ">
<polygon fill="none" stroke="#bfbfbf" points="192,-168.5 192,-187.5 252,-187.5 252,-168.5 192,-168.5"/>
<text text-anchor="middle" x="222" y="-175.5" font-family="Helvetica,sans-Serif" font-size="10.00">fmt/core.h</text>
</a>
</g>
</g>
<!-- Node1&#45;&gt;Node3 -->
<g id="edge2" class="edge">
<title>Node1&#45;&gt;Node3</title>
<path fill="none" stroke="midnightblue" d="M222,-224.4C222,-216.47 222,-206.46 222,-197.86"/>
<polygon fill="midnightblue" stroke="midnightblue" points="225.5,-197.66 222,-187.66 218.5,-197.66 225.5,-197.66"/>
</g>
<!-- Node4 -->
<g id="node4" class="node">
<title>Node4</title>
<g id="a_node4"><a xlink:href="perf__cpu__sampler_8hpp.html" target="_top" xlink:title=" ">
<polygon fill="none" stroke="black" points="270.5,-168.5 270.5,-187.5 405.5,-187.5 405.5,-168.5 270.5,-168.5"/>
<text text-anchor="middle" x="338" y="-175.5" font-family="Helvetica,sans-Serif" font-size="10.00">elphi/perf_cpu_sampler.hpp</text>
</a>
</g>
</g>
<!-- Node1&#45;&gt;Node4 -->
<g id="edge3" class="edge">
<title>Node1&#45;&gt;Node4</title>
<path fill="none" stroke="midnightblue" d="M249.49,-224.4C268.43,-214.68 293.44,-201.86 312.04,-192.31"/>
<polygon fill="midnightblue" stroke="midnightblue" points="313.82,-195.34 321.12,-187.66 310.63,-189.11 313.82,-195.34"/>
</g>
<!-- Node5 -->
<g id="node5" class="node">
<title>Node5</title>
<g id="a_node5"><a xlink:title=" ">
<polygon fill="none" stroke="#bfbfbf" points="146.5,-112.5 146.5,-131.5 185.5,-131.5 185.5,-112.5 146.5,-112.5"/>
<text text-anchor="middle" x="166" y="-119.5" font-family="Helvetica,sans-Serif" font-size="10.00">poll.h</text>
</a>
</g>
</g>
<!-- Node4&#45;&gt;Node5 -->
<g id="edge4" class="edge">
<title>Node4&#45;&gt;Node5</title>
<path fill="none" stroke="midnightblue" d="M310.75,-168.44C279.29,-158.57 227.75,-142.39 195.41,-132.23"/>
<polygon fill="midnightblue" stroke="midnightblue" points="196.23,-128.82 185.64,-129.16 194.13,-135.5 196.23,-128.82"/>
</g>
<!-- Node6 -->
<g id="node6" class="node">
<title>Node6</title>
<g id="a_node6"><a xlink:href="file__descriptor_8hpp.html" target="_top" xlink:title=" ">
<polygon fill="none" stroke="black" points="358,-112.5 358,-131.5 476,-131.5 476,-112.5 358,-112.5"/>
<text text-anchor="middle" x="417" y="-119.5" font-family="Helvetica,sans-Serif" font-size="10.00">elphi/file_descriptor.hpp</text>
</a>
</g>
</g>
<!-- Node4&#45;&gt;Node6 -->
<g id="edge5" class="edge">
<title>Node4&#45;&gt;Node6</title>
<path fill="none" stroke="midnightblue" d="M350.69,-168.32C362.9,-159.98 381.58,-147.21 396,-137.35"/>
<polygon fill="midnightblue" stroke="midnightblue" points="398.06,-140.19 404.34,-131.65 394.11,-134.41 398.06,-140.19"/>
</g>
<!-- Node8 -->
<g id="node8" class="node">
<title>Node8</title>
<g id="a_node8"><a xlink:href="perf__events_8hpp.html" target="_top" xlink:title=" ">
<polygon fill="none" stroke="black" points="203.5,-112.5 203.5,-131.5 312.5,-131.5 312.5,-112.5 203.5,-112.5"/>
<text text-anchor="middle" x="258" y="-119.5" font-family="Helvetica,sans-Serif" font-size="10.00">elphi/perf_events.hpp</text>
</a>
</g>
</g>
<!-- Node4&#45;&gt;Node8 -->
<g id="edge7" class="edge">
<title>Node4&#45;&gt;Node8</title>
<path fill="none" stroke="midnightblue" d="M325.15,-168.32C312.78,-159.98 293.87,-147.21 279.26,-137.35"/>
<polygon fill="midnightblue" stroke="midnightblue" points="281.07,-134.35 270.82,-131.65 277.15,-140.15 281.07,-134.35"/>
</g>
<!-- Node20 -->
<g id="node20" class="node">
<title>Node20</title>
<g id="a_node20"><a xlink:href="sampler_8hpp.html" target="_top" xlink:title=" ">
<polygon fill="none" stroke="black" points="599,-112.5 599,-131.5 691,-131.5 691,-112.5 599,-112.5"/>
<text text-anchor="middle" x="645" y="-119.5" font-family="Helvetica,sans-Serif" font-size="10.00">elphi/sampler.hpp</text>
</a>
</g>
</g>
<!-- Node4&#45;&gt;Node20 -->
<g id="edge21" class="edge">
<title>Node4&#45;&gt;Node20</title>
<path fill="none" stroke="midnightblue" d="M386.65,-168.44C441.51,-158.79 530.62,-143.12 588.51,-132.94"/>
<polygon fill="midnightblue" stroke="midnightblue" points="589.35,-136.34 598.59,-131.16 588.14,-129.45 589.35,-136.34"/>
</g>
<!-- Node7 -->
<g id="node7" class="node">
<title>Node7</title>
<g id="a_node7"><a xlink:title=" ">
<polygon fill="none" stroke="#bfbfbf" points="448,-56.5 448,-75.5 494,-75.5 494,-56.5 448,-56.5"/>
<text text-anchor="middle" x="471" y="-63.5" font-family="Helvetica,sans-Serif" font-size="10.00">cstdint</text>
</a>
</g>
</g>
<!-- Node6&#45;&gt;Node7 -->
<g id="edge6" class="edge">
<title>Node6&#45;&gt;Node7</title>
<path fill="none" stroke="midnightblue" d="M425.92,-112.08C433.78,-104.22 445.43,-92.57 454.92,-83.08"/>
<polygon fill="midnightblue" stroke="midnightblue" points="457.65,-85.3 462.25,-75.75 452.7,-80.35 457.65,-85.3"/>
</g>
<!-- Node9 -->
<g id="node9" class="node">
<title>Node9</title>
<g id="a_node9"><a xlink:title=" ">
<polygon fill="none" stroke="#bfbfbf" points="206,-56.5 206,-75.5 256,-75.5 256,-56.5 206,-56.5"/>
<text text-anchor="middle" x="231" y="-63.5" font-family="Helvetica,sans-Serif" font-size="10.00">optional</text>
</a>
</g>
</g>
<!-- Node8&#45;&gt;Node9 -->
<g id="edge8" class="edge">
<title>Node8&#45;&gt;Node9</title>
<path fill="none" stroke="midnightblue" d="M253.54,-112.08C249.85,-104.69 244.48,-93.95 239.91,-84.81"/>
<polygon fill="midnightblue" stroke="midnightblue" points="242.98,-83.13 235.38,-75.75 236.72,-86.26 242.98,-83.13"/>
</g>
<!-- Node10 -->
<g id="node10" class="node">
<title>Node10</title>
<g id="a_node10"><a xlink:title=" ">
<polygon fill="none" stroke="#bfbfbf" points="68,-0.5 68,-19.5 106,-19.5 106,-0.5 68,-0.5"/>
<text text-anchor="middle" x="87" y="-7.5" font-family="Helvetica,sans-Serif" font-size="10.00">span</text>
</a>
</g>
</g>
<!-- Node8&#45;&gt;Node10 -->
<g id="edge9" class="edge">
<title>Node8&#45;&gt;Node10</title>
<path fill="none" stroke="midnightblue" d="M209.73,-112.44C169.97,-104.43 117.79,-91.42 103,-76 91.32,-63.83 87.74,-44.55 86.83,-30.15"/>
<polygon fill="midnightblue" stroke="midnightblue" points="90.32,-29.78 86.57,-19.87 83.33,-29.96 90.32,-29.78"/>
</g>
<!-- Node11 -->
<g id="node11" class="node">
<title>Node11</title>
<g id="a_node11"><a xlink:title=" ">
<polygon fill="none" stroke="#bfbfbf" points="274,-56.5 274,-75.5 320,-75.5 320,-56.5 274,-56.5"/>
<text text-anchor="middle" x="297" y="-63.5" font-family="Helvetica,sans-Serif" font-size="10.00">variant</text>
</a>
</g>
</g>
<!-- Node8&#45;&gt;Node11 -->
<g id="edge10" class="edge">
<title>Node8&#45;&gt;Node11</title>
<path fill="none" stroke="midnightblue" d="M264.44,-112.08C269.95,-104.46 278.03,-93.26 284.76,-83.94"/>
<polygon fill="midnightblue" stroke="midnightblue" points="287.66,-85.91 290.68,-75.75 281.99,-81.81 287.66,-85.91"/>
</g>
<!-- Node12 -->
<g id="node12" class="node">
<title>Node12</title>
<g id="a_node12"><a xlink:title=" ">
<polygon fill="none" stroke="#bfbfbf" points="338,-56.5 338,-75.5 430,-75.5 430,-56.5 338,-56.5"/>
<text text-anchor="middle" x="384" y="-63.5" font-family="Helvetica,sans-Serif" font-size="10.00">linux/perf_event.h</text>
</a>
</g>
</g>
<!-- Node8&#45;&gt;Node12 -->
<g id="edge11" class="edge">
<title>Node8&#45;&gt;Node12</title>
<path fill="none" stroke="midnightblue" d="M277.97,-112.44C298.61,-103.6 331.06,-89.69 354.63,-79.59"/>
<polygon fill="midnightblue" stroke="midnightblue" points="356.32,-82.67 364.13,-75.52 353.56,-76.24 356.32,-82.67"/>
</g>
<!-- Node13 -->
<g id="node13" class="node">
<title>Node13</title>
<g id="a_node13"><a xlink:title=" ">
<polygon fill="none" stroke="#bfbfbf" points="0,-0.5 0,-19.5 50,-19.5 50,-0.5 0,-0.5"/>
<text text-anchor="middle" x="25" y="-7.5" font-family="Helvetica,sans-Serif" font-size="10.00">unistd.h</text>
</a>
</g>
</g>
<!-- Node8&#45;&gt;Node13 -->
<g id="edge12" class="edge">
<title>Node8&#45;&gt;Node13</title>
<path fill="none" stroke="midnightblue" d="M215.76,-112.42C173.06,-103.28 110.39,-88.44 89,-76 67.91,-63.74 49.03,-42.7 37.34,-27.89"/>
<polygon fill="midnightblue" stroke="midnightblue" points="39.87,-25.44 31.03,-19.6 34.3,-29.68 39.87,-25.44"/>
</g>
<!-- Node14 -->
<g id="node14" class="node">
<title>Node14</title>
<g id="a_node14"><a xlink:href="utils_8hpp.html" target="_top" xlink:title=" ">
<polygon fill="none" stroke="black" points="112,-56.5 112,-75.5 188,-75.5 188,-56.5 112,-56.5"/>
<text text-anchor="middle" x="150" y="-63.5" font-family="Helvetica,sans-Serif" font-size="10.00">elphi/utils.hpp</text>
</a>
</g>
</g>
<!-- Node8&#45;&gt;Node14 -->
<g id="edge13" class="edge">
<title>Node8&#45;&gt;Node14</title>
<path fill="none" stroke="midnightblue" d="M240.65,-112.32C223.33,-103.66 196.48,-90.24 176.5,-80.25"/>
<polygon fill="midnightblue" stroke="midnightblue" points="177.82,-77 167.31,-75.65 174.69,-83.26 177.82,-77"/>
</g>
<!-- Node14&#45;&gt;Node10 -->
<g id="edge18" class="edge">
<title>Node14&#45;&gt;Node10</title>
<path fill="none" stroke="midnightblue" d="M139.88,-56.32C130.47,-48.26 116.26,-36.08 104.93,-26.37"/>
<polygon fill="midnightblue" stroke="midnightblue" points="107.18,-23.68 97.31,-19.83 102.62,-29 107.18,-23.68"/>
</g>
<!-- Node14&#45;&gt;Node13 -->
<g id="edge20" class="edge">
<title>Node14&#45;&gt;Node13</title>
<path fill="none" stroke="midnightblue" d="M130.19,-56.44C109.71,-47.6 77.52,-33.69 54.14,-23.59"/>
<polygon fill="midnightblue" stroke="midnightblue" points="55.28,-20.27 44.71,-19.52 52.51,-26.7 55.28,-20.27"/>
</g>
<!-- Node15 -->
<g id="node15" class="node">
<title>Node15</title>
<g id="a_node15"><a xlink:title=" ">
<polygon fill="none" stroke="#bfbfbf" points="188,-0.5 188,-19.5 244,-19.5 244,-0.5 188,-0.5"/>
<text text-anchor="middle" x="216" y="-7.5" font-family="Helvetica,sans-Serif" font-size="10.00">algorithm</text>
</a>
</g>
</g>
<!-- Node14&#45;&gt;Node15 -->
<g id="edge14" class="edge">
<title>Node14&#45;&gt;Node15</title>
<path fill="none" stroke="midnightblue" d="M160.6,-56.32C170.46,-48.26 185.35,-36.08 197.22,-26.37"/>
<polygon fill="midnightblue" stroke="midnightblue" points="199.68,-28.88 205.2,-19.83 195.25,-23.46 199.68,-28.88"/>
</g>
<!-- Node16 -->
<g id="node16" class="node">
<title>Node16</title>
<g id="a_node16"><a xlink:title=" ">
<polygon fill="none" stroke="#bfbfbf" points="262,-0.5 262,-19.5 300,-19.5 300,-0.5 262,-0.5"/>
<text text-anchor="middle" x="281" y="-7.5" font-family="Helvetica,sans-Serif" font-size="10.00">array</text>
</a>
</g>
</g>
<!-- Node14&#45;&gt;Node16 -->
<g id="edge15" class="edge">
<title>Node14&#45;&gt;Node16</title>
<path fill="none" stroke="midnightblue" d="M170.76,-56.44C192.7,-47.4 227.47,-33.07 252.08,-22.92"/>
<polygon fill="midnightblue" stroke="midnightblue" points="253.71,-26.04 261.62,-18.99 251.04,-19.56 253.71,-26.04"/>
</g>
<!-- Node17 -->
<g id="node17" class="node">
<title>Node17</title>
<g id="a_node17"><a xlink:title=" ">
<polygon fill="none" stroke="#bfbfbf" points="318,-0.5 318,-19.5 364,-19.5 364,-0.5 318,-0.5"/>
<text text-anchor="middle" x="341" y="-7.5" font-family="Helvetica,sans-Serif" font-size="10.00">cstring</text>
</a>
</g>
</g>
<!-- Node14&#45;&gt;Node17 -->
<g id="edge16" class="edge">
<title>Node14&#45;&gt;Node17</title>
<path fill="none" stroke="midnightblue" d="M180.26,-56.44C215.02,-46.62 271.85,-30.55 307.79,-20.39"/>
<polygon fill="midnightblue" stroke="midnightblue" points="309.12,-23.65 317.79,-17.56 307.21,-16.92 309.12,-23.65"/>
</g>
<!-- Node18 -->
<g id="node18" class="node">
<title>Node18</title>
<g id="a_node18"><a xlink:title=" ">
<polygon fill="none" stroke="#bfbfbf" points="124,-0.5 124,-19.5 170,-19.5 170,-0.5 124,-0.5"/>
<text text-anchor="middle" x="147" y="-7.5" font-family="Helvetica,sans-Serif" font-size="10.00">ranges</text>
</a>
</g>
</g>
<!-- Node14&#45;&gt;Node18 -->
<g id="edge17" class="edge">
<title>Node14&#45;&gt;Node18</title>
<path fill="none" stroke="midnightblue" d="M149.5,-56.08C149.11,-49.01 148.55,-38.86 148.05,-29.99"/>
<polygon fill="midnightblue" stroke="midnightblue" points="151.54,-29.54 147.49,-19.75 144.55,-29.93 151.54,-29.54"/>
</g>
<!-- Node19 -->
<g id="node19" class="node">
<title>Node19</title>
<g id="a_node19"><a xlink:title=" ">
<polygon fill="none" stroke="#bfbfbf" points="443,-0.5 443,-19.5 487,-19.5 487,-0.5 443,-0.5"/>
<text text-anchor="middle" x="465" y="-7.5" font-family="Helvetica,sans-Serif" font-size="10.00">vector</text>
</a>
</g>
</g>
<!-- Node14&#45;&gt;Node19 -->
<g id="edge19" class="edge">
<title>Node14&#45;&gt;Node19</title>
<path fill="none" stroke="midnightblue" d="M188.21,-57.61C191.18,-57.06 194.14,-56.51 197,-56 281.97,-40.73 382.39,-24.3 432.77,-16.17"/>
<polygon fill="midnightblue" stroke="midnightblue" points="433.42,-19.61 442.73,-14.56 432.3,-12.7 433.42,-19.61"/>
</g>
<!-- Node20&#45;&gt;Node7 -->
<g id="edge23" class="edge">
<title>Node20&#45;&gt;Node7</title>
<path fill="none" stroke="midnightblue" d="M617.43,-112.44C586.6,-102.88 536.7,-87.39 503.87,-77.2"/>
<polygon fill="midnightblue" stroke="midnightblue" points="504.85,-73.84 494.27,-74.22 502.78,-80.53 504.85,-73.84"/>
</g>
<!-- Node20&#45;&gt;Node19 -->
<g id="edge27" class="edge">
<title>Node20&#45;&gt;Node19</title>
<path fill="none" stroke="midnightblue" d="M619.86,-112.35C598.36,-104.42 567.02,-91.56 542,-76 519.19,-61.81 496.04,-41.26 481.16,-27.08"/>
<polygon fill="midnightblue" stroke="midnightblue" points="483.42,-24.39 473.81,-19.94 478.54,-29.41 483.42,-24.39"/>
</g>
<!-- Node21 -->
<g id="node21" class="node">
<title>Node21</title>
<g id="a_node21"><a xlink:title=" ">
<polygon fill="none" stroke="#bfbfbf" points="668,-56.5 668,-75.5 714,-75.5 714,-56.5 668,-56.5"/>
<text text-anchor="middle" x="691" y="-63.5" font-family="Helvetica,sans-Serif" font-size="10.00">chrono</text>
</a>
</g>
</g>
<!-- Node20&#45;&gt;Node21 -->
<g id="edge22" class="edge">
<title>Node20&#45;&gt;Node21</title>
<path fill="none" stroke="midnightblue" d="M652.6,-112.08C659.23,-104.3 669.02,-92.8 677.06,-83.37"/>
<polygon fill="midnightblue" stroke="midnightblue" points="679.73,-85.63 683.55,-75.75 674.4,-81.09 679.73,-85.63"/>
</g>
<!-- Node22 -->
<g id="node22" class="node">
<title>Node22</title>
<g id="a_node22"><a xlink:title=" ">
<polygon fill="none" stroke="#bfbfbf" points="732.5,-56.5 732.5,-75.5 797.5,-75.5 797.5,-56.5 732.5,-56.5"/>
<text text-anchor="middle" x="765" y="-63.5" font-family="Helvetica,sans-Serif" font-size="10.00">stop_token</text>
</a>
</g>
</g>
<!-- Node20&#45;&gt;Node22 -->
<g id="edge24" class="edge">
<title>Node20&#45;&gt;Node22</title>
<path fill="none" stroke="midnightblue" d="M664.01,-112.44C683.59,-103.64 714.31,-89.81 736.73,-79.72"/>
<polygon fill="midnightblue" stroke="midnightblue" points="738.39,-82.81 746.07,-75.52 735.52,-76.43 738.39,-82.81"/>
</g>
<!-- Node23 -->
<g id="node23" class="node">
<title>Node23</title>
<g id="a_node23"><a xlink:title=" ">
<polygon fill="none" stroke="#bfbfbf" points="815.5,-56.5 815.5,-75.5 856.5,-75.5 856.5,-56.5 815.5,-56.5"/>
<text text-anchor="middle" x="836" y="-63.5" font-family="Helvetica,sans-Serif" font-size="10.00">string</text>
</a>
</g>
</g>
<!-- Node20&#45;&gt;Node23 -->
<g id="edge25" class="edge">
<title>Node20&#45;&gt;Node23</title>
<path fill="none" stroke="midnightblue" d="M676.74,-112.48C707.48,-104.17 755.63,-90.98 805.72,-76.32"/>
<polygon fill="midnightblue" stroke="midnightblue" points="806.82,-79.64 815.43,-73.47 804.85,-72.93 806.82,-79.64"/>
</g>
<!-- Node24 -->
<g id="node24" class="node">
<title>Node24</title>
<g id="a_node24"><a xlink:title=" ">
<polygon fill="none" stroke="#bfbfbf" points="874.5,-56.5 874.5,-75.5 957.5,-75.5 957.5,-56.5 874.5,-56.5"/>
<text text-anchor="middle" x="916" y="-63.5" font-family="Helvetica,sans-Serif" font-size="10.00">unordered_map</text>
</a>
</g>
</g>
<!-- Node20&#45;&gt;Node24 -->
<g id="edge26" class="edge">
<title>Node20&#45;&gt;Node24</title>
<path fill="none" stroke="midnightblue" d="M687.94,-112.44C735.79,-102.91 813.15,-87.49 864.29,-77.3"/>
<polygon fill="midnightblue" stroke="midnightblue" points="865.03,-80.73 874.15,-75.34 863.66,-73.86 865.03,-80.73"/>
</g>
<!-- Node25 -->
<g id="node25" class="node">
<title>Node25</title>
<g id="a_node25"><a xlink:href="exception_8hpp.html" target="_top" xlink:title=" ">
<polygon fill="none" stroke="black" points="550.5,-56.5 550.5,-75.5 649.5,-75.5 649.5,-56.5 550.5,-56.5"/>
<text text-anchor="middle" x="600" y="-63.5" font-family="Helvetica,sans-Serif" font-size="10.00">elphi/exception.hpp</text>
</a>
</g>
</g>
<!-- Node20&#45;&gt;Node25 -->
<g id="edge28" class="edge">
<title>Node20&#45;&gt;Node25</title>
<path fill="none" stroke="midnightblue" d="M637.57,-112.08C631.15,-104.38 621.69,-93.03 613.88,-83.65"/>
<polygon fill="midnightblue" stroke="midnightblue" points="616.38,-81.19 607.29,-75.75 611.01,-85.67 616.38,-81.19"/>
</g>
<!-- Node26 -->
<g id="node26" class="node">
<title>Node26</title>
<g id="a_node26"><a xlink:title=" ">
<polygon fill="none" stroke="#bfbfbf" points="570.5,-0.5 570.5,-19.5 629.5,-19.5 629.5,-0.5 570.5,-0.5"/>
<text text-anchor="middle" x="600" y="-7.5" font-family="Helvetica,sans-Serif" font-size="10.00">stdexcept</text>
</a>
</g>
</g>
<!-- Node25&#45;&gt;Node26 -->
<g id="edge29" class="edge">
<title>Node25&#45;&gt;Node26</title>
<path fill="none" stroke="midnightblue" d="M600,-56.08C600,-49.01 600,-38.86 600,-29.99"/>
<polygon fill="midnightblue" stroke="midnightblue" points="603.5,-29.75 600,-19.75 596.5,-29.75 603.5,-29.75"/>
</g>
</g>
</svg>
