<?xml version="1.0" encoding="UTF-8" standalone="no"?>
<!DOCTYPE svg PUBLIC "-//W3C//DTD SVG 1.1//EN"
 "http://www.w3.org/Graphics/SVG/1.1/DTD/svg11.dtd">
<!-- Generated by graphviz version 2.47.1 (20210515.0534)
 -->
<!-- Title: elphi/examples/system_sampling.cpp Pages: 1 -->
<svg width="946pt" height="319pt"
 viewBox="0.00 0.00 945.50 319.00" xmlns="http://www.w3.org/2000/svg" xmlns:xlink="http://www.w3.org/1999/xlink">
<g id="graph0" class="graph" transform="scale(1 1) rotate(0) translate(4 315)">
<title>elphi/examples/system_sampling.cpp</title>
<!-- Node1 -->
<g id="node1" class="node">
<title>Node1</title>
<g id="a_node1"><a xlink:title=" ">
<polygon fill="#bfbfbf" stroke="black" points="142,-280.5 142,-310.5 258,-310.5 258,-280.5 142,-280.5"/>
<text text-anchor="start" x="150" y="-298.5" font-family="Helvetica,sans-Serif" font-size="10.00">elphi/examples/system</text>
<text text-anchor="middle" x="200" y="-287.5" font-family="Helvetica,sans-Serif" font-size="10.00">_sampling.cpp</text>
</a>
</g>
</g>
<!-- Node2 -->
<g id="node2" class="node">
<title>Node2</title>
<g id="a_node2"><a xlink:title=" ">
<polygon fill="none" stroke="#bfbfbf" points="102.5,-224.5 102.5,-243.5 151.5,-243.5 151.5,-224.5 102.5,-224.5"/>
<text text-anchor="middle" x="127" y="-231.5" font-family="Helvetica,sans-Serif" font-size="10.00">cassert</text>
</a>
</g>
</g>
<!-- Node1&#45;&gt;Node2 -->
<g id="edge1" class="edge">
<title>Node1&#45;&gt;Node2</title>
<path fill="none" stroke="midnightblue" d="M182.7,-280.4C171.55,-271.31 157.05,-259.49 145.64,-250.19"/>
<polygon fill="midnightblue" stroke="midnightblue" points="147.58,-247.26 137.62,-243.66 143.16,-252.69 147.58,-247.26"/>
</g>
<!-- Node3 -->
<g id="node3" class="node">
<title>Node3</title>
<g id="a_node3"><a xlink:title=" ">
<polygon fill="none" stroke="#bfbfbf" points="170,-224.5 170,-243.5 230,-243.5 230,-224.5 170,-224.5"/>
<text text-anchor="middle" x="200" y="-231.5" font-family="Helvetica,sans-Serif" font-size="10.00">fmt/core.h</text>
</a>
</g>
</g>
<!-- Node1&#45;&gt;Node3 -->
<g id="edge2" class="edge">
<title>Node1&#45;&gt;Node3</title>
<path fill="none" stroke="midnightblue" d="M200,-280.4C200,-272.47 200,-262.46 200,-253.86"/>
<polygon fill="midnightblue" stroke="midnightblue" points="203.5,-253.66 200,-243.66 196.5,-253.66 203.5,-253.66"/>
</g>
<!-- Node4 -->
<g id="node4" class="node">
<title>Node4</title>
<g id="a_node4"><a xlink:href="perf__cpu__sampler_8hpp.html" target="_top" xlink:title=" ">
<polygon fill="none" stroke="black" points="248.5,-224.5 248.5,-243.5 383.5,-243.5 383.5,-224.5 248.5,-224.5"/>
<text text-anchor="middle" x="316" y="-231.5" font-family="Helvetica,sans-Serif" font-size="10.00">elphi/perf_cpu_sampler.hpp</text>
</a>
</g>
</g>
<!-- Node1&#45;&gt;Node4 -->
<g id="edge3" class="edge">
<title>Node1&#45;&gt;Node4</title>
<path fill="none" stroke="midnightblue" d="M227.49,-280.4C246.43,-270.68 271.44,-257.86 290.04,-248.31"/>
<polygon fill="midnightblue" stroke="midnightblue" points="291.82,-251.34 299.12,-243.66 288.63,-245.11 291.82,-251.34"/>
</g>
<!-- Node5 -->
<g id="node5" class="node">
<title>Node5</title>
<g id="a_node5"><a xlink:title=" ">
<polygon fill="none" stroke="#bfbfbf" points="129.5,-168.5 129.5,-187.5 168.5,-187.5 168.5,-168.5 129.5,-168.5"/>
<text text-anchor="middle" x="149" y="-175.5" font-family="Helvetica,sans-Serif" font-size="10.00">poll.h</text>
</a>
</g>
</g>
<!-- Node4&#45;&gt;Node5 -->
<g id="edge4" class="edge">
<title>Node4&#45;&gt;Node5</title>
<path fill="none" stroke="midnightblue" d="M289.54,-224.44C259.16,-214.62 209.5,-198.56 178.07,-188.4"/>
<polygon fill="midnightblue" stroke="midnightblue" points="179.15,-185.07 168.55,-185.32 176.99,-191.73 179.15,-185.07"/>
</g>
<!-- Node6 -->
<g id="node6" class="node">
<title>Node6</title>
<g id="a_node6"><a xlink:href="file__descriptor_8hpp.html" target="_top" xlink:title=" ">
<polygon fill="none" stroke="black" points="399,-112.5 399,-131.5 517,-131.5 517,-112.5 399,-112.5"/>
<text text-anchor="middle" x="458" y="-119.5" font-family="Helvetica,sans-Serif" font-size="10.00">elphi/file_descriptor.hpp</text>
</a>
</g>
</g>
<!-- Node4&#45;&gt;Node6 -->
<g id="edge5" class="edge">
<title>Node4&#45;&gt;Node6</title>
<path fill="none" stroke="midnightblue" d="M327.14,-224.37C351.3,-205.65 408.75,-161.15 438.85,-137.83"/>
<polygon fill="midnightblue" stroke="midnightblue" points="441.15,-140.48 446.91,-131.59 436.86,-134.95 441.15,-140.48"/>
</g>
<!-- Node8 -->
<g id="node8" class="node">
<title>Node8</title>
<g id="a_node8"><a xlink:href="perf__events_8hpp.html" target="_top" xlink:title=" ">
<polygon fill="none" stroke="black" points="186.5,-168.5 186.5,-187.5 295.5,-187.5 295.5,-168.5 186.5,-168.5"/>
<text text-anchor="middle" x="241" y="-175.5" font-family="Helvetica,sans-Serif" font-size="10.00">elphi/perf_events.hpp</text>
</a>
</g>
</g>
<!-- Node4&#45;&gt;Node8 -->
<g id="edge7" class="edge">
<title>Node4&#45;&gt;Node8</title>
<path fill="none" stroke="midnightblue" d="M303.95,-224.32C292.54,-216.11 275.17,-203.6 261.57,-193.81"/>
<polygon fill="midnightblue" stroke="midnightblue" points="263.43,-190.84 253.27,-187.83 259.34,-196.52 263.43,-190.84"/>
</g>
<!-- Node20 -->
<g id="node20" class="node">
<title>Node20</title>
<g id="a_node20"><a xlink:href="sampler_8hpp.html" target="_top" xlink:title=" ">
<polygon fill="none" stroke="black" points="580,-112.5 580,-131.5 672,-131.5 672,-112.5 580,-112.5"/>
<text text-anchor="middle" x="626" y="-119.5" font-family="Helvetica,sans-Serif" font-size="10.00">elphi/sampler.hpp</text>
</a>
</g>
</g>
<!-- Node4&#45;&gt;Node20 -->
<g id="edge22" class="edge">
<title>Node4&#45;&gt;Node20</title>
<path fill="none" stroke="midnightblue" d="M340.07,-224.46C394.89,-205.01 529.18,-157.36 592.25,-134.98"/>
<polygon fill="midnightblue" stroke="midnightblue" points="593.48,-138.25 601.73,-131.61 591.14,-131.66 593.48,-138.25"/>
</g>
<!-- Node7 -->
<g id="node7" class="node">
<title>Node7</title>
<g id="a_node7"><a xlink:title=" ">
<polygon fill="none" stroke="#bfbfbf" points="466,-56.5 466,-75.5 512,-75.5 512,-56.5 466,-56.5"/>
<text text-anchor="middle" x="489" y="-63.5" font-family="Helvetica,sans-Serif" font-size="10.00">cstdint</text>
</a>
</g>
</g>
<!-- Node6&#45;&gt;Node7 -->
<g id="edge6" class="edge">
<title>Node6&#45;&gt;Node7</title>
<path fill="none" stroke="midnightblue" d="M463.12,-112.08C467.41,-104.61 473.66,-93.72 478.94,-84.52"/>
<polygon fill="midnightblue" stroke="midnightblue" points="482.03,-86.17 483.98,-75.75 475.96,-82.68 482.03,-86.17"/>
</g>
<!-- Node8&#45;&gt;Node6 -->
<g id="edge13" class="edge">
<title>Node8&#45;&gt;Node6</title>
<path fill="none" stroke="midnightblue" d="M275.38,-168.44C312.92,-159.1 373.13,-144.12 414.07,-133.93"/>
<polygon fill="midnightblue" stroke="midnightblue" points="414.92,-137.33 423.78,-131.52 413.23,-130.53 414.92,-137.33"/>
</g>
<!-- Node9 -->
<g id="node9" class="node">
<title>Node9</title>
<g id="a_node9"><a xlink:title=" ">
<polygon fill="none" stroke="#bfbfbf" points="25,-112.5 25,-131.5 75,-131.5 75,-112.5 25,-112.5"/>
<text text-anchor="middle" x="50" y="-119.5" font-family="Helvetica,sans-Serif" font-size="10.00">optional</text>
</a>
</g>
</g>
<!-- Node8&#45;&gt;Node9 -->
<g id="edge8" class="edge">
<title>Node8&#45;&gt;Node9</title>
<path fill="none" stroke="midnightblue" d="M210.74,-168.44C176.65,-158.81 121.33,-143.17 85.31,-132.98"/>
<polygon fill="midnightblue" stroke="midnightblue" points="85.82,-129.49 75.24,-130.14 83.91,-136.23 85.82,-129.49"/>
</g>
<!-- Node10 -->
<g id="node10" class="node">
<title>Node10</title>
<g id="a_node10"><a xlink:title=" ">
<polygon fill="none" stroke="#bfbfbf" points="0,-56.5 0,-75.5 38,-75.5 38,-56.5 0,-56.5"/>
<text text-anchor="middle" x="19" y="-63.5" font-family="Helvetica,sans-Serif" font-size="10.00">span</text>
</a>
</g>
</g>
<!-- Node8&#45;&gt;Node10 -->
<g id="edge9" class="edge">
<title>Node8&#45;&gt;Node10</title>
<path fill="none" stroke="midnightblue" d="M189.89,-168.45C125.23,-157.4 21.54,-138.76 16,-132 5.5,-119.19 8.01,-99.73 12.07,-85.44"/>
<polygon fill="midnightblue" stroke="midnightblue" points="15.47,-86.31 15.29,-75.72 8.83,-84.11 15.47,-86.31"/>
</g>
<!-- Node11 -->
<g id="node11" class="node">
<title>Node11</title>
<g id="a_node11"><a xlink:title=" ">
<polygon fill="none" stroke="#bfbfbf" points="131,-112.5 131,-131.5 177,-131.5 177,-112.5 131,-112.5"/>
<text text-anchor="middle" x="154" y="-119.5" font-family="Helvetica,sans-Serif" font-size="10.00">variant</text>
</a>
</g>
</g>
<!-- Node8&#45;&gt;Node11 -->
<g id="edge10" class="edge">
<title>Node8&#45;&gt;Node11</title>
<path fill="none" stroke="midnightblue" d="M227.02,-168.32C213.45,-159.9 192.62,-146.97 176.68,-137.07"/>
<polygon fill="midnightblue" stroke="midnightblue" points="178.29,-133.95 167.94,-131.65 174.59,-139.9 178.29,-133.95"/>
</g>
<!-- Node12 -->
<g id="node12" class="node">
<title>Node12</title>
<g id="a_node12"><a xlink:title=" ">
<polygon fill="none" stroke="#bfbfbf" points="195,-112.5 195,-131.5 287,-131.5 287,-112.5 195,-112.5"/>
<text text-anchor="middle" x="241" y="-119.5" font-family="Helvetica,sans-Serif" font-size="10.00">linux/perf_event.h</text>
</a>
</g>
</g>
<!-- Node8&#45;&gt;Node12 -->
<g id="edge11" class="edge">
<title>Node8&#45;&gt;Node12</title>
<path fill="none" stroke="midnightblue" d="M241,-168.08C241,-161.01 241,-150.86 241,-141.99"/>
<polygon fill="midnightblue" stroke="midnightblue" points="244.5,-141.75 241,-131.75 237.5,-141.75 244.5,-141.75"/>
</g>
<!-- Node13 -->
<g id="node13" class="node">
<title>Node13</title>
<g id="a_node13"><a xlink:title=" ">
<polygon fill="none" stroke="#bfbfbf" points="78,-56.5 78,-75.5 128,-75.5 128,-56.5 78,-56.5"/>
<text text-anchor="middle" x="103" y="-63.5" font-family="Helvetica,sans-Serif" font-size="10.00">unistd.h</text>
</a>
</g>
</g>
<!-- Node8&#45;&gt;Node13 -->
<g id="edge12" class="edge">
<title>Node8&#45;&gt;Node13</title>
<path fill="none" stroke="midnightblue" d="M189.68,-168.46C166.15,-162.09 139.63,-151.05 122,-132 110.4,-119.47 105.85,-100.25 104.08,-85.95"/>
<polygon fill="midnightblue" stroke="midnightblue" points="107.55,-85.42 103.18,-75.77 100.57,-86.04 107.55,-85.42"/>
</g>
<!-- Node14 -->
<g id="node14" class="node">
<title>Node14</title>
<g id="a_node14"><a xlink:href="utils_8hpp.html" target="_top" xlink:title=" ">
<polygon fill="none" stroke="black" points="305,-112.5 305,-131.5 381,-131.5 381,-112.5 305,-112.5"/>
<text text-anchor="middle" x="343" y="-119.5" font-family="Helvetica,sans-Serif" font-size="10.00">elphi/utils.hpp</text>
</a>
</g>
</g>
<!-- Node8&#45;&gt;Node14 -->
<g id="edge14" class="edge">
<title>Node8&#45;&gt;Node14</title>
<path fill="none" stroke="midnightblue" d="M257.39,-168.32C273.67,-159.7 298.87,-146.36 317.72,-136.39"/>
<polygon fill="midnightblue" stroke="midnightblue" points="319.45,-139.43 326.65,-131.65 316.18,-133.24 319.45,-139.43"/>
</g>
<!-- Node14&#45;&gt;Node10 -->
<g id="edge19" class="edge">
<title>Node14&#45;&gt;Node10</title>
<path fill="none" stroke="midnightblue" d="M304.8,-113.58C301.82,-113.03 298.86,-112.5 296,-112 195.38,-94.39 169.72,-93.05 69,-76 62.38,-74.88 55.28,-73.63 48.56,-72.43"/>
<polygon fill="midnightblue" stroke="midnightblue" points="48.92,-68.93 38.45,-70.6 47.67,-75.82 48.92,-68.93"/>
</g>
<!-- Node14&#45;&gt;Node13 -->
<g id="edge21" class="edge">
<title>Node14&#45;&gt;Node13</title>
<path fill="none" stroke="midnightblue" d="M304.92,-113.2C265.51,-105.02 201.95,-91.49 138.06,-76.18"/>
<polygon fill="midnightblue" stroke="midnightblue" points="138.76,-72.75 128.22,-73.81 137.12,-79.55 138.76,-72.75"/>
</g>
<!-- Node15 -->
<g id="node15" class="node">
<title>Node15</title>
<g id="a_node15"><a xlink:title=" ">
<polygon fill="none" stroke="#bfbfbf" points="330,-56.5 330,-75.5 386,-75.5 386,-56.5 330,-56.5"/>
<text text-anchor="middle" x="358" y="-63.5" font-family="Helvetica,sans-Serif" font-size="10.00">algorithm</text>
</a>
</g>
</g>
<!-- Node14&#45;&gt;Node15 -->
<g id="edge15" class="edge">
<title>Node14&#45;&gt;Node15</title>
<path fill="none" stroke="midnightblue" d="M345.48,-112.08C347.49,-104.85 350.39,-94.41 352.89,-85.4"/>
<polygon fill="midnightblue" stroke="midnightblue" points="356.26,-86.32 355.57,-75.75 349.52,-84.45 356.26,-86.32"/>
</g>
<!-- Node16 -->
<g id="node16" class="node">
<title>Node16</title>
<g id="a_node16"><a xlink:title=" ">
<polygon fill="none" stroke="#bfbfbf" points="146,-56.5 146,-75.5 184,-75.5 184,-56.5 146,-56.5"/>
<text text-anchor="middle" x="165" y="-63.5" font-family="Helvetica,sans-Serif" font-size="10.00">array</text>
</a>
</g>
</g>
<!-- Node14&#45;&gt;Node16 -->
<g id="edge16" class="edge">
<title>Node14&#45;&gt;Node16</title>
<path fill="none" stroke="midnightblue" d="M313.91,-112.46C285.61,-104.1 241.14,-90.87 194.03,-76.28"/>
<polygon fill="midnightblue" stroke="midnightblue" points="194.85,-72.87 184.26,-73.25 192.78,-79.56 194.85,-72.87"/>
</g>
<!-- Node17 -->
<g id="node17" class="node">
<title>Node17</title>
<g id="a_node17"><a xlink:title=" ">
<polygon fill="none" stroke="#bfbfbf" points="202,-56.5 202,-75.5 248,-75.5 248,-56.5 202,-56.5"/>
<text text-anchor="middle" x="225" y="-63.5" font-family="Helvetica,sans-Serif" font-size="10.00">cstring</text>
</a>
</g>
</g>
<!-- Node14&#45;&gt;Node17 -->
<g id="edge17" class="edge">
<title>Node14&#45;&gt;Node17</title>
<path fill="none" stroke="midnightblue" d="M324.3,-112.44C305.06,-103.64 274.85,-89.81 252.8,-79.72"/>
<polygon fill="midnightblue" stroke="midnightblue" points="254.16,-76.5 243.61,-75.52 251.25,-82.86 254.16,-76.5"/>
</g>
<!-- Node18 -->
<g id="node18" class="node">
<title>Node18</title>
<g id="a_node18"><a xlink:title=" ">
<polygon fill="none" stroke="#bfbfbf" points="266,-56.5 266,-75.5 312,-75.5 312,-56.5 266,-56.5"/>
<text text-anchor="middle" x="289" y="-63.5" font-family="Helvetica,sans-Serif" font-size="10.00">ranges</text>
</a>
</g>
</g>
<!-- Node14&#45;&gt;Node18 -->
<g id="edge18" class="edge">
<title>Node14&#45;&gt;Node18</title>
<path fill="none" stroke="midnightblue" d="M334.08,-112.08C326.22,-104.22 314.57,-92.57 305.08,-83.08"/>
<polygon fill="midnightblue" stroke="midnightblue" points="307.3,-80.35 297.75,-75.75 302.35,-85.3 307.3,-80.35"/>
</g>
<!-- Node19 -->
<g id="node19" class="node">
<title>Node19</title>
<g id="a_node19"><a xlink:title=" ">
<polygon fill="none" stroke="#bfbfbf" points="404,-56.5 404,-75.5 448,-75.5 448,-56.5 404,-56.5"/>
<text text-anchor="middle" x="426" y="-63.5" font-family="Helvetica,sans-Serif" font-size="10.00">vector</text>
</a>
</g>
</g>
<!-- Node14&#45;&gt;Node19 -->
<g id="edge20" class="edge">
<title>Node14&#45;&gt;Node19</title>
<path fill="none" stroke="midnightblue" d="M356.34,-112.32C369.16,-103.98 388.78,-91.21 403.94,-81.35"/>
<polygon fill="midnightblue" stroke="midnightblue" points="406.22,-84.04 412.7,-75.65 402.41,-78.17 406.22,-84.04"/>
</g>
<!-- Node20&#45;&gt;Node7 -->
<g id="edge24" class="edge">
<title>Node20&#45;&gt;Node7</title>
<path fill="none" stroke="midnightblue" d="M604.29,-112.44C581.65,-103.52 545.93,-89.44 520.25,-79.32"/>
<polygon fill="midnightblue" stroke="midnightblue" points="521.19,-75.93 510.61,-75.52 518.63,-82.44 521.19,-75.93"/>
</g>
<!-- Node20&#45;&gt;Node19 -->
<g id="edge28" class="edge">
<title>Node20&#45;&gt;Node19</title>
<path fill="none" stroke="midnightblue" d="M592.91,-112.42C560.8,-104.05 510.43,-90.78 458.12,-76.27"/>
<polygon fill="midnightblue" stroke="midnightblue" points="458.91,-72.86 448.33,-73.55 457.03,-79.6 458.91,-72.86"/>
</g>
<!-- Node21 -->
<g id="node21" class="node">
<title>Node21</title>
<g id="a_node21"><a xlink:title=" ">
<polygon fill="none" stroke="#bfbfbf" points="648,-56.5 648,-75.5 694,-75.5 694,-56.5 648,-56.5"/>
<text text-anchor="middle" x="671" y="-63.5" font-family="Helvetica,sans-Serif" font-size="10.00">chrono</text>
</a>
</g>
</g>
<!-- Node20&#45;&gt;Node21 -->
<g id="edge23" class="edge">
<title>Node20&#45;&gt;Node21</title>
<path fill="none" stroke="midnightblue" d="M633.43,-112.08C639.85,-104.38 649.31,-93.03 657.12,-83.65"/>
<polygon fill="midnightblue" stroke="midnightblue" points="659.99,-85.67 663.71,-75.75 654.62,-81.19 659.99,-85.67"/>
</g>
<!-- Node22 -->
<g id="node22" class="node">
<title>Node22</title>
<g id="a_node22"><a xlink:title=" ">
<polygon fill="none" stroke="#bfbfbf" points="712.5,-56.5 712.5,-75.5 777.5,-75.5 777.5,-56.5 712.5,-56.5"/>
<text text-anchor="middle" x="745" y="-63.5" font-family="Helvetica,sans-Serif" font-size="10.00">stop_token</text>
</a>
</g>
</g>
<!-- Node20&#45;&gt;Node22 -->
<g id="edge25" class="edge">
<title>Node20&#45;&gt;Node22</title>
<path fill="none" stroke="midnightblue" d="M644.86,-112.44C664.27,-103.64 694.73,-89.81 716.96,-79.72"/>
<polygon fill="midnightblue" stroke="midnightblue" points="718.57,-82.84 726.23,-75.52 715.68,-76.46 718.57,-82.84"/>
</g>
<!-- Node23 -->
<g id="node23" class="node">
<title>Node23</title>
<g id="a_node23"><a xlink:title=" ">
<polygon fill="none" stroke="#bfbfbf" points="795.5,-56.5 795.5,-75.5 836.5,-75.5 836.5,-56.5 795.5,-56.5"/>
<text text-anchor="middle" x="816" y="-63.5" font-family="Helvetica,sans-Serif" font-size="10.00">string</text>
</a>
</g>
</g>
<!-- Node20&#45;&gt;Node23 -->
<g id="edge26" class="edge">
<title>Node20&#45;&gt;Node23</title>
<path fill="none" stroke="midnightblue" d="M657.02,-112.45C687.33,-104.05 735.03,-90.74 785.56,-76.09"/>
<polygon fill="midnightblue" stroke="midnightblue" points="786.73,-79.4 795.36,-73.24 784.78,-72.67 786.73,-79.4"/>
</g>
<!-- Node24 -->
<g id="node24" class="node">
<title>Node24</title>
<g id="a_node24"><a xlink:title=" ">
<polygon fill="none" stroke="#bfbfbf" points="854.5,-56.5 854.5,-75.5 937.5,-75.5 937.5,-56.5 854.5,-56.5"/>
<text text-anchor="middle" x="896" y="-63.5" font-family="Helvetica,sans-Serif" font-size="10.00">unordered_map</text>
</a>
</g>
</g>
<!-- Node20&#45;&gt;Node24 -->
<g id="edge27" class="edge">
<title>Node20&#45;&gt;Node24</title>
<path fill="none" stroke="midnightblue" d="M668.78,-112.44C716.46,-102.91 793.53,-87.49 844.48,-77.3"/>
<polygon fill="midnightblue" stroke="midnightblue" points="845.19,-80.73 854.31,-75.34 843.81,-73.87 845.19,-80.73"/>
</g>
<!-- Node25 -->
<g id="node25" class="node">
<title>Node25</title>
<g id="a_node25"><a xlink:href="exception_8hpp.html" target="_top" xlink:title=" ">
<polygon fill="none" stroke="black" points="530.5,-56.5 530.5,-75.5 629.5,-75.5 629.5,-56.5 530.5,-56.5"/>
<text text-anchor="middle" x="580" y="-63.5" font-family="Helvetica,sans-Serif" font-size="10.00">elphi/exception.hpp</text>
</a>
</g>
</g>
<!-- Node20&#45;&gt;Node25 -->
<g id="edge29" class="edge">
<title>Node20&#45;&gt;Node25</title>
<path fill="none" stroke="midnightblue" d="M618.4,-112.08C611.77,-104.3 601.98,-92.8 593.94,-83.37"/>
<polygon fill="midnightblue" stroke="midnightblue" points="596.6,-81.09 587.45,-75.75 591.27,-85.63 596.6,-81.09"/>
</g>
<!-- Node26 -->
<g id="node26" class="node">
<title>Node26</title>
<g id="a_node26"><a xlink:title=" ">
<polygon fill="none" stroke="#bfbfbf" points="550.5,-0.5 550.5,-19.5 609.5,-19.5 609.5,-0.5 550.5,-0.5"/>
<text text-anchor="middle" x="580" y="-7.5" font-family="Helvetica,sans-Serif" font-size="10.00">stdexcept</text>
</a>
</g>
</g>
<!-- Node25&#45;&gt;Node26 -->
<g id="edge30" class="edge">
<title>Node25&#45;&gt;Node26</title>
<path fill="none" stroke="midnightblue" d="M580,-56.08C580,-49.01 580,-38.86 580,-29.99"/>
<polygon fill="midnightblue" stroke="midnightblue" points="583.5,-29.75 580,-19.75 576.5,-29.75 583.5,-29.75"/>
</g>
</g>
</svg>
