<?xml version="1.0" encoding="UTF-8" standalone="no"?>
<!DOCTYPE svg PUBLIC "-//W3C//DTD SVG 1.1//EN"
 "http://www.w3.org/Graphics/SVG/1.1/DTD/svg11.dtd">
<!-- Generated by graphviz version 2.47.1 (20210515.0534)
 -->
<!-- Title: elphi/src/timeline_view.cpp Pages: 1 -->
<svg width="542pt" height="263pt"
 viewBox="0.00 0.00 541.50 263.00" xmlns="http://www.w3.org/2000/svg" xmlns:xlink="http://www.w3.org/1999/xlink">
<g id="graph0" class="graph" transform="scale(1 1) rotate(0) translate(4 259)">
<title>elphi/src/timeline_view.cpp</title>
<!-- Node1 -->
<g id="node1" class="node">
<title>Node1</title>
<g id="a_node1"><a xlink:title=" ">
<polygon fill="#bfbfbf" stroke="black" points="131,-224.5 131,-254.5 221,-254.5 221,-224.5 131,-224.5"/>
<text text-anchor="start" x="139" y="-242.5" font-family="Helvetica,sans-Serif" font-size="10.00">elphi/src/timeline</text>
<text text-anchor="middle" x="176" y="-231.5" font-family="Helvetica,sans-Serif" font-size="10.00">_view.cpp</text>
</a>
</g>
</g>
<!-- Node2 -->
<g id="node2" class="node">
<title>Node2</title>
<g id="a_node2"><a xlink:title=" ">
<polygon fill="none" stroke="#bfbfbf" points="86.5,-168.5 86.5,-187.5 155.5,-187.5 155.5,-168.5 86.5,-168.5"/>
<text text-anchor="middle" x="121" y="-175.5" font-family="Helvetica,sans-Serif" font-size="10.00">fmt/format.h</text>
</a>
</g>
</g>
<!-- Node1&#45;&gt;Node2 -->
<g id="edge1" class="edge">
<title>Node1&#45;&gt;Node2</title>
<path fill="none" stroke="midnightblue" d="M162.97,-224.4C154.81,-215.58 144.28,-204.18 135.81,-195.02"/>
<polygon fill="midnightblue" stroke="midnightblue" points="138.36,-192.63 129,-187.66 133.22,-197.38 138.36,-192.63"/>
</g>
<!-- Node3 -->
<g id="node3" class="node">
<title>Node3</title>
<g id="a_node3"><a xlink:href="timeline__view_8hpp.html" target="_top" xlink:title=" ">
<polygon fill="none" stroke="black" points="173.5,-168.5 173.5,-187.5 290.5,-187.5 290.5,-168.5 173.5,-168.5"/>
<text text-anchor="middle" x="232" y="-175.5" font-family="Helvetica,sans-Serif" font-size="10.00">elphi/timeline_view.hpp</text>
</a>
</g>
</g>
<!-- Node1&#45;&gt;Node3 -->
<g id="edge2" class="edge">
<title>Node1&#45;&gt;Node3</title>
<path fill="none" stroke="midnightblue" d="M189.27,-224.4C197.58,-215.58 208.3,-204.18 216.92,-195.02"/>
<polygon fill="midnightblue" stroke="midnightblue" points="219.55,-197.34 223.85,-187.66 214.45,-192.54 219.55,-197.34"/>
</g>
<!-- Node4 -->
<g id="node4" class="node">
<title>Node4</title>
<g id="a_node4"><a xlink:href="sampler_8hpp.html" target="_top" xlink:title=" ">
<polygon fill="none" stroke="black" points="186,-112.5 186,-131.5 278,-131.5 278,-112.5 186,-112.5"/>
<text text-anchor="middle" x="232" y="-119.5" font-family="Helvetica,sans-Serif" font-size="10.00">elphi/sampler.hpp</text>
</a>
</g>
</g>
<!-- Node3&#45;&gt;Node4 -->
<g id="edge3" class="edge">
<title>Node3&#45;&gt;Node4</title>
<path fill="none" stroke="midnightblue" d="M232,-168.08C232,-161.01 232,-150.86 232,-141.99"/>
<polygon fill="midnightblue" stroke="midnightblue" points="235.5,-141.75 232,-131.75 228.5,-141.75 235.5,-141.75"/>
</g>
<!-- Node5 -->
<g id="node5" class="node">
<title>Node5</title>
<g id="a_node5"><a xlink:title=" ">
<polygon fill="none" stroke="#bfbfbf" points="0,-56.5 0,-75.5 46,-75.5 46,-56.5 0,-56.5"/>
<text text-anchor="middle" x="23" y="-63.5" font-family="Helvetica,sans-Serif" font-size="10.00">chrono</text>
</a>
</g>
</g>
<!-- Node4&#45;&gt;Node5 -->
<g id="edge4" class="edge">
<title>Node4&#45;&gt;Node5</title>
<path fill="none" stroke="midnightblue" d="M197.34,-112.46C163.63,-104.1 110.73,-90.81 55.94,-76.2"/>
<polygon fill="midnightblue" stroke="midnightblue" points="56.62,-72.76 46.05,-73.56 54.81,-79.52 56.62,-72.76"/>
</g>
<!-- Node6 -->
<g id="node6" class="node">
<title>Node6</title>
<g id="a_node6"><a xlink:title=" ">
<polygon fill="none" stroke="#bfbfbf" points="64,-56.5 64,-75.5 110,-75.5 110,-56.5 64,-56.5"/>
<text text-anchor="middle" x="87" y="-63.5" font-family="Helvetica,sans-Serif" font-size="10.00">cstdint</text>
</a>
</g>
</g>
<!-- Node4&#45;&gt;Node6 -->
<g id="edge5" class="edge">
<title>Node4&#45;&gt;Node6</title>
<path fill="none" stroke="midnightblue" d="M209.02,-112.44C184.84,-103.44 146.58,-89.19 119.35,-79.05"/>
<polygon fill="midnightblue" stroke="midnightblue" points="120.46,-75.73 109.87,-75.52 118.02,-82.29 120.46,-75.73"/>
</g>
<!-- Node7 -->
<g id="node7" class="node">
<title>Node7</title>
<g id="a_node7"><a xlink:title=" ">
<polygon fill="none" stroke="#bfbfbf" points="128.5,-56.5 128.5,-75.5 193.5,-75.5 193.5,-56.5 128.5,-56.5"/>
<text text-anchor="middle" x="161" y="-63.5" font-family="Helvetica,sans-Serif" font-size="10.00">stop_token</text>
</a>
</g>
</g>
<!-- Node4&#45;&gt;Node7 -->
<g id="edge6" class="edge">
<title>Node4&#45;&gt;Node7</title>
<path fill="none" stroke="midnightblue" d="M220.59,-112.32C209.89,-104.18 193.66,-91.84 180.84,-82.09"/>
<polygon fill="midnightblue" stroke="midnightblue" points="182.69,-79.1 172.61,-75.83 178.46,-84.67 182.69,-79.1"/>
</g>
<!-- Node8 -->
<g id="node8" class="node">
<title>Node8</title>
<g id="a_node8"><a xlink:title=" ">
<polygon fill="none" stroke="#bfbfbf" points="211.5,-56.5 211.5,-75.5 252.5,-75.5 252.5,-56.5 211.5,-56.5"/>
<text text-anchor="middle" x="232" y="-63.5" font-family="Helvetica,sans-Serif" font-size="10.00">string</text>
</a>
</g>
</g>
<!-- Node4&#45;&gt;Node8 -->
<g id="edge7" class="edge">
<title>Node4&#45;&gt;Node8</title>
<path fill="none" stroke="midnightblue" d="M232,-112.08C232,-105.01 232,-94.86 232,-85.99"/>
<polygon fill="midnightblue" stroke="midnightblue" points="235.5,-85.75 232,-75.75 228.5,-85.75 235.5,-85.75"/>
</g>
<!-- Node9 -->
<g id="node9" class="node">
<title>Node9</title>
<g id="a_node9"><a xlink:title=" ">
<polygon fill="none" stroke="#bfbfbf" points="270.5,-56.5 270.5,-75.5 353.5,-75.5 353.5,-56.5 270.5,-56.5"/>
<text text-anchor="middle" x="312" y="-63.5" font-family="Helvetica,sans-Serif" font-size="10.00">unordered_map</text>
</a>
</g>
</g>
<!-- Node4&#45;&gt;Node9 -->
<g id="edge8" class="edge">
<title>Node4&#45;&gt;Node9</title>
<path fill="none" stroke="midnightblue" d="M244.85,-112.32C257.22,-103.98 276.13,-91.21 290.74,-81.35"/>
<polygon fill="midnightblue" stroke="midnightblue" points="292.85,-84.15 299.18,-75.65 288.93,-78.35 292.85,-84.15"/>
</g>
<!-- Node10 -->
<g id="node10" class="node">
<title>Node10</title>
<g id="a_node10"><a xlink:title=" ">
<polygon fill="none" stroke="#bfbfbf" points="372,-56.5 372,-75.5 416,-75.5 416,-56.5 372,-56.5"/>
<text text-anchor="middle" x="394" y="-63.5" font-family="Helvetica,sans-Serif" font-size="10.00">vector</text>
</a>
</g>
</g>
<!-- Node4&#45;&gt;Node10 -->
<g id="edge9" class="edge">
<title>Node4&#45;&gt;Node10</title>
<path fill="none" stroke="midnightblue" d="M257.67,-112.44C285.96,-103.01 331.52,-87.83 362.09,-77.64"/>
<polygon fill="midnightblue" stroke="midnightblue" points="363.45,-80.87 371.83,-74.39 361.24,-74.23 363.45,-80.87"/>
</g>
<!-- Node11 -->
<g id="node11" class="node">
<title>Node11</title>
<g id="a_node11"><a xlink:href="exception_8hpp.html" target="_top" xlink:title=" ">
<polygon fill="none" stroke="black" points="434.5,-56.5 434.5,-75.5 533.5,-75.5 533.5,-56.5 434.5,-56.5"/>
<text text-anchor="middle" x="484" y="-63.5" font-family="Helvetica,sans-Serif" font-size="10.00">elphi/exception.hpp</text>
</a>
</g>
</g>
<!-- Node4&#45;&gt;Node11 -->
<g id="edge10" class="edge">
<title>Node4&#45;&gt;Node11</title>
<path fill="none" stroke="midnightblue" d="M271.93,-112.44C315.89,-103.02 386.63,-87.87 434.18,-77.68"/>
<polygon fill="midnightblue" stroke="midnightblue" points="435.21,-81.03 444.26,-75.52 433.75,-74.19 435.21,-81.03"/>
</g>
<!-- Node12 -->
<g id="node12" class="node">
<title>Node12</title>
<g id="a_node12"><a xlink:title=" ">
<polygon fill="none" stroke="#bfbfbf" points="454.5,-0.5 454.5,-19.5 513.5,-19.5 513.5,-0.5 454.5,-0.5"/>
<text text-anchor="middle" x="484" y="-7.5" font-family="Helvetica,sans-Serif" font-size="10.00">stdexcept</text>
</a>
</g>
</g>
<!-- Node11&#45;&gt;Node12 -->
<g id="edge11" class="edge">
<title>Node11&#45;&gt;Node12</title>
<path fill="none" stroke="midnightblue" d="M484,-56.08C484,-49.01 484,-38.86 484,-29.99"/>
<polygon fill="midnightblue" stroke="midnightblue" points="487.5,-29.75 484,-19.75 480.5,-29.75 487.5,-29.75"/>
</g>
</g>
</svg>
