<?xml version="1.0" encoding="UTF-8" standalone="no"?>
<!DOCTYPE svg PUBLIC "-//W3C//DTD SVG 1.1//EN"
 "http://www.w3.org/Graphics/SVG/1.1/DTD/svg11.dtd">
<!-- Generated by graphviz version 2.47.1 (20210515.0534)
 -->
<!-- Title: elphi/include/elphi/utils.hpp Pages: 1 -->
<svg width="472pt" height="240pt"
 viewBox="0.00 0.00 472.00 240.00" xmlns="http://www.w3.org/2000/svg" xmlns:xlink="http://www.w3.org/1999/xlink">
<g id="graph0" class="graph" transform="scale(1 1) rotate(0) translate(4 236)">
<title>elphi/include/elphi/utils.hpp</title>
<!-- Node1 -->
<g id="node1" class="node">
<title>Node1</title>
<g id="a_node1"><a xlink:title=" ">
<polygon fill="#bfbfbf" stroke="black" points="274,-201.5 274,-231.5 368,-231.5 368,-201.5 274,-201.5"/>
<text text-anchor="start" x="282" y="-219.5" font-family="Helvetica,sans-Serif" font-size="10.00">elphi/include/elphi</text>
<text text-anchor="middle" x="321" y="-208.5" font-family="Helvetica,sans-Serif" font-size="10.00">/utils.hpp</text>
</a>
</g>
</g>
<!-- Node2 -->
<g id="node2" class="node">
<title>Node2</title>
<g id="a_node2"><a xlink:href="perf__events_8hpp.html" target="_top" xlink:title=" ">
<polygon fill="none" stroke="black" points="146,-134.5 146,-164.5 240,-164.5 240,-134.5 146,-134.5"/>
<text text-anchor="start" x="154" y="-152.5" font-family="Helvetica,sans-Serif" font-size="10.00">elphi/include/elphi</text>
<text text-anchor="middle" x="193" y="-141.5" font-family="Helvetica,sans-Serif" font-size="10.00">/perf_events.hpp</text>
</a>
</g>
</g>
<!-- Node1&#45;&gt;Node2 -->
<g id="edge1" class="edge">
<title>Node1&#45;&gt;Node2</title>
<path fill="none" stroke="midnightblue" d="M284.28,-196.85C264.04,-186.58 239.33,-174.03 220.72,-164.58"/>
<polygon fill="midnightblue" stroke="midnightblue" points="282.72,-199.99 293.23,-201.4 285.89,-193.75 282.72,-199.99"/>
</g>
<!-- Node5 -->
<g id="node5" class="node">
<title>Node5</title>
<g id="a_node5"><a xlink:href="perf__cpu__sampler_8cpp.html" target="_top" xlink:title=" ">
<polygon fill="none" stroke="black" points="134,-0.5 134,-30.5 228,-30.5 228,-0.5 134,-0.5"/>
<text text-anchor="start" x="142" y="-18.5" font-family="Helvetica,sans-Serif" font-size="10.00">elphi/src/perf_cpu</text>
<text text-anchor="middle" x="181" y="-7.5" font-family="Helvetica,sans-Serif" font-size="10.00">_sampler.cpp</text>
</a>
</g>
</g>
<!-- Node1&#45;&gt;Node5 -->
<g id="edge7" class="edge">
<title>Node1&#45;&gt;Node5</title>
<path fill="none" stroke="midnightblue" d="M329.51,-191.48C339.06,-159.83 350.09,-103.88 324,-67 302.49,-36.58 261.07,-24.36 228.32,-19.52"/>
<polygon fill="midnightblue" stroke="midnightblue" points="326.1,-190.62 326.38,-201.22 332.77,-192.77 326.1,-190.62"/>
</g>
<!-- Node6 -->
<g id="node6" class="node">
<title>Node6</title>
<g id="a_node6"><a xlink:href="perf__events_8cpp.html" target="_top" xlink:title=" ">
<polygon fill="none" stroke="black" points="190.5,-73 190.5,-92 315.5,-92 315.5,-73 190.5,-73"/>
<text text-anchor="middle" x="253" y="-80" font-family="Helvetica,sans-Serif" font-size="10.00">elphi/src/perf_events.cpp</text>
</a>
</g>
</g>
<!-- Node1&#45;&gt;Node6 -->
<g id="edge8" class="edge">
<title>Node1&#45;&gt;Node6</title>
<path fill="none" stroke="midnightblue" d="M308.95,-192.1C293.57,-162.25 267.73,-112.08 257.43,-92.1"/>
<polygon fill="midnightblue" stroke="midnightblue" points="306.03,-194.09 313.72,-201.37 312.25,-190.88 306.03,-194.09"/>
</g>
<!-- Node7 -->
<g id="node7" class="node">
<title>Node7</title>
<g id="a_node7"><a xlink:href="utils_8cpp.html" target="_top" xlink:title=" ">
<polygon fill="none" stroke="black" points="372,-140 372,-159 464,-159 464,-140 372,-140"/>
<text text-anchor="middle" x="418" y="-147" font-family="Helvetica,sans-Serif" font-size="10.00">elphi/src/utils.cpp</text>
</a>
</g>
</g>
<!-- Node1&#45;&gt;Node7 -->
<g id="edge9" class="edge">
<title>Node1&#45;&gt;Node7</title>
<path fill="none" stroke="midnightblue" d="M350.64,-195.64C368.94,-183.37 391.49,-168.26 405.3,-159.01"/>
<polygon fill="midnightblue" stroke="midnightblue" points="348.41,-192.92 342.05,-201.4 352.3,-198.74 348.41,-192.92"/>
</g>
<!-- Node3 -->
<g id="node3" class="node">
<title>Node3</title>
<g id="a_node3"><a xlink:href="perf__cpu__sampler_8hpp.html" target="_top" xlink:title=" ">
<polygon fill="none" stroke="black" points="18.5,-67.5 18.5,-97.5 133.5,-97.5 133.5,-67.5 18.5,-67.5"/>
<text text-anchor="start" x="26.5" y="-85.5" font-family="Helvetica,sans-Serif" font-size="10.00">elphi/include/elphi</text>
<text text-anchor="middle" x="76" y="-74.5" font-family="Helvetica,sans-Serif" font-size="10.00">/perf_cpu_sampler.hpp</text>
</a>
</g>
</g>
<!-- Node2&#45;&gt;Node3 -->
<g id="edge2" class="edge">
<title>Node2&#45;&gt;Node3</title>
<path fill="none" stroke="midnightblue" d="M158.68,-129.44C140.33,-119.24 118.12,-106.9 101.34,-97.58"/>
<polygon fill="midnightblue" stroke="midnightblue" points="157.17,-132.6 167.61,-134.4 160.57,-126.48 157.17,-132.6"/>
</g>
<!-- Node2&#45;&gt;Node5 -->
<g id="edge5" class="edge">
<title>Node2&#45;&gt;Node5</title>
<path fill="none" stroke="midnightblue" d="M186.04,-124.31C183.99,-116.04 182.02,-106.68 181,-98 178.25,-74.53 179.09,-47 180,-30.69"/>
<polygon fill="midnightblue" stroke="midnightblue" points="182.68,-125.3 188.62,-134.08 189.45,-123.51 182.68,-125.3"/>
</g>
<!-- Node2&#45;&gt;Node6 -->
<g id="edge6" class="edge">
<title>Node2&#45;&gt;Node6</title>
<path fill="none" stroke="midnightblue" d="M212.85,-127C223.8,-115.13 236.8,-101.05 244.97,-92.19"/>
<polygon fill="midnightblue" stroke="midnightblue" points="210.23,-124.67 206.02,-134.4 215.37,-129.42 210.23,-124.67"/>
</g>
<!-- Node4 -->
<g id="node4" class="node">
<title>Node4</title>
<g id="a_node4"><a xlink:href="system__sampling_8cpp.html" target="_top" xlink:title=" ">
<polygon fill="none" stroke="black" points="0,-0.5 0,-30.5 116,-30.5 116,-0.5 0,-0.5"/>
<text text-anchor="start" x="8" y="-18.5" font-family="Helvetica,sans-Serif" font-size="10.00">elphi/examples/system</text>
<text text-anchor="middle" x="58" y="-7.5" font-family="Helvetica,sans-Serif" font-size="10.00">_sampling.cpp</text>
</a>
</g>
</g>
<!-- Node3&#45;&gt;Node4 -->
<g id="edge3" class="edge">
<title>Node3&#45;&gt;Node4</title>
<path fill="none" stroke="midnightblue" d="M69.41,-57.7C66.89,-48.59 64.09,-38.49 61.9,-30.58"/>
<polygon fill="midnightblue" stroke="midnightblue" points="66.05,-58.69 72.09,-67.4 72.8,-56.82 66.05,-58.69"/>
</g>
<!-- Node3&#45;&gt;Node5 -->
<g id="edge4" class="edge">
<title>Node3&#45;&gt;Node5</title>
<path fill="none" stroke="midnightblue" d="M107.48,-62.02C123.82,-51.9 143.41,-39.77 158.26,-30.58"/>
<polygon fill="midnightblue" stroke="midnightblue" points="105.44,-59.16 98.78,-67.4 109.13,-65.11 105.44,-59.16"/>
</g>
</g>
</svg>
