<?xml version="1.0" encoding="UTF-8" standalone="no"?>
<!DOCTYPE svg PUBLIC "-//W3C//DTD SVG 1.1//EN"
 "http://www.w3.org/Graphics/SVG/1.1/DTD/svg11.dtd">
<!-- Generated by graphviz version 2.47.1 (20210515.0534)
 -->
<!-- Title: elphi/include/elphi/utils.hpp Pages: 1 -->
<svg width="250pt" height="162pt"
 viewBox="0.00 0.00 250.00 162.00" xmlns="http://www.w3.org/2000/svg" xmlns:xlink="http://www.w3.org/1999/xlink">
<g id="graph0" class="graph" transform="scale(1 1) rotate(0) translate(4 158)">
<title>elphi/include/elphi/utils.hpp</title>
<!-- Node1 -->
<g id="node1" class="node">
<title>Node1</title>
<g id="a_node1"><a xlink:title=" ">
<polygon fill="#bfbfbf" stroke="black" points="75,-123.5 75,-153.5 169,-153.5 169,-123.5 75,-123.5"/>
<text text-anchor="start" x="83" y="-141.5" font-family="Helvetica,sans-Serif" font-size="10.00">elphi/include/elphi</text>
<text text-anchor="middle" x="122" y="-130.5" font-family="Helvetica,sans-Serif" font-size="10.00">/utils.hpp</text>
</a>
</g>
</g>
<!-- Node2 -->
<g id="node2" class="node">
<title>Node2</title>
<g id="a_node2"><a xlink:href="perf__events_8hpp.html" target="_top" xlink:title=" ">
<polygon fill="none" stroke="black" points="0,-56.5 0,-86.5 94,-86.5 94,-56.5 0,-56.5"/>
<text text-anchor="start" x="8" y="-74.5" font-family="Helvetica,sans-Serif" font-size="10.00">elphi/include/elphi</text>
<text text-anchor="middle" x="47" y="-63.5" font-family="Helvetica,sans-Serif" font-size="10.00">/perf_events.hpp</text>
</a>
</g>
</g>
<!-- Node1&#45;&gt;Node2 -->
<g id="edge1" class="edge">
<title>Node1&#45;&gt;Node2</title>
<path fill="none" stroke="midnightblue" d="M97.88,-116.6C86.56,-106.78 73.36,-95.34 63.24,-86.58"/>
<polygon fill="midnightblue" stroke="midnightblue" points="95.88,-119.49 105.73,-123.4 100.46,-114.2 95.88,-119.49"/>
</g>
<!-- Node3 -->
<g id="node3" class="node">
<title>Node3</title>
<g id="a_node3"><a xlink:href="perf__events_8cpp.html" target="_top" xlink:title=" ">
<polygon fill="none" stroke="black" points="21.5,-0.5 21.5,-19.5 146.5,-19.5 146.5,-0.5 21.5,-0.5"/>
<text text-anchor="middle" x="84" y="-7.5" font-family="Helvetica,sans-Serif" font-size="10.00">elphi/src/perf_events.cpp</text>
</a>
</g>
</g>
<!-- Node1&#45;&gt;Node3 -->
<g id="edge3" class="edge">
<title>Node1&#45;&gt;Node3</title>
<path fill="none" stroke="midnightblue" d="M117.55,-113.6C114.22,-97.2 109.19,-75.04 103,-56 98.81,-43.1 92.43,-28.74 88.24,-19.79"/>
<polygon fill="midnightblue" stroke="midnightblue" points="114.12,-114.32 119.48,-123.46 120.99,-112.97 114.12,-114.32"/>
</g>
<!-- Node4 -->
<g id="node4" class="node">
<title>Node4</title>
<g id="a_node4"><a xlink:href="utils_8cpp.html" target="_top" xlink:title=" ">
<polygon fill="none" stroke="black" points="150,-62 150,-81 242,-81 242,-62 150,-62"/>
<text text-anchor="middle" x="196" y="-69" font-family="Helvetica,sans-Serif" font-size="10.00">elphi/src/utils.cpp</text>
</a>
</g>
</g>
<!-- Node1&#45;&gt;Node4 -->
<g id="edge4" class="edge">
<title>Node1&#45;&gt;Node4</title>
<path fill="none" stroke="midnightblue" d="M145.71,-116.67C159.37,-104.67 175.83,-90.22 186.1,-81.19"/>
<polygon fill="midnightblue" stroke="midnightblue" points="143.26,-114.17 138.06,-123.4 147.88,-119.43 143.26,-114.17"/>
</g>
<!-- Node2&#45;&gt;Node3 -->
<g id="edge2" class="edge">
<title>Node2&#45;&gt;Node3</title>
<path fill="none" stroke="midnightblue" d="M61.11,-47.8C67.23,-37.96 74.03,-27.03 78.62,-19.66"/>
<polygon fill="midnightblue" stroke="midnightblue" points="58.08,-46.06 55.77,-56.4 64.02,-49.76 58.08,-46.06"/>
</g>
</g>
</svg>
