<?xml version="1.0" encoding="UTF-8" standalone="no"?>
<!DOCTYPE svg PUBLIC "-//W3C//DTD SVG 1.1//EN"
 "http://www.w3.org/Graphics/SVG/1.1/DTD/svg11.dtd">
<!-- Generated by graphviz version 2.47.1 (20210515.0534)
 -->
<!-- Title: elphi/include/elphi/utils.hpp Pages: 1 -->
<svg width="331pt" height="162pt"
 viewBox="0.00 0.00 330.50 162.00" xmlns="http://www.w3.org/2000/svg" xmlns:xlink="http://www.w3.org/1999/xlink">
<g id="graph0" class="graph" transform="scale(1 1) rotate(0) translate(4 158)">
<title>elphi/include/elphi/utils.hpp</title>
<!-- Node1 -->
<g id="node1" class="node">
<title>Node1</title>
<g id="a_node1"><a xlink:title=" ">
<polygon fill="#bfbfbf" stroke="black" points="158,-123.5 158,-153.5 252,-153.5 252,-123.5 158,-123.5"/>
<text text-anchor="start" x="166" y="-141.5" font-family="Helvetica,sans-Serif" font-size="10.00">elphi/include/elphi</text>
<text text-anchor="middle" x="205" y="-130.5" font-family="Helvetica,sans-Serif" font-size="10.00">/utils.hpp</text>
</a>
</g>
</g>
<!-- Node2 -->
<g id="node2" class="node">
<title>Node2</title>
<g id="a_node2"><a xlink:href="perf__events_8hpp.html" target="_top" xlink:title=" ">
<polygon fill="none" stroke="black" points="83,-56.5 83,-86.5 177,-86.5 177,-56.5 83,-56.5"/>
<text text-anchor="start" x="91" y="-74.5" font-family="Helvetica,sans-Serif" font-size="10.00">elphi/include/elphi</text>
<text text-anchor="middle" x="130" y="-63.5" font-family="Helvetica,sans-Serif" font-size="10.00">/perf_events.hpp</text>
</a>
</g>
</g>
<!-- Node1&#45;&gt;Node2 -->
<g id="edge1" class="edge">
<title>Node1&#45;&gt;Node2</title>
<path fill="none" stroke="midnightblue" d="M180.88,-116.6C169.56,-106.78 156.36,-95.34 146.24,-86.58"/>
<polygon fill="midnightblue" stroke="midnightblue" points="178.88,-119.49 188.73,-123.4 183.46,-114.2 178.88,-119.49"/>
</g>
<!-- Node4 -->
<g id="node4" class="node">
<title>Node4</title>
<g id="a_node4"><a xlink:href="perf__events_8cpp.html" target="_top" xlink:title=" ">
<polygon fill="none" stroke="black" points="144,-0.5 144,-19.5 266,-19.5 266,-0.5 144,-0.5"/>
<text text-anchor="middle" x="205" y="-7.5" font-family="Helvetica,sans-Serif" font-size="10.00">elphi/lib/perf_events.cpp</text>
</a>
</g>
</g>
<!-- Node1&#45;&gt;Node4 -->
<g id="edge4" class="edge">
<title>Node1&#45;&gt;Node4</title>
<path fill="none" stroke="midnightblue" d="M205,-113.14C205,-84.62 205,-38.86 205,-19.79"/>
<polygon fill="midnightblue" stroke="midnightblue" points="201.5,-113.48 205,-123.48 208.5,-113.48 201.5,-113.48"/>
</g>
<!-- Node5 -->
<g id="node5" class="node">
<title>Node5</title>
<g id="a_node5"><a xlink:href="utils_8cpp.html" target="_top" xlink:title=" ">
<polygon fill="none" stroke="black" points="233.5,-62 233.5,-81 322.5,-81 322.5,-62 233.5,-62"/>
<text text-anchor="middle" x="278" y="-69" font-family="Helvetica,sans-Serif" font-size="10.00">elphi/lib/utils.cpp</text>
</a>
</g>
</g>
<!-- Node1&#45;&gt;Node5 -->
<g id="edge5" class="edge">
<title>Node1&#45;&gt;Node5</title>
<path fill="none" stroke="midnightblue" d="M228.39,-116.67C241.87,-104.67 258.1,-90.22 268.24,-81.19"/>
<polygon fill="midnightblue" stroke="midnightblue" points="225.98,-114.13 220.84,-123.4 230.64,-119.36 225.98,-114.13"/>
</g>
<!-- Node3 -->
<g id="node3" class="node">
<title>Node3</title>
<g id="a_node3"><a xlink:href="cpu__sampler_8cpp.html" target="_top" xlink:title=" ">
<polygon fill="none" stroke="black" points="0,-0.5 0,-19.5 126,-19.5 126,-0.5 0,-0.5"/>
<text text-anchor="middle" x="63" y="-7.5" font-family="Helvetica,sans-Serif" font-size="10.00">elphi/lib/cpu_sampler.cpp</text>
</a>
</g>
</g>
<!-- Node2&#45;&gt;Node3 -->
<g id="edge2" class="edge">
<title>Node2&#45;&gt;Node3</title>
<path fill="none" stroke="midnightblue" d="M106.46,-49.6C94.88,-39.32 81.56,-27.48 72.75,-19.66"/>
<polygon fill="midnightblue" stroke="midnightblue" points="104.32,-52.38 114.12,-56.4 108.97,-47.14 104.32,-52.38"/>
</g>
<!-- Node2&#45;&gt;Node4 -->
<g id="edge3" class="edge">
<title>Node2&#45;&gt;Node4</title>
<path fill="none" stroke="midnightblue" d="M155.97,-49.89C169.02,-39.54 184.13,-27.56 194.09,-19.66"/>
<polygon fill="midnightblue" stroke="midnightblue" points="153.43,-47.44 147.77,-56.4 157.78,-52.93 153.43,-47.44"/>
</g>
</g>
</svg>
