<?xml version="1.0" encoding="UTF-8" standalone="no"?>
<!DOCTYPE svg PUBLIC "-//W3C//DTD SVG 1.1//EN"
 "http://www.w3.org/Graphics/SVG/1.1/DTD/svg11.dtd">
<!-- Generated by graphviz version 2.47.1 (20210515.0534)
 -->
<!-- Title: elphi/src/utils.cpp Pages: 1 -->
<svg width="366pt" height="140pt"
 viewBox="0.00 0.00 366.00 140.00" xmlns="http://www.w3.org/2000/svg" xmlns:xlink="http://www.w3.org/1999/xlink">
<g id="graph0" class="graph" transform="scale(1 1) rotate(0) translate(4 136)">
<title>elphi/src/utils.cpp</title>
<!-- Node1 -->
<g id="node1" class="node">
<title>Node1</title>
<g id="a_node1"><a xlink:title=" ">
<polygon fill="#bfbfbf" stroke="black" points="139,-112.5 139,-131.5 231,-131.5 231,-112.5 139,-112.5"/>
<text text-anchor="middle" x="185" y="-119.5" font-family="Helvetica,sans-Serif" font-size="10.00">elphi/src/utils.cpp</text>
</a>
</g>
</g>
<!-- Node2 -->
<g id="node2" class="node">
<title>Node2</title>
<g id="a_node2"><a xlink:href="utils_8hpp.html" target="_top" xlink:title=" ">
<polygon fill="none" stroke="black" points="147,-56.5 147,-75.5 223,-75.5 223,-56.5 147,-56.5"/>
<text text-anchor="middle" x="185" y="-63.5" font-family="Helvetica,sans-Serif" font-size="10.00">elphi/utils.hpp</text>
</a>
</g>
</g>
<!-- Node1&#45;&gt;Node2 -->
<g id="edge1" class="edge">
<title>Node1&#45;&gt;Node2</title>
<path fill="none" stroke="midnightblue" d="M185,-112.08C185,-105.01 185,-94.86 185,-85.99"/>
<polygon fill="midnightblue" stroke="midnightblue" points="188.5,-85.75 185,-75.75 181.5,-85.75 188.5,-85.75"/>
</g>
<!-- Node3 -->
<g id="node3" class="node">
<title>Node3</title>
<g id="a_node3"><a xlink:title=" ">
<polygon fill="none" stroke="#bfbfbf" points="0,-0.5 0,-19.5 56,-19.5 56,-0.5 0,-0.5"/>
<text text-anchor="middle" x="28" y="-7.5" font-family="Helvetica,sans-Serif" font-size="10.00">algorithm</text>
</a>
</g>
</g>
<!-- Node2&#45;&gt;Node3 -->
<g id="edge2" class="edge">
<title>Node2&#45;&gt;Node3</title>
<path fill="none" stroke="midnightblue" d="M160.12,-56.44C133.71,-47.36 91.78,-32.94 62.26,-22.78"/>
<polygon fill="midnightblue" stroke="midnightblue" points="63.36,-19.46 52.76,-19.52 61.08,-26.08 63.36,-19.46"/>
</g>
<!-- Node4 -->
<g id="node4" class="node">
<title>Node4</title>
<g id="a_node4"><a xlink:title=" ">
<polygon fill="none" stroke="#bfbfbf" points="74,-0.5 74,-19.5 112,-19.5 112,-0.5 74,-0.5"/>
<text text-anchor="middle" x="93" y="-7.5" font-family="Helvetica,sans-Serif" font-size="10.00">array</text>
</a>
</g>
</g>
<!-- Node2&#45;&gt;Node4 -->
<g id="edge3" class="edge">
<title>Node2&#45;&gt;Node4</title>
<path fill="none" stroke="midnightblue" d="M170.22,-56.32C155.73,-47.82 133.43,-34.73 116.51,-24.8"/>
<polygon fill="midnightblue" stroke="midnightblue" points="118.14,-21.7 107.74,-19.65 114.6,-27.74 118.14,-21.7"/>
</g>
<!-- Node5 -->
<g id="node5" class="node">
<title>Node5</title>
<g id="a_node5"><a xlink:title=" ">
<polygon fill="none" stroke="#bfbfbf" points="130,-0.5 130,-19.5 176,-19.5 176,-0.5 130,-0.5"/>
<text text-anchor="middle" x="153" y="-7.5" font-family="Helvetica,sans-Serif" font-size="10.00">cstring</text>
</a>
</g>
</g>
<!-- Node2&#45;&gt;Node5 -->
<g id="edge4" class="edge">
<title>Node2&#45;&gt;Node5</title>
<path fill="none" stroke="midnightblue" d="M179.72,-56.08C175.29,-48.61 168.84,-37.72 163.38,-28.52"/>
<polygon fill="midnightblue" stroke="midnightblue" points="166.29,-26.57 158.19,-19.75 160.27,-30.14 166.29,-26.57"/>
</g>
<!-- Node6 -->
<g id="node6" class="node">
<title>Node6</title>
<g id="a_node6"><a xlink:title=" ">
<polygon fill="none" stroke="#bfbfbf" points="194,-0.5 194,-19.5 240,-19.5 240,-0.5 194,-0.5"/>
<text text-anchor="middle" x="217" y="-7.5" font-family="Helvetica,sans-Serif" font-size="10.00">ranges</text>
</a>
</g>
</g>
<!-- Node2&#45;&gt;Node6 -->
<g id="edge5" class="edge">
<title>Node2&#45;&gt;Node6</title>
<path fill="none" stroke="midnightblue" d="M190.28,-56.08C194.71,-48.61 201.16,-37.72 206.62,-28.52"/>
<polygon fill="midnightblue" stroke="midnightblue" points="209.73,-30.14 211.81,-19.75 203.71,-26.57 209.73,-30.14"/>
</g>
<!-- Node7 -->
<g id="node7" class="node">
<title>Node7</title>
<g id="a_node7"><a xlink:title=" ">
<polygon fill="none" stroke="#bfbfbf" points="258,-0.5 258,-19.5 296,-19.5 296,-0.5 258,-0.5"/>
<text text-anchor="middle" x="277" y="-7.5" font-family="Helvetica,sans-Serif" font-size="10.00">span</text>
</a>
</g>
</g>
<!-- Node2&#45;&gt;Node7 -->
<g id="edge6" class="edge">
<title>Node2&#45;&gt;Node7</title>
<path fill="none" stroke="midnightblue" d="M199.78,-56.32C214.27,-47.82 236.57,-34.73 253.49,-24.8"/>
<polygon fill="midnightblue" stroke="midnightblue" points="255.4,-27.74 262.26,-19.65 251.86,-21.7 255.4,-27.74"/>
</g>
<!-- Node8 -->
<g id="node8" class="node">
<title>Node8</title>
<g id="a_node8"><a xlink:title=" ">
<polygon fill="none" stroke="#bfbfbf" points="314,-0.5 314,-19.5 358,-19.5 358,-0.5 314,-0.5"/>
<text text-anchor="middle" x="336" y="-7.5" font-family="Helvetica,sans-Serif" font-size="10.00">vector</text>
</a>
</g>
</g>
<!-- Node2&#45;&gt;Node8 -->
<g id="edge7" class="edge">
<title>Node2&#45;&gt;Node8</title>
<path fill="none" stroke="midnightblue" d="M208.93,-56.44C234.67,-47.24 275.72,-32.56 304.17,-22.38"/>
<polygon fill="midnightblue" stroke="midnightblue" points="305.42,-25.65 313.66,-18.99 303.07,-19.06 305.42,-25.65"/>
</g>
</g>
</svg>
